<svg width="204" height="194" viewBox="0 0 204 194" fill="none" xmlns="http://www.w3.org/2000/svg">
<path d="M174.327 168.778L145.031 153.574C143.104 152.573 143.104 150.099 145.031 149.107L176.274 133.021C178.802 131.715 178.802 128.478 176.274 127.173L148.61 112.866C148.018 112.561 148.018 111.79 148.61 111.493L180.682 95.2285C181.283 94.9234 181.283 94.1606 180.682 93.8555L119.734 62.6234C119.457 62.4794 119.114 62.4794 118.827 62.6234L97.49 73.845C94.9803 75.1672 95.009 78.4047 97.5473 79.693L125.164 93.669C125.765 93.9741 125.765 94.7369 125.164 95.042L106.002 104.933C105.725 105.077 105.382 105.077 105.105 104.933L65.4365 84.7868C64.2627 84.1935 62.8123 84.1935 61.6481 84.7868L37.3431 97.2542C36.7515 97.5593 36.7515 98.3221 37.3431 98.6272L103.998 133.097C104.59 133.402 104.59 134.165 103.998 134.47L37.1332 168.567C36.5415 168.872 36.532 169.634 37.1332 169.94L68.7669 186.374C69.9501 186.984 71.4101 186.992 72.5934 186.374L97.2992 173.652C98.2057 173.186 99.3318 173.186 100.238 173.66L137.702 193.29C139.325 194.137 141.338 194.137 142.951 193.273L174.336 176.61C177.695 174.83 177.667 170.507 174.289 168.753L174.327 168.778Z" fill="#1C5360"/>
<path d="M174.298 168.168L145.003 152.963C143.075 151.963 143.075 149.488 145.003 148.497L176.245 132.41C178.774 131.105 178.774 127.868 176.245 126.562L148.581 112.256C147.989 111.951 147.989 111.179 148.581 110.883L180.654 94.6184C181.255 94.3133 181.255 93.5505 180.654 93.2454L119.705 62.0133C119.428 61.8693 119.085 61.8693 118.799 62.0133L97.4614 73.2348C94.9517 74.557 94.9803 77.7946 97.5187 79.0829L125.135 93.0589C125.736 93.364 125.736 94.1268 125.135 94.4319L105.973 104.323C105.697 104.467 105.353 104.467 105.076 104.323L65.4079 84.1767C64.2341 83.5834 62.7836 83.5834 61.6195 84.1767L37.3145 96.644C36.7229 96.9491 36.7229 97.7119 37.3145 98.017L103.969 132.487C104.561 132.792 104.561 133.555 103.969 133.86L37.1046 167.956C36.5129 168.262 36.5034 169.024 37.1046 169.33L68.7382 185.763C69.9215 186.374 71.3815 186.382 72.5648 185.763L97.2706 173.042C98.1771 172.576 99.3031 172.576 100.21 173.05L137.674 192.679C139.296 193.527 141.31 193.527 142.922 192.662L174.308 176C177.667 174.22 177.638 169.897 174.26 168.143L174.298 168.168Z" fill="#1C5461"/>
<path d="M174.279 167.55L144.983 152.345C143.056 151.345 143.056 148.87 144.983 147.878L176.226 131.792C178.755 130.487 178.755 127.249 176.226 125.944L148.562 111.637C147.97 111.332 147.97 110.561 148.562 110.264L180.635 93.9997C181.236 93.6946 181.236 92.9318 180.635 92.6267L119.686 61.3947C119.409 61.2506 119.066 61.2506 118.78 61.3947L97.4423 72.6162C94.9326 73.9383 94.9612 77.1759 97.4996 78.4642L125.116 92.4403C125.717 92.7454 125.717 93.5082 125.116 93.8133L105.954 103.704C105.678 103.848 105.334 103.848 105.057 103.704L65.3888 83.558C64.215 82.9647 62.7646 82.9647 61.6004 83.558L37.2954 96.0254C36.7038 96.3305 36.7038 97.0933 37.2954 97.3984L103.95 131.868C104.542 132.173 104.542 132.936 103.95 133.241L37.0855 167.338C36.4938 167.643 36.4843 168.406 37.0855 168.711L68.7191 185.145C69.9024 185.755 71.3624 185.763 72.5457 185.145L97.2515 172.423C98.158 171.957 99.284 171.957 100.191 172.432L137.655 192.061C139.277 192.908 141.29 192.908 142.903 192.044L174.289 175.381C177.648 173.601 177.619 169.279 174.241 167.524L174.279 167.55Z" fill="#1C5562"/>
<path d="M174.26 166.939L144.964 151.734C143.037 150.734 143.037 148.259 144.964 147.268L176.207 131.181C178.736 129.876 178.736 126.639 176.207 125.333L148.543 111.027C147.951 110.722 147.951 109.95 148.543 109.654L180.615 93.3894C181.217 93.0843 181.217 92.3215 180.615 92.0164L119.667 60.7843C119.39 60.6402 119.047 60.6402 118.76 60.7843L97.4232 72.0058C94.9135 73.328 94.9422 76.5656 97.4805 77.8539L125.097 91.8299C125.698 92.135 125.698 92.8978 125.097 93.2029L105.935 103.094C105.658 103.238 105.315 103.238 105.038 103.094L65.3697 82.9477C64.1959 82.3544 62.7455 82.3544 61.5813 82.9477L37.2763 95.415C36.6847 95.7201 36.6847 96.4829 37.2763 96.788L103.931 131.258C104.523 131.563 104.523 132.326 103.931 132.631L37.0664 166.727C36.4747 167.033 36.4652 167.795 37.0664 168.101L68.7001 184.534C69.8833 185.145 71.3433 185.153 72.5266 184.534L97.2324 171.813C98.1389 171.347 99.2649 171.347 100.171 171.821L137.636 191.45C139.258 192.298 141.271 192.298 142.884 191.433L174.27 174.771C177.629 172.991 177.6 168.668 174.222 166.914L174.26 166.939Z" fill="#1B5662"/>
<path d="M174.241 166.321L144.945 151.116C143.018 150.116 143.018 147.641 144.945 146.649L176.188 130.563C178.716 129.258 178.716 126.02 176.188 124.715L148.524 110.408C147.932 110.103 147.932 109.332 148.524 109.035L180.596 92.7707C181.198 92.4656 181.198 91.7028 180.596 91.3977L119.648 60.1657C119.371 60.0216 119.028 60.0216 118.741 60.1657L97.4041 71.3872C94.8945 72.7093 94.9231 75.947 97.4614 77.2353L125.078 91.2113C125.679 91.5164 125.679 92.2792 125.078 92.5843L105.916 102.475C105.639 102.619 105.296 102.619 105.019 102.475L65.3506 82.329C64.1769 81.7357 62.7264 81.7357 61.5622 82.329L37.2572 94.7964C36.6656 95.1015 36.6656 95.8643 37.2572 96.1694L103.912 130.639C104.504 130.944 104.504 131.707 103.912 132.012L37.0473 166.109C36.4557 166.414 36.4461 167.177 37.0473 167.482L68.681 183.916C69.8642 184.526 71.3243 184.534 72.5075 183.916L97.2133 171.194C98.1198 170.728 99.2459 170.728 100.152 171.203L137.617 190.832C139.239 191.679 141.252 191.679 142.865 190.815L174.251 174.152C177.61 172.372 177.581 168.05 174.203 166.295L174.241 166.321Z" fill="#1B5763"/>
<path d="M174.212 165.71L144.917 150.505C142.989 149.505 142.989 147.031 144.917 146.039L176.159 129.952C178.688 128.647 178.688 125.41 176.159 124.104L148.495 109.798C147.903 109.493 147.903 108.721 148.495 108.425L180.568 92.1604C181.169 91.8553 181.169 91.0925 180.568 90.7874L119.619 59.5553C119.343 59.4112 118.999 59.4112 118.713 59.5553L97.3755 70.7768C94.8658 72.099 94.8945 75.3366 97.4328 76.6249L125.049 90.6009C125.65 90.906 125.65 91.6688 125.049 91.9739L105.888 101.865C105.611 102.009 105.267 102.009 104.991 101.865L65.322 81.7187C64.1482 81.1254 62.6978 81.1254 61.5336 81.7187L37.2286 94.1861C36.637 94.4912 36.637 95.254 37.2286 95.5591L103.884 130.029C104.475 130.334 104.475 131.097 103.884 131.402L37.0187 165.498C36.427 165.804 36.4175 166.566 37.0187 166.871L68.6523 183.305C69.8356 183.916 71.2956 183.924 72.4789 183.305L97.1847 170.584C98.0912 170.118 99.2172 170.118 100.124 170.592L137.588 190.221C139.21 191.069 141.224 191.069 142.836 190.204L174.222 173.542C177.581 171.762 177.552 167.439 174.174 165.685L174.212 165.71Z" fill="#1B5864"/>
<path d="M174.193 165.1L144.898 149.895C142.97 148.895 142.97 146.42 144.898 145.429L176.14 129.342C178.669 128.037 178.669 124.799 176.14 123.494L148.476 109.188C147.884 108.883 147.884 108.111 148.476 107.815L180.549 91.5503C181.15 91.2451 181.15 90.4824 180.549 90.1772L119.6 58.9452C119.323 58.8011 118.98 58.8011 118.694 58.9452L97.3564 70.1667C94.8467 71.4889 94.8754 74.7265 97.4137 76.0148L125.03 89.9908C125.631 90.2959 125.631 91.0587 125.03 91.3638L105.868 101.255C105.592 101.399 105.248 101.399 104.971 101.255L65.3029 81.1085C64.1292 80.5152 62.6787 80.5152 61.5145 81.1085L37.2095 93.5759C36.6179 93.881 36.6179 94.6438 37.2095 94.9489L103.864 129.419C104.456 129.724 104.456 130.487 103.864 130.792L36.9996 164.888C36.408 165.193 36.3984 165.956 36.9996 166.261L68.6332 182.695C69.8165 183.306 71.2765 183.314 72.4598 182.695L97.1656 169.974C98.0721 169.507 99.1982 169.507 100.105 169.982L137.569 189.611C139.191 190.459 141.205 190.459 142.817 189.594L174.203 172.932C177.562 171.152 177.533 166.829 174.155 165.075L174.193 165.1Z" fill="#1B5965"/>
<path d="M174.174 164.482L144.879 149.277C142.951 148.277 142.951 145.802 144.879 144.81L176.121 128.724C178.65 127.418 178.65 124.181 176.121 122.876L148.457 108.569C147.865 108.264 147.865 107.493 148.457 107.196L180.53 90.9316C181.131 90.6265 181.131 89.8637 180.53 89.5586L119.581 58.3266C119.304 58.1825 118.961 58.1825 118.675 58.3266L97.3373 69.5481C94.8276 70.8702 94.8563 74.1078 97.3946 75.3961L125.011 89.3721C125.612 89.6772 125.612 90.4401 125.011 90.7452L105.849 100.636C105.573 100.78 105.229 100.78 104.952 100.636L65.2838 80.4898C64.1101 79.8966 62.6596 79.8966 61.4954 80.4898L37.1904 92.9572C36.5988 93.2624 36.5988 94.0252 37.1904 94.3303L103.845 128.8C104.437 129.105 104.437 129.868 103.845 130.173L36.9805 164.27C36.3889 164.575 36.3793 165.338 36.9805 165.643L68.6142 182.077C69.7974 182.687 71.2575 182.695 72.4407 182.077L97.1465 169.355C98.053 168.889 99.1791 168.889 100.086 169.363L137.55 188.993C139.172 189.84 141.186 189.84 142.798 188.976L174.184 172.313C177.543 170.533 177.514 166.211 174.136 164.456L174.174 164.482Z" fill="#1B5A65"/>
<path d="M174.155 163.871L144.859 148.666C142.932 147.666 142.932 145.191 144.859 144.2L176.102 128.113C178.631 126.808 178.631 123.57 176.102 122.265L148.438 107.959C147.846 107.654 147.846 106.882 148.438 106.586L180.511 90.3213C181.112 90.0162 181.112 89.2534 180.511 88.9482L119.562 57.7162C119.285 57.5721 118.942 57.5721 118.655 57.7162L97.3183 68.9377C94.8086 70.2599 94.8372 73.4975 97.3755 74.7858L124.992 88.7618C125.593 89.0669 125.593 89.8297 124.992 90.1348L105.83 100.026C105.554 100.17 105.21 100.17 104.933 100.026L65.2647 79.8795C64.091 79.2863 62.6405 79.2863 61.4763 79.8795L37.1714 92.3469C36.5797 92.652 36.5797 93.4148 37.1714 93.7199L103.826 128.19C104.418 128.495 104.418 129.258 103.826 129.563L36.9614 163.659C36.3698 163.964 36.3602 164.727 36.9614 165.032L68.5951 181.466C69.7784 182.077 71.2384 182.085 72.4217 181.466L97.1274 168.745C98.034 168.278 99.16 168.278 100.067 168.753L137.531 188.382C139.153 189.23 141.166 189.23 142.779 188.365L174.165 171.703C177.524 169.923 177.495 165.6 174.117 163.846L174.155 163.871Z" fill="#1A5B66"/>
<path d="M174.136 163.253L144.84 148.048C142.913 147.048 142.913 144.573 144.84 143.581L176.083 127.495C178.612 126.189 178.612 122.952 176.083 121.647L148.419 107.34C147.827 107.035 147.827 106.264 148.419 105.967L180.491 89.7026C181.093 89.3975 181.093 88.6347 180.491 88.3296L119.543 57.0976C119.266 56.9535 118.923 56.9535 118.636 57.0976L97.2992 68.3191C94.7895 69.6412 94.8181 72.8788 97.3564 74.1671L124.973 88.1431C125.574 88.4483 125.574 89.211 124.973 89.5162L105.811 99.407C105.534 99.5511 105.191 99.5511 104.914 99.407L65.2456 79.2608C64.0719 78.6676 62.6214 78.6676 61.4572 79.2608L37.1523 91.7282C36.5606 92.0334 36.5606 92.7961 37.1523 93.1013L103.807 127.571C104.399 127.876 104.399 128.639 103.807 128.944L36.9423 163.041C36.3507 163.346 36.3411 164.109 36.9423 164.414L68.576 180.848C69.7593 181.458 71.2193 181.466 72.4026 180.848L97.1083 168.126C98.0149 167.66 99.1409 167.66 100.047 168.134L137.512 187.764C139.134 188.611 141.147 188.611 142.76 187.747L174.146 171.084C177.505 169.304 177.476 164.982 174.098 163.227L174.136 163.253Z" fill="#1A5C67"/>
<path d="M174.107 162.642L144.812 147.438C142.884 146.437 142.884 143.963 144.812 142.971L176.054 126.885C178.583 125.579 178.583 122.342 176.054 121.037L148.39 106.73C147.799 106.425 147.799 105.654 148.39 105.357L180.463 89.0925C181.064 88.7874 181.064 88.0246 180.463 87.7195L119.514 56.4875C119.238 56.3434 118.894 56.3434 118.608 56.4875L97.2706 67.7089C94.7609 69.0311 94.7895 72.2688 97.3278 73.557L124.944 87.533C125.545 87.8382 125.545 88.6009 124.944 88.9061L105.783 98.7969C105.506 98.941 105.162 98.941 104.886 98.7969L65.217 78.6508C64.0433 78.0575 62.5928 78.0575 61.4286 78.6508L37.1236 91.1181C36.532 91.4233 36.532 92.1861 37.1236 92.4912L103.779 126.961C104.37 127.266 104.37 128.029 103.779 128.334L36.9137 162.431C36.3221 162.736 36.3125 163.499 36.9137 163.804L68.5474 180.238C69.7307 180.848 71.1907 180.856 72.374 180.238L97.0797 167.516C97.9862 167.05 99.1123 167.05 100.019 167.524L137.483 187.154C139.105 188.001 141.119 188.001 142.731 187.137L174.117 170.474C177.476 168.694 177.447 164.372 174.069 162.617L174.107 162.642Z" fill="#1A5D68"/>
<path d="M174.088 162.032L144.793 146.827C142.865 145.827 142.865 143.352 144.793 142.361L176.035 126.274C178.564 124.969 178.564 121.731 176.035 120.426L148.371 106.12C147.779 105.814 147.779 105.043 148.371 104.747L180.444 88.4821C181.045 88.177 181.045 87.4142 180.444 87.1091L119.495 55.8771C119.218 55.733 118.875 55.733 118.589 55.8771L97.2515 67.0986C94.7418 68.4208 94.7704 71.6584 97.3087 72.9467L124.925 86.9227C125.526 87.2278 125.526 87.9906 124.925 88.2957L105.763 98.1865C105.487 98.3306 105.143 98.3306 104.866 98.1865L65.1979 78.0404C64.0242 77.4471 62.5737 77.4471 61.4095 78.0404L37.1046 90.5078C36.5129 90.8129 36.5129 91.5757 37.1046 91.8808L103.76 126.35C104.351 126.656 104.351 127.418 103.76 127.723L36.8946 161.82C36.303 162.125 36.2934 162.888 36.8946 163.193L68.5283 179.627C69.7116 180.237 71.1716 180.246 72.3549 179.627L97.0606 166.906C97.9672 166.439 99.0932 166.439 99.9997 166.914L137.464 186.543C139.086 187.391 141.1 187.391 142.712 186.526L174.098 169.863C177.457 168.084 177.428 163.761 174.05 162.007L174.088 162.032Z" fill="#1A5E68"/>
<path d="M174.069 161.413L144.774 146.209C142.846 145.208 142.846 142.734 144.774 141.742L176.016 125.656C178.545 124.35 178.545 121.113 176.016 119.808L148.352 105.501C147.76 105.196 147.76 104.425 148.352 104.128L180.425 87.8635C181.026 87.5584 181.026 86.7956 180.425 86.4905L119.476 55.2585C119.199 55.1144 118.856 55.1144 118.57 55.2585L97.2324 66.48C94.7227 67.8022 94.7513 71.0398 97.2896 72.328L124.906 86.304C125.507 86.6092 125.507 87.3719 124.906 87.6771L105.744 97.5679C105.468 97.712 105.124 97.712 104.847 97.5679L65.1788 77.4218C64.0051 76.8285 62.5546 76.8285 61.3904 77.4218L37.0855 89.8892C36.4938 90.1943 36.4938 90.9571 37.0855 91.2622L103.74 125.732C104.332 126.037 104.332 126.8 103.74 127.105L36.8755 161.202C36.2839 161.507 36.2743 162.27 36.8755 162.575L68.5092 179.009C69.6925 179.619 71.1525 179.627 72.3358 179.009L97.0415 166.287C97.9481 165.821 99.0741 165.821 99.9806 166.295L137.445 185.925C139.067 186.772 141.081 186.772 142.693 185.908L174.079 169.245C177.438 167.465 177.409 163.143 174.031 161.388L174.069 161.413Z" fill="#195F69"/>
<path d="M174.05 160.803L144.754 145.598C142.827 144.598 142.827 142.123 144.754 141.132L175.997 125.045C178.526 123.74 178.526 120.502 175.997 119.197L148.333 104.891C147.741 104.585 147.741 103.814 148.333 103.518L180.406 87.2531C181.007 86.948 181.007 86.1852 180.406 85.8801L119.457 54.6481C119.18 54.504 118.837 54.504 118.551 54.6481L97.2133 65.8696C94.7036 67.1918 94.7322 70.4294 97.2706 71.7177L124.887 85.6937C125.488 85.9988 125.488 86.7616 124.887 87.0667L105.725 96.9575C105.449 97.1016 105.105 97.1016 104.828 96.9575L65.1597 76.8114C63.986 76.2181 62.5355 76.2181 61.3713 76.8114L37.0664 89.2788C36.4747 89.5839 36.4747 90.3467 37.0664 90.6518L103.721 125.122C104.313 125.427 104.313 126.189 103.721 126.495L36.8564 160.591C36.2648 160.896 36.2553 161.659 36.8564 161.964L68.4901 178.398C69.6734 179.008 71.1334 179.017 72.3167 178.398L97.0224 165.677C97.929 165.21 99.055 165.21 99.9616 165.685L137.426 185.314C139.048 186.162 141.061 186.162 142.674 185.297L174.06 168.634C177.419 166.855 177.39 162.532 174.012 160.778L174.05 160.803Z" fill="#195F6A"/>
<path d="M174.022 160.184L144.726 144.98C142.798 143.979 142.798 141.505 144.726 140.513L175.968 124.427C178.497 123.121 178.497 119.884 175.968 118.578L148.304 104.272C147.713 103.967 147.713 103.196 148.304 102.899L180.377 86.6345C180.978 86.3294 180.978 85.5666 180.377 85.2615L119.428 54.0294C119.152 53.8854 118.808 53.8854 118.522 54.0294L97.1847 65.2509C94.675 66.5731 94.7036 69.8107 97.2419 71.099L124.858 85.075C125.459 85.3801 125.459 86.1429 124.858 86.448L105.697 96.3389C105.42 96.483 105.076 96.483 104.8 96.3389L65.1311 76.1927C63.9574 75.5994 62.5069 75.5994 61.3427 76.1927L37.0378 88.6601C36.4461 88.9652 36.4461 89.728 37.0378 90.0331L103.693 124.503C104.284 124.808 104.284 125.571 103.693 125.876L36.8278 159.973C36.2362 160.278 36.2266 161.04 36.8278 161.346L68.4615 177.779C69.6448 178.39 71.1048 178.398 72.2881 177.779L96.9938 165.058C97.9004 164.592 99.0264 164.592 99.9329 165.066L137.397 184.695C139.019 185.543 141.033 185.543 142.646 184.678L174.031 168.016C177.39 166.236 177.361 161.913 173.983 160.159L174.022 160.184Z" fill="#19606A"/>
<path d="M174.002 159.574L144.707 144.369C142.779 143.369 142.779 140.895 144.707 139.903L175.949 123.816C178.478 122.511 178.478 119.274 175.949 117.968L148.285 103.662C147.694 103.357 147.694 102.585 148.285 102.289L180.358 86.0244C180.959 85.7193 180.959 84.9565 180.358 84.6514L119.409 53.4193C119.133 53.2753 118.789 53.2753 118.503 53.4193L97.1656 64.6408C94.6559 65.963 94.6845 69.2006 97.2228 70.4889L124.839 84.4649C125.44 84.77 125.44 85.5328 124.839 85.8379L105.678 95.7288C105.401 95.8729 105.057 95.8729 104.781 95.7288L65.112 75.5827C63.9383 74.9894 62.4878 74.9894 61.3236 75.5827L37.0187 88.05C36.427 88.3551 36.427 89.1179 37.0187 89.423L103.674 123.893C104.265 124.198 104.265 124.961 103.674 125.266L36.8087 159.362C36.2171 159.668 36.2076 160.43 36.8087 160.736L68.4424 177.169C69.6257 177.78 71.0857 177.788 72.269 177.169L96.9747 164.448C97.8813 163.982 99.0073 163.982 99.9138 164.456L137.378 184.085C139 184.933 141.014 184.933 142.626 184.068L174.012 167.406C177.371 165.626 177.342 161.303 173.964 159.549L174.002 159.574Z" fill="#19616B"/>
<path d="M173.983 158.964L144.688 143.759C142.76 142.759 142.76 140.284 144.688 139.292L175.93 123.206C178.459 121.901 178.459 118.663 175.93 117.358L148.266 103.051C147.674 102.746 147.674 101.975 148.266 101.678L180.339 85.414C180.94 85.1089 180.94 84.3461 180.339 84.041L119.39 52.809C119.114 52.6649 118.77 52.6649 118.484 52.809L97.1465 64.0305C94.6368 65.3526 94.6654 68.5902 97.2037 69.8785L124.82 83.8546C125.421 84.1597 125.421 84.9225 124.82 85.2276L105.658 95.1184C105.382 95.2625 105.038 95.2625 104.761 95.1184L65.093 74.9723C63.9192 74.379 62.4687 74.379 61.3046 74.9723L36.9996 87.4397C36.408 87.7448 36.408 88.5076 36.9996 88.8127L103.655 123.282C104.246 123.587 104.246 124.35 103.655 124.655L36.7897 158.752C36.198 159.057 36.1885 159.82 36.7897 160.125L68.4233 176.559C69.6066 177.169 71.0666 177.178 72.2499 176.559L96.9556 163.837C97.8622 163.371 98.9882 163.371 99.8948 163.846L137.359 183.475C138.981 184.323 140.995 184.323 142.607 183.458L173.993 166.795C177.352 165.015 177.323 160.693 173.945 158.939L173.983 158.964Z" fill="#19626C"/>
<path d="M173.964 158.345L144.669 143.14C142.741 142.14 142.741 139.666 144.669 138.674L175.911 122.587C178.44 121.282 178.44 118.045 175.911 116.739L148.247 102.433C147.655 102.128 147.655 101.356 148.247 101.06L180.32 84.7954C180.921 84.4903 180.921 83.7275 180.32 83.4224L119.371 52.1903C119.094 52.0463 118.751 52.0463 118.465 52.1903L97.1274 63.4119C94.6177 64.734 94.6463 67.9716 97.1847 69.2599L124.801 83.2359C125.402 83.541 125.402 84.3038 124.801 84.6089L105.639 94.4998C105.363 94.6439 105.019 94.6439 104.742 94.4998L65.0739 74.3537C63.9001 73.7604 62.4497 73.7604 61.2855 74.3537L36.9805 86.8211C36.3889 87.1262 36.3889 87.889 36.9805 88.1941L103.635 122.664C104.227 122.969 104.227 123.732 103.635 124.037L36.7706 158.133C36.1789 158.439 36.1694 159.201 36.7706 159.507L68.4042 175.94C69.5875 176.551 71.0475 176.559 72.2308 175.94L96.9366 163.219C97.8431 162.753 98.9691 162.753 99.8757 163.227L137.34 182.856C138.962 183.704 140.976 183.704 142.588 182.839L173.974 166.177C177.333 164.397 177.304 160.074 173.926 158.32L173.964 158.345Z" fill="#18636D"/>
<path d="M173.945 157.735L144.649 142.53C142.722 141.53 142.722 139.055 144.649 138.063L175.892 121.977C178.421 120.672 178.421 117.434 175.892 116.129L148.228 101.822C147.636 101.517 147.636 100.746 148.228 100.449L180.301 84.185C180.902 83.8799 180.902 83.1171 180.301 82.812L119.352 51.58C119.075 51.4359 118.732 51.4359 118.446 51.58L97.1083 62.8015C94.5986 64.1236 94.6273 67.3613 97.1656 68.6496L124.782 82.6256C125.383 82.9307 125.383 83.6935 124.782 83.9986L105.62 93.8894C105.344 94.0335 105 94.0335 104.723 93.8894L65.0548 73.7433C63.881 73.15 62.4306 73.15 61.2664 73.7433L36.9614 86.2107C36.3698 86.5158 36.3698 87.2786 36.9614 87.5837L103.616 122.053C104.208 122.358 104.208 123.121 103.616 123.426L36.7515 157.523C36.1598 157.828 36.1503 158.591 36.7515 158.896L68.3851 175.33C69.5684 175.94 71.0284 175.949 72.2117 175.33L96.9175 162.608C97.824 162.142 98.95 162.142 99.8566 162.617L137.321 182.246C138.943 183.094 140.957 183.094 142.569 182.229L173.955 165.566C177.314 163.786 177.285 159.464 173.907 157.71L173.945 157.735Z" fill="#18646D"/>
<path d="M173.917 157.116L144.621 141.911C142.693 140.911 142.693 138.436 144.621 137.445L175.863 121.358C178.392 120.053 178.392 116.816 175.863 115.51L148.199 101.204C147.608 100.899 147.608 100.127 148.199 99.8308L180.272 83.5664C180.873 83.2613 180.873 82.4985 180.272 82.1933L119.323 50.9613C119.047 50.8173 118.703 50.8173 118.417 50.9613L97.0797 62.1828C94.57 63.505 94.5986 66.7426 97.137 68.0309L124.753 82.0069C125.354 82.312 125.354 83.0748 124.753 83.3799L105.592 93.2708C105.315 93.4149 104.971 93.4149 104.695 93.2708L65.0262 73.1246C63.8524 72.5313 62.4019 72.5313 61.2377 73.1246L36.9328 85.592C36.3412 85.8971 36.3412 86.6599 36.9328 86.965L103.588 121.435C104.179 121.74 104.179 122.503 103.588 122.808L36.7229 156.904C36.1312 157.21 36.1217 157.972 36.7229 158.277L68.3565 174.711C69.5398 175.322 70.9998 175.33 72.1831 174.711L96.8888 161.99C97.7954 161.524 98.9214 161.524 99.828 161.998L137.292 181.627C138.914 182.475 140.928 182.475 142.541 181.61L173.926 164.948C177.285 163.168 177.256 158.845 173.878 157.091L173.917 157.116Z" fill="#18656E"/>
<path d="M173.897 156.506L144.602 141.301C142.674 140.301 142.674 137.826 144.602 136.835L175.844 120.748C178.373 119.443 178.373 116.206 175.844 114.9L148.18 100.594C147.589 100.289 147.589 99.5174 148.18 99.2207L180.253 82.9563C180.854 82.6512 180.854 81.8884 180.253 81.5832L119.304 50.3512C119.028 50.2071 118.684 50.2071 118.398 50.3512L97.0606 61.5727C94.5509 62.8949 94.5795 66.1325 97.1179 67.4208L124.734 81.3968C125.335 81.7019 125.335 82.4647 124.734 82.7698L105.573 92.6607C105.296 92.8047 104.952 92.8047 104.676 92.6607L65.0071 72.5146C63.8333 71.9213 62.3829 71.9213 61.2187 72.5146L36.9137 84.9819C36.3221 85.287 36.3221 86.0498 36.9137 86.3549L103.569 120.825C104.16 121.13 104.16 121.893 103.569 122.198L36.7038 156.294C36.1121 156.599 36.1026 157.362 36.7038 157.667L68.3374 174.101C69.5207 174.712 70.9807 174.72 72.164 174.101L96.8698 161.38C97.7763 160.913 98.9023 160.914 99.8089 161.388L137.273 181.017C138.895 181.865 140.909 181.865 142.521 181L173.907 164.338C177.266 162.558 177.237 158.235 173.859 156.481L173.897 156.506Z" fill="#18666F"/>
<path d="M173.878 155.896L144.583 140.691C142.655 139.691 142.655 137.216 144.583 136.224L175.825 120.138C178.354 118.833 178.354 115.595 175.825 114.29L148.161 99.9833C147.569 99.6782 147.569 98.9069 148.161 98.6103L180.234 82.3459C180.835 82.0408 180.835 81.278 180.234 80.9729L119.285 49.7409C119.009 49.5968 118.665 49.5968 118.379 49.7409L97.0415 60.9624C94.5318 62.2845 94.5605 65.5221 97.0988 66.8104L124.715 80.7865C125.316 81.0916 125.316 81.8544 124.715 82.1595L105.554 92.0503C105.277 92.1944 104.933 92.1944 104.657 92.0503L64.988 71.9042C63.8142 71.3109 62.3638 71.3109 61.1996 71.9042L36.8946 84.3716C36.303 84.6767 36.303 85.4395 36.8946 85.7446L103.55 120.214C104.141 120.519 104.141 121.282 103.55 121.587L36.6847 155.684C36.093 155.989 36.0835 156.752 36.6847 157.057L68.3183 173.491C69.5016 174.101 70.9616 174.11 72.1449 173.491L96.8507 160.769C97.7572 160.303 98.8832 160.303 99.7898 160.778L137.254 180.407C138.876 181.254 140.89 181.254 142.502 180.39L173.888 163.727C177.247 161.947 177.218 157.625 173.84 155.87L173.878 155.896Z" fill="#186770"/>
<path d="M173.859 155.277L144.564 140.072C142.636 139.072 142.636 136.597 144.564 135.606L175.806 119.519C178.335 118.214 178.335 114.977 175.806 113.671L148.142 99.3647C147.55 99.0596 147.55 98.2883 148.142 97.9917L180.215 81.7273C180.816 81.4222 180.816 80.6594 180.215 80.3543L119.266 49.1222C118.989 48.9781 118.646 48.9781 118.36 49.1222L97.0224 60.3437C94.5127 61.6659 94.5414 64.9035 97.0797 66.1918L124.696 80.1678C125.297 80.4729 125.297 81.2357 124.696 81.5408L105.534 91.4317C105.258 91.5758 104.914 91.5758 104.637 91.4317L64.9689 71.2856C63.7952 70.6923 62.3447 70.6923 61.1805 71.2856L36.8755 83.753C36.2839 84.0581 36.2839 84.8209 36.8755 85.126L103.53 119.596C104.122 119.901 104.122 120.664 103.53 120.969L36.6656 155.065C36.074 155.37 36.0644 156.133 36.6656 156.438L68.2993 172.872C69.4825 173.483 70.9426 173.491 72.1258 172.872L96.8316 160.151C97.7381 159.684 98.8642 159.685 99.7707 160.159L137.235 179.788C138.857 180.636 140.871 180.636 142.483 179.771L173.869 163.109C177.228 161.329 177.199 157.006 173.821 155.252L173.859 155.277Z" fill="#176870"/>
<path d="M173.831 154.667L144.535 139.462C142.607 138.462 142.607 135.987 144.535 134.995L175.777 118.909C178.306 117.604 178.306 114.366 175.777 113.061L148.113 98.7543C147.522 98.4492 147.522 97.6779 148.113 97.3813L180.186 81.1169C180.787 80.8118 180.787 80.049 180.186 79.7439L119.238 48.5119C118.961 48.3678 118.617 48.3678 118.331 48.5119L96.9938 59.7334C94.4841 61.0555 94.5127 64.2932 97.0511 65.5814L124.667 79.5575C125.268 79.8626 125.268 80.6254 124.667 80.9305L105.506 90.8213C105.229 90.9654 104.886 90.9654 104.609 90.8213L64.9403 70.6751C63.7665 70.0819 62.3161 70.0819 61.1519 70.6751L36.8469 83.1426C36.2553 83.4477 36.2553 84.2105 36.8469 84.5156L103.502 118.985C104.093 119.29 104.093 120.053 103.502 120.358L36.637 154.455C36.0453 154.76 36.0358 155.523 36.637 155.828L68.2706 172.262C69.4539 172.872 70.9139 172.881 72.0972 172.262L96.803 159.54C97.7095 159.074 98.8355 159.074 99.7421 159.549L137.206 179.178C138.828 180.025 140.842 180.025 142.455 179.161L173.84 162.498C177.199 160.718 177.171 156.396 173.793 154.641L173.831 154.667Z" fill="#176971"/>
<path d="M173.812 154.048L144.516 138.843C142.588 137.843 142.588 135.368 144.516 134.377L175.758 118.29C178.287 116.985 178.287 113.748 175.758 112.442L148.094 98.1357C147.503 97.8306 147.503 97.0593 148.094 96.7627L180.167 80.4983C180.768 80.1932 180.768 79.4304 180.167 79.1253L119.218 47.8932C118.942 47.7491 118.598 47.7491 118.312 47.8932L96.9747 59.1148C94.465 60.4369 94.4937 63.6745 97.032 64.9628L124.648 78.9388C125.249 79.2439 125.249 80.0067 124.648 80.3118L105.487 90.2027C105.21 90.3468 104.866 90.3468 104.59 90.2027L64.9212 70.0565C63.7474 69.4633 62.297 69.4633 61.1328 70.0565L36.8278 82.524C36.2362 82.8291 36.2362 83.5919 36.8278 83.897L103.483 118.367C104.074 118.672 104.074 119.435 103.483 119.74L36.6179 153.836C36.0262 154.141 36.0167 154.904 36.6179 155.209L68.2516 171.643C69.4348 172.254 70.8948 172.262 72.0781 171.643L96.7839 158.922C97.6904 158.455 98.8164 158.455 99.723 158.93L137.187 178.559C138.809 179.407 140.823 179.407 142.436 178.542L173.821 161.88C177.18 160.1 177.152 155.777 173.773 154.023L173.812 154.048Z" fill="#176A72"/>
<path d="M173.554 153.599L144.258 138.394C142.331 137.394 142.331 134.919 144.258 133.927L175.501 117.841C178.029 116.536 178.029 113.298 175.501 111.993L147.837 97.6865C147.245 97.3813 147.245 96.6101 147.837 96.3134L179.909 80.049C180.51 79.7439 180.51 78.9811 179.909 78.676L118.961 47.444C118.684 47.2999 118.341 47.2999 118.054 47.444L96.7171 58.6655C94.2074 59.9877 94.236 63.2253 96.7743 64.5136L124.391 78.4896C124.992 78.7947 124.992 79.5575 124.391 79.8626L105.229 89.7534C104.952 89.8975 104.609 89.8975 104.332 89.7534L64.6635 69.6073C63.4898 69.014 62.0393 69.014 60.8751 69.6073L36.5702 82.0747C35.9785 82.3798 35.9785 83.1426 36.5702 83.4477L103.225 117.917C103.817 118.223 103.817 118.985 103.225 119.29L36.3602 153.387C35.7686 153.692 35.7591 154.455 36.3602 154.76L67.9939 171.194C69.1772 171.804 70.6372 171.813 71.8205 171.194L96.5262 158.472C97.4328 158.006 98.5588 158.006 99.4653 158.481L136.93 178.11C138.552 178.958 140.565 178.958 142.178 178.093L173.564 161.43C176.923 159.651 176.894 155.328 173.516 153.574L173.554 153.599Z" fill="#FBA7A6"/>
<path d="M175.892 2.07498C171.77 -0.0523633 167.972 -0.484591 164.985 0.507037C148.133 3.38022 146.109 11.2794 146.109 11.2794L157.952 20.2463L160.767 21.2549L167.972 44.2488L158.391 63.1152L171.397 56.2925L189.557 37.8584C191.809 35.9938 193.164 32.9002 193.164 28.8235C193.164 19.0174 185.387 6.98227 175.882 2.08346L175.892 2.07498Z" fill="#1C5360"/>
<path d="M179.566 34.8665C179.566 25.0604 171.789 13.0253 162.284 8.12647C152.78 3.21918 145.003 7.30435 145.003 17.1867C145.003 19.8565 145.575 22.6788 146.587 25.4757L158.381 63.1237L175.949 43.9014C178.201 42.0368 179.556 38.9432 179.556 34.8665H179.566Z" fill="#FC624E"/>
<path d="M171.245 32.1374C171.245 32.8323 171.178 33.468 171.054 34.0613C170.138 38.3414 166.053 39.8669 161.196 37.4091C155.671 34.6037 151.148 27.603 151.148 21.8566C151.148 17.7545 153.448 15.3729 156.778 15.3814C158.114 15.3814 159.612 15.7712 161.196 16.5934C166.721 19.4411 171.245 26.4419 171.245 32.1458V32.1374Z" fill="#1C5360"/>
<path d="M171.245 32.1373C171.245 32.8323 171.178 33.468 171.054 34.0613C169.527 36.3073 166.454 36.8243 162.933 35.0444C157.895 32.4933 153.782 26.1113 153.782 20.8735C153.782 18.0935 154.946 16.178 156.788 15.3813C158.124 15.3813 159.622 15.7712 161.206 16.5933C166.731 19.4411 171.254 26.4418 171.254 32.1458L171.245 32.1373Z" fill="white"/>
<path d="M158.066 20.577L158.028 21.7805C158.028 21.9331 158.114 22.0771 158.267 22.1534L159.355 22.6874L159.297 28.3998C159.297 28.8321 159.555 29.2305 159.975 29.4508L163.305 31.1628C164.174 31.612 165.261 31.095 165.338 30.2051L165.691 25.7979L167.132 26.5522C167.447 26.7132 167.838 26.5183 167.838 26.1962V25.0266C167.838 24.8741 167.752 24.7385 167.599 24.6707L164.393 23.0349L164.183 23.1959C163.467 23.7553 162.332 23.4756 162.055 22.662L161.759 21.789C161.731 21.7127 161.673 21.6449 161.597 21.611L158.782 20.221C158.477 20.0685 158.095 20.2634 158.085 20.5685L158.066 20.577Z" fill="#FBA7A6"/>
<path d="M83.5292 144.988L136.204 116.493L107.338 101.577" stroke="white" stroke-width="9" stroke-linecap="round" stroke-linejoin="round"/>
<path d="M94.8372 95.1184L65.9709 80.2017" stroke="white" stroke-width="9" stroke-linecap="round" stroke-linejoin="round"/>
<path d="M111.728 103.45L155.957 78.8542L118.636 59.9116" stroke="white" stroke-width="9" stroke-linecap="round" stroke-linejoin="round"/>
<path d="M104.504 133.555L148.533 157.133" stroke="white" stroke-width="9" stroke-linecap="round" stroke-linejoin="round"/>
<path d="M107.844 21.2549C103.721 19.1276 99.9234 18.6953 96.9366 19.687C80.0844 22.5601 78.0613 30.4593 78.0613 30.4593L89.9037 39.4263L92.7187 40.4349L99.9234 63.4288L90.3426 82.2951L103.349 75.4724L121.509 57.0383C123.761 55.1737 125.116 52.0801 125.116 48.0034C125.116 38.1973 117.339 26.1622 107.834 21.2634L107.844 21.2549Z" fill="#1C5360"/>
<path d="M111.518 54.0464C111.518 44.2403 103.74 32.2052 94.236 27.3064C84.7316 22.3991 76.9544 26.4843 76.9544 36.3667C76.9544 39.0364 77.5269 41.8588 78.5385 44.6557L90.3331 82.3036L107.901 63.0813C110.153 61.2167 111.508 58.1231 111.508 54.0464H111.518Z" fill="#FC624E"/>
<path d="M103.196 51.3173C103.196 52.0123 103.13 52.6479 103.006 53.2412C102.09 57.5213 98.0053 59.0469 93.1482 56.589C87.623 53.7836 83.0998 46.7829 83.0998 41.0366C83.0998 36.9344 85.3996 34.5528 88.7299 34.5613C90.0659 34.5613 91.5641 34.9512 93.1482 35.7733C98.6733 38.621 103.196 45.6218 103.196 51.3258V51.3173Z" fill="#1C5360"/>
<path d="M103.196 51.3173C103.196 52.0123 103.13 52.6479 103.006 53.2412C101.479 55.4872 98.4061 56.0042 94.8849 54.2243C89.8464 51.6732 85.7336 45.2912 85.7336 40.0534C85.7336 37.2734 86.8978 35.358 88.7395 34.5613C90.0754 34.5613 91.5736 34.9511 93.1577 35.7733C98.6829 38.621 103.206 45.6218 103.206 51.3257L103.196 51.3173Z" fill="white"/>
<path d="M95.6483 51.7581C95.5052 51.7157 95.362 51.6394 95.2189 51.5207C95.0567 51.3767 94.9231 51.1902 94.8372 50.9868L92.6233 45.571C92.4038 45.5286 92.1557 45.393 91.879 45.1726C90.8388 44.3166 89.8273 42.4266 89.6365 40.9688C89.5697 40.4687 89.6079 40.0874 89.7319 39.8331C89.9609 39.3331 90.5049 39.3161 91.1919 39.8925C92.2416 40.7654 93.2436 42.6554 93.4344 44.0962C93.5108 44.6471 93.444 45.054 93.2913 45.2997L96.259 50.0206C96.3831 50.2155 96.4499 50.4359 96.469 50.6393L96.4881 51.0207C96.5167 51.5885 96.1064 51.8852 95.6483 51.7581Z" fill="#FBA7A6"/>
<path d="M99.8852 44.9436C99.7707 44.7996 99.6085 44.7403 99.4844 44.8081L97.824 45.7742L97.7191 45.5878L99.6562 44.2571C99.8184 44.147 99.8089 43.8757 99.6467 43.6808C99.5035 43.5113 99.3031 43.452 99.16 43.5367L97.2228 44.6894C97.1847 44.6216 97.137 44.5622 97.0892 44.5029L98.5779 43.6215C98.7115 43.5367 98.721 43.3164 98.597 43.1384C98.492 42.9943 98.3202 42.9265 98.1962 42.9858L96.2781 43.952C94.7418 44.6131 94.8467 45.9014 94.8467 45.9014L90.8293 47.1218C90.6575 47.1727 90.5144 47.2998 90.4381 47.4693L90.2949 47.783C90.0754 48.2576 90.3426 48.9102 90.7911 49.2492C90.9247 49.3509 91.0774 49.4272 91.2492 49.4526C91.44 49.4865 91.6213 49.4526 91.7645 49.3509L95.3907 46.8252C95.4479 46.8846 95.5147 46.9354 95.5815 46.9863C95.9537 47.2236 96.7934 47.5287 98.0149 46.6896C98.0149 46.6726 98.0149 46.6557 98.0149 46.6472C98.034 46.6472 98.053 46.6302 98.0721 46.6218L99.8566 45.4183C99.9902 45.325 99.9902 45.1047 99.8566 44.9267L99.8852 44.9436Z" fill="#FBA7A6"/>
<path d="M186.627 84.2191C182.505 82.0917 178.707 81.6594 175.72 82.6511C158.868 85.5242 156.845 93.4234 156.845 93.4234L168.687 102.39L171.502 103.399L178.707 126.393L169.126 145.259L182.133 138.437L200.292 120.002C202.544 118.138 203.899 115.044 203.899 110.968C203.899 101.161 196.122 89.1264 186.618 84.2275L186.627 84.2191Z" fill="#1C5360"/>
<path d="M190.301 117.002C190.301 107.196 182.524 95.1608 173.02 90.262C163.515 85.3547 155.738 89.4399 155.738 99.3222C155.738 101.992 156.311 104.814 157.322 107.611L169.117 145.259L186.685 126.037C188.937 124.172 190.292 121.079 190.292 117.002H190.301Z" fill="#FC624E"/>
<path d="M181.98 114.281C181.98 114.976 181.913 115.612 181.789 116.205C180.873 120.485 176.789 122.011 171.932 119.553C166.407 116.748 161.883 109.747 161.883 104.001C161.883 99.8985 164.183 97.5169 167.514 97.5254C168.849 97.5254 170.348 97.9153 171.932 98.7374C177.457 101.585 181.98 108.586 181.98 114.29V114.281Z" fill="#1C5360"/>
<path d="M181.98 114.281C181.98 114.976 181.913 115.612 181.789 116.205C180.262 118.451 177.19 118.968 173.668 117.188C168.63 114.637 164.517 108.255 164.517 103.017C164.517 100.238 165.681 98.3221 167.523 97.5254C168.859 97.5254 170.357 97.9153 171.941 98.7374C177.466 101.585 181.99 108.586 181.99 114.29L181.98 114.281Z" fill="white"/>
<path d="M168.525 105.535L168.659 106.493C168.687 106.713 168.859 106.917 169.098 107.018L177.924 110.985C178.44 111.214 179.003 110.925 178.936 110.459L178.802 109.502C178.774 109.281 178.602 109.078 178.363 108.976L169.537 105.01C169.021 104.781 168.458 105.069 168.525 105.535Z" fill="#FBA7A6"/>
<path d="M169.308 107.069L170.386 111.527C170.472 111.815 170.71 112.078 171.035 112.222L175.625 114.29C176.226 114.561 176.789 114.273 176.999 113.782L177.571 110.781L169.308 107.078V107.069ZM171.56 111.561L171.273 111.434C171.159 111.383 171.082 111.29 171.063 111.188L170.596 108.747C170.548 108.518 170.825 108.366 171.082 108.476L171.369 108.603C171.483 108.654 171.56 108.747 171.579 108.849L172.046 111.29C172.094 111.519 171.817 111.671 171.56 111.561ZM174.088 112.29C174.107 112.519 173.812 112.646 173.564 112.519L173.287 112.366C173.182 112.307 173.105 112.214 173.105 112.112L172.915 109.68C172.896 109.451 173.191 109.324 173.43 109.451L173.707 109.603C173.812 109.663 173.878 109.756 173.888 109.858L174.079 112.298L174.088 112.29ZM176.293 110.9L176.035 113.29C176.006 113.519 175.692 113.604 175.472 113.443L175.224 113.265C175.128 113.197 175.071 113.095 175.081 112.993L175.338 110.603C175.367 110.375 175.682 110.29 175.901 110.451L176.15 110.629C176.245 110.697 176.302 110.798 176.283 110.9H176.293Z" fill="#FBA7A6"/>
<path d="M177.094 109.459C176.875 109.468 176.655 109.349 176.56 109.154L173.897 103.611C173.85 103.518 173.773 103.492 173.726 103.484C173.678 103.475 173.592 103.475 173.535 103.543L170.72 106.891C170.567 107.069 170.271 107.086 170.052 106.933C169.832 106.781 169.775 106.51 169.928 106.332L172.743 102.984C172.981 102.696 173.392 102.569 173.821 102.653C174.251 102.738 174.613 103.001 174.794 103.374L177.457 108.917C177.562 109.145 177.457 109.383 177.209 109.451C177.171 109.459 177.142 109.468 177.104 109.468L177.094 109.459Z" fill="#FBA7A6"/>
<path d="M44.1947 99.1696L29.022 107.018L13.7252 99.1696L28.9266 91.3298L44.1947 99.1696Z" fill="#43ABC4"/>
<path d="M44.1947 99.1697V108.391L29.022 116.239V107.018L44.1947 99.1697Z" fill="#1C5360"/>
<path d="M29.022 107.018V116.239L13.7252 108.391V99.1697L29.022 107.018Z" fill="#1C5360"/>
<path d="M33.8412 82.2526L28.9936 84.7529L24.1173 82.2526L28.965 79.7439L33.8412 82.2526Z" fill="#654123"/>
<path d="M33.841 82.2527L33.8028 99.6782L28.9552 102.178L28.9934 84.753L33.841 82.2527Z" fill="#43ABC4"/>
<path d="M28.9934 84.753L28.9552 102.178L24.0789 99.6782L24.1171 82.2527L28.9934 84.753Z" fill="#1C5360"/>
<path d="M57.6688 77.8371L29.0792 92.6183V28.2134L57.6688 77.8371Z" fill="#43ABC4"/>
<path d="M29.0792 28.2134V92.6183L0.251099 77.8371L29.0792 28.2134Z" fill="#1C5360"/>
<path d="M57.6688 65.3019L29.0792 80.0915V15.6865L57.6688 65.3019Z" fill="#43ABC4"/>
<path d="M29.0792 15.6865V80.0915L0.251099 65.3019L29.0792 15.6865Z" fill="#1C5360"/>
<path d="M70.3986 148.158C67.0778 144.514 63.9478 146.946 62.5737 148.675C62.0107 149.387 60.6557 150.396 59.2434 151.336C57.5829 150.947 53.2124 149.802 53.3747 152.32C53.3747 152.32 51.781 157.803 54.5675 159.252C55.3023 159.854 56.4283 160.185 57.9551 160.176C59.3292 160.295 60.5221 160.092 61.3141 159.719C64.6922 158.769 66.4098 156.456 67.6504 156.142C69.015 155.794 73.7099 151.803 70.3891 148.15L70.3986 148.158Z" fill="#1C5360"/>
<path d="M58.8521 123.317C58.8521 123.317 52.8403 121.689 52.4204 127.02C52.0005 132.351 51.218 148.506 52.783 150.769C54.348 153.023 63.1463 153.896 64.7113 148.336C64.7113 148.336 62.9554 128.012 61.5813 125.402C60.2072 122.791 58.8426 123.317 58.8426 123.317H58.8521Z" fill="#1C5360"/>
<path d="M76.4582 160.837C75.2367 161.142 73.5572 163.388 70.3032 164.363C70.1792 164.397 70.0646 164.439 69.9597 164.49C69.1867 164.812 68.0989 164.973 66.8583 164.88C66.7915 164.88 66.7343 164.88 66.6675 164.88C65.2743 164.88 64.2246 164.583 63.5089 164.058C63.423 163.99 63.3276 163.931 63.2226 163.871C62.1825 163.236 61.8103 161.998 61.7435 160.744C61.6958 159.956 61.7721 159.168 61.8771 158.515C61.963 157.981 62.0584 157.54 62.1252 157.278C62.1634 157.117 62.1825 156.956 62.192 156.794C62.192 156.761 62.192 156.727 62.2016 156.684C62.2874 155.871 62.965 155.54 63.8429 155.455C64.7399 155.371 65.8659 155.549 66.8011 155.743C67.6313 155.913 68.4997 155.743 69.1676 155.269C70.141 154.574 70.9807 153.887 71.3911 153.362C72.7079 151.684 75.6661 149.37 78.8534 152.472C78.9774 152.591 79.0919 152.709 79.2064 152.845C79.4355 153.091 79.6168 153.345 79.779 153.591C81.9165 157.015 77.7464 160.515 76.4677 160.837H76.4582Z" fill="#FC624E"/>
<path d="M68.2516 127.113C67.9653 127.113 67.6885 127.105 67.4118 127.054C65.8468 126.774 61.19 126.359 60.8083 131.258C60.3503 137.148 59.4819 155.023 61.2091 157.515C62.86 159.896 71.8109 160.88 74.1202 155.616C74.3206 155.159 74.3874 154.667 74.3397 154.176C74.0057 150.463 72.2976 132.055 70.933 129.461C69.8547 127.402 68.7669 127.105 68.242 127.105L68.2516 127.113Z" fill="#53D0E5"/>
<path d="M76.4582 160.837C75.2367 161.142 73.5572 163.389 70.3032 164.363C70.1791 164.397 70.0646 164.439 69.9597 164.49C69.1867 164.812 68.0989 164.973 66.8583 164.88C66.7915 164.88 66.7343 164.88 66.6675 164.88C65.2743 164.88 64.2246 164.584 63.5089 164.058C63.423 163.99 63.3276 163.931 63.2226 163.872C62.1825 163.236 61.8103 161.999 61.7435 160.744C62.6501 161.185 67.5645 163.465 70.3986 161.888C73.5286 160.151 74.5019 158.591 76.0669 158.244C77.6319 157.896 79.9508 154.727 79.7695 153.701C79.7695 153.667 79.7695 153.633 79.7695 153.599C81.907 157.023 77.7369 160.524 76.4582 160.846V160.837Z" fill="#1C5360"/>
<path d="M75.7139 100.899L76.42 101.34C76.8112 101.585 76.9258 102.06 76.6681 102.424C76.3914 102.823 75.7806 102.924 75.3512 102.645L74.5783 102.128L75.5516 100.738L75.7139 100.899Z" fill="#F78161"/>
<path d="M74.3397 101.941L75.0459 102.382C75.4371 102.628 75.5516 103.102 75.294 103.467C75.0172 103.865 74.4065 103.967 73.9771 103.687L73.2041 103.17L74.1775 101.78L74.3397 101.941Z" fill="#F78161"/>
<path d="M73.166 102.806L73.8721 103.247C74.2634 103.492 74.3779 103.967 74.1202 104.331C73.8435 104.73 73.2328 104.831 72.8034 104.552L72.0304 104.035L73.0038 102.645L73.166 102.806Z" fill="#F78161"/>
<path d="M72.1926 103.501L72.8988 103.942C73.29 104.187 73.4045 104.662 73.1469 105.026C72.8702 105.425 72.2594 105.527 71.83 105.247L71.0571 104.73L72.0304 103.34L72.1926 103.501Z" fill="#F78161"/>
<path d="M72.4598 93.8304L67.4404 101.662C67.116 102.17 67.3164 102.823 67.8985 103.111L71.9445 105.086C72.5171 105.366 73.2423 105.179 73.5572 104.671L78.4239 96.8308C78.7389 96.3222 78.5385 95.6866 77.9754 95.3984L74.0821 93.4321C73.5095 93.1439 72.7843 93.3219 72.4598 93.8304Z" fill="#1C5360"/>
<path d="M72.059 93.4914L67.0396 101.323C66.7152 101.831 66.9156 102.484 67.4977 102.772L71.5437 104.747C72.1163 105.026 72.8415 104.84 73.1564 104.331L78.0232 96.4916C78.3381 95.9831 78.1377 95.3475 77.5747 95.0593L73.6813 93.093C73.1087 92.8048 72.3835 92.9828 72.059 93.4914Z" fill="#65CEE0"/>
<path d="M74.2634 94.3474C74.187 94.4491 74.2252 94.5932 74.3493 94.6525L75.5612 95.2458C75.6757 95.3052 75.8188 95.2712 75.8856 95.1695C75.962 95.0678 75.9238 94.9238 75.7997 94.8644L74.5878 94.2711C74.4733 94.2118 74.3302 94.2457 74.2634 94.3474Z" fill="#1C5360"/>
<path d="M66.5339 100.34C66.5339 100.34 68.4615 98.7462 69.2917 98.6361C70.1219 98.5259 72.6793 98.5259 72.164 99.5853C71.6487 100.645 69.6066 100.492 69.6066 100.492C69.6066 100.492 69.7784 101.704 69.0913 102.162C68.4042 102.619 65.675 102.619 66.5339 100.34Z" fill="#F4CAAE"/>
<path d="M50.6932 103.136C50.6932 103.136 50.7505 97.9663 56.6955 97.373C62.6405 96.7797 71.1907 99.297 73.2041 106.628C75.2176 113.959 73.8721 127.257 73.8721 127.257C73.8721 127.257 68.9291 133.275 57.5257 131.851C49.3859 130.834 49.2332 124.41 49.2332 124.41L50.7027 103.136H50.6932Z" fill="#FC624E"/>
<path d="M58.9284 96.5679C58.9284 96.5679 55.016 96.9154 54.6247 100.907L57.3635 101.95C57.3635 101.95 57.1726 98.8223 61.0755 97.7799C61.0755 97.7799 61.0755 96.5679 58.9284 96.5679Z" fill="#1C5360"/>
<path d="M71.8491 91.7538C70.6086 92.0081 69.1867 91.5928 69.1867 91.5928L67.9366 87.1517L67.8126 86.7279L69.1104 86.016C69.1104 86.016 73.4904 85.3379 73.6813 89.1603C73.7672 90.8809 72.8606 91.5504 71.8396 91.7538H71.8491Z" fill="#C5FCFF"/>
<path d="M71.8491 91.7538C70.6086 92.008 69.1867 91.5928 69.1867 91.5928L67.9366 87.1516L69.7974 87.6008C69.7974 87.6008 72.5648 87.6856 71.8491 91.7538Z" fill="#1C5360"/>
<path d="M70.5799 95.6272C70.5799 95.6272 70.5799 95.6442 70.5799 95.6527C70.5227 95.9408 70.4368 96.2459 70.3127 96.5511C70.0646 97.1443 69.6543 97.7376 68.9863 98.1698C68.8527 98.2631 68.7001 98.3394 68.5378 98.4157C68.2611 98.5428 67.9557 98.6445 67.6122 98.7208C65.9518 99.0852 64.4154 98.5936 63.1654 97.7292C63.0127 97.6274 62.86 97.5088 62.7169 97.3986C61.9248 96.7629 61.2568 95.9832 60.7797 95.2119C60.6652 95.0255 60.5602 94.8305 60.4839 94.6356C60.293 94.1949 60.1785 93.7118 60.1308 93.2287L59.8445 90.0504C59.7205 88.7198 60.1785 87.3891 61.0851 86.4398C62.4592 85.0075 64.5777 84.6854 66.2762 85.6601L67.2591 86.2195C67.4213 86.3127 67.574 86.4144 67.7172 86.5246C68.576 87.1772 69.1867 88.1349 69.4157 89.2283L69.4348 89.3215L69.7306 90.7454C69.7497 90.8386 69.7688 90.9233 69.7974 91.0166C69.7974 91.0166 69.7974 91.0335 69.7974 91.042L70.3795 93.127L70.4941 93.5508C70.6849 94.2288 70.7231 94.9407 70.5895 95.6272H70.5799Z" fill="#F4CAAE"/>
<path d="M68.0683 89.2375L68.059 89.2395C67.7109 89.3153 67.4979 89.6273 67.5832 89.9365L68.0943 91.7886C68.1796 92.0978 68.5309 92.287 68.879 92.2112L68.8882 92.2092C69.2363 92.1334 69.4493 91.8214 69.364 91.5123L68.853 89.6601C68.7677 89.3509 68.4164 89.1617 68.0683 89.2375Z" fill="#1C5360"/>
<g style="mix-blend-mode:multiply" opacity="0.58">
<path d="M69.7784 91.0165C69.7784 91.0165 69.6829 91.0334 69.6352 91.0419C66.7057 91.4148 61.6195 88.601 61.6195 88.601L67.7076 86.533C68.5665 87.1856 69.1772 88.1433 69.4062 89.2366L69.4253 89.3298L69.7211 90.7537C69.7402 90.8469 69.7593 90.9317 69.7879 91.0249L69.7784 91.0165Z" fill="#F78161"/>
</g>
<path d="M60.4457 96.5256C60.0545 96.4493 59.3101 96.8731 59.2624 97.2291L59.6632 100.034C59.6632 100.034 58.9475 102.789 62.3161 102.297C67.7935 101.501 67.011 100.568 67.0492 98.297C67.0492 98.0173 66.8297 97.763 66.5243 97.7037L60.4457 96.5256Z" fill="#FC624E"/>
<path d="M70.4654 101.297C70.4654 101.297 66.553 96.7798 62.6405 104.942L65.1788 108.239C65.1788 108.239 67.7172 100.772 71.0475 102.162C71.0475 102.162 70.8567 101.814 70.4654 101.297Z" fill="#1C5360"/>
<path d="M47.5823 114.112V120.537C47.5823 120.537 47.1911 121.927 48.7561 122.622C50.321 123.317 57.1631 126.613 57.1631 126.613C57.1631 126.613 58.3368 127.308 60.4839 126.444C62.631 125.579 64.3963 124.706 64.3963 124.706C64.3963 124.706 65.5701 124.011 65.5701 122.799C65.5701 121.587 65.1788 106.645 65.1788 106.645L54.2239 101.611L47.5728 114.121L47.5823 114.112Z" fill="#34ADC1"/>
<path d="M54.0617 100.679L49.3763 103.145C49.3763 103.145 49.3381 103.162 49.3191 103.17C49.0614 103.289 47.0002 104.264 47.0002 105.247C47.0002 106.12 46.8666 111.832 46.8189 113.697C46.8189 114.061 47.0193 114.4 47.3724 114.587L57.1821 119.926C57.9456 120.342 58.938 119.85 58.938 119.053V111.849C58.938 111.849 58.938 110.459 60.503 109.595C61.4572 109.069 63.4898 107.891 64.9403 107.061C65.6751 106.637 65.6273 105.671 64.8639 105.306L55.2068 100.67C54.8538 100.501 54.4243 100.509 54.0713 100.687L54.0617 100.679Z" fill="#1C5360"/>
<path d="M76.9258 129.995C76.5537 131.588 75.9906 132.377 75.399 132.207C75.3799 132.207 75.3608 132.199 75.3418 132.19C75.3036 132.173 75.2654 132.156 75.2368 132.139C75.1986 132.122 75.1604 132.097 75.1318 132.063C75.1032 132.114 75.0841 132.156 75.0555 132.207C74.7215 132.767 74.3398 132.953 73.9485 132.733C73.7863 132.639 73.71 132.495 73.7004 132.317C73.376 132.809 73.0134 132.961 72.6507 132.75C71.9923 132.377 72.8416 131.207 72.832 130.817C72.832 130.809 72.832 130.8 72.832 130.792C72.4313 131.995 71.8969 132.504 71.3434 132.19C70.685 131.817 71.5343 130.648 71.5247 130.258C71.5247 130.122 71.4675 129.944 71.3911 129.732C71.3911 129.732 71.3911 129.732 71.3911 129.724C70.4941 128.927 70.3033 127.334 70.2937 126.232C70.2937 126.232 70.4941 124.825 71.3148 123.876C71.3434 123.833 71.3816 123.799 71.4197 123.757C71.4675 123.715 71.5056 123.672 71.5533 123.63C71.6392 123.554 71.7347 123.477 71.8301 123.418C71.8778 123.384 71.935 123.35 71.9828 123.325C72.0591 123.274 72.145 123.24 72.2309 123.206C72.269 123.189 72.3072 123.181 72.3549 123.164C72.6889 123.054 73.0802 123.011 73.5287 123.071C73.5764 123.079 73.6241 123.096 73.6813 123.113C73.6813 123.113 73.6813 123.113 73.6909 123.113C73.9867 123.172 74.3112 123.274 74.6547 123.435C74.8265 123.503 74.9982 123.571 75.1604 123.655C75.1604 123.655 75.17 123.655 75.1795 123.664C75.2368 123.689 75.2845 123.715 75.3418 123.74C75.3704 123.757 75.4085 123.774 75.4372 123.791H75.4276L75.5135 123.91L76.4391 125.147C76.4391 125.147 76.7541 125.571 76.9258 126.588C76.9258 126.588 76.9258 126.596 76.9258 126.605C76.964 126.91 76.9926 127.232 77.0117 127.563C77.0117 127.639 77.0212 127.724 77.0308 127.808C77.0308 127.919 77.0403 128.029 77.0499 128.139C77.0785 128.825 77.0499 129.495 76.9354 130.003L76.9258 129.995Z" fill="#F4CAAE"/>
<path d="M73.6908 132.317C73.6908 132.317 74.3111 131.326 74.292 130.275" stroke="#F78161" stroke-miterlimit="10" stroke-linecap="round"/>
<path d="M75.1986 131.97C75.1986 131.97 75.7329 131.165 75.7043 130.105" stroke="#F78161" stroke-miterlimit="10" stroke-linecap="round"/>
<path opacity="0.42" d="M77.0307 127.8C77.0307 127.8 77.0307 127.817 77.0212 127.825C75.1317 131.292 70.2841 126.232 70.2841 126.232V126.164C70.2937 126.02 70.5227 124.757 71.3052 123.876C71.3338 123.833 71.372 123.799 71.4101 123.757C71.4579 123.715 71.496 123.672 71.5437 123.63C71.6296 123.554 71.725 123.477 71.8205 123.418C71.8682 123.384 71.9254 123.35 71.9732 123.325C72.0495 123.274 72.1354 123.24 72.2213 123.206C72.2594 123.189 72.2976 123.181 72.3453 123.164C72.6793 123.054 73.0706 123.011 73.5191 123.071C73.5668 123.079 73.6145 123.096 73.6717 123.113C73.6717 123.113 73.6717 123.113 73.6813 123.113C73.9771 123.198 74.3015 123.299 74.6451 123.435C74.8168 123.503 74.9886 123.571 75.1508 123.655C75.1508 123.655 75.1604 123.655 75.1699 123.664C75.2272 123.689 75.2749 123.715 75.3321 123.74C75.3608 123.757 75.3989 123.774 75.4276 123.791H75.418L75.5039 123.91L76.4295 125.147C76.4295 125.147 76.7444 125.571 76.9162 126.588C76.9162 126.588 76.9162 126.596 76.9162 126.605C76.9544 126.91 76.983 127.232 77.0021 127.563C77.0021 127.639 77.0116 127.724 77.0212 127.808L77.0307 127.8Z" fill="#F78161"/>
<path d="M72.7175 131.224C72.7175 131.224 73.1087 130.877 73.1087 129.487" stroke="#E27059" stroke-miterlimit="10" stroke-linecap="round"/>
<path d="M70.5609 122.249C70.6467 122.172 70.7422 122.096 70.8376 122.037C70.7422 122.104 70.6467 122.172 70.5609 122.249Z" fill="#E25247"/>
<path d="M71.2495 121.816C71.1631 121.851 71.0766 121.893 70.9998 121.936C71.0766 121.885 71.1631 121.851 71.2495 121.816Z" fill="#E25247"/>
<path d="M74.3598 122.342V122.36C74.3022 122.325 74.2542 122.3 74.1966 122.265C74.2542 122.291 74.3022 122.317 74.3598 122.342Z" fill="#E25247"/>
<path d="M66.6102 107.06C66.6102 107.06 67.7649 102.467 71.2765 102.755C74.7882 103.043 74.3206 107.018 74.521 111.781C74.7214 116.544 77.2979 120.045 76.8112 122.969C76.3246 125.893 73.4904 128.681 70.3032 125.274C70.3032 125.274 66.4003 120.197 66.5911 115.477C66.782 110.764 66.6102 107.052 66.6102 107.052V107.06Z" fill="#F23E30"/>
<path d="M69.7593 86.9568C69.7593 86.9568 66.3621 81.9817 61.0469 82.8971C55.7412 83.8209 52.0864 87.8128 53.6132 92.6693C54.8919 96.729 60.4743 98.0258 63.3848 98.2038C64.9975 98.297 68.2706 96.9155 67.8412 94.144L67.0683 91.0759C66.9251 90.4826 67.345 89.9063 68.013 89.7622C69.1486 89.5079 70.5513 88.8214 69.7497 86.9568H69.7593Z" fill="#1C5360"/>
<path d="M67.8222 88.8383C67.1447 88.9909 66.7248 89.5672 66.8775 90.152L67.6504 93.2201C68.0798 95.9831 64.8067 97.3731 63.194 97.2798C61.6291 97.1866 59.2911 96.7713 57.2586 95.7628C55.5218 94.9067 54.0045 93.6185 53.4224 91.7454C51.8956 86.889 55.5504 82.897 60.8561 81.9732C64.1578 81.3968 66.7248 83.1089 68.1944 84.4819C69.0818 85.3125 69.5685 86.0245 69.5685 86.0245C70.3701 87.8891 68.9768 88.5756 67.8317 88.8298L67.8222 88.8383Z" fill="#34ADC1"/>
<path d="M68.1752 84.4904H67.5359C67.5359 84.4904 59.5201 82.5834 57.3635 87.4399C56.1516 90.1944 56.6096 93.449 57.249 95.7628C55.5122 94.9067 53.9949 93.6185 53.4128 91.7454C51.886 86.889 55.5408 82.897 60.8465 81.9732C64.1482 81.3968 66.7152 83.1089 68.1848 84.4819L68.1752 84.4904Z" fill="#65CEE0"/>
<path d="M65.2838 95.4322C65.9847 95.4322 66.553 94.9275 66.553 94.3049C66.553 93.6824 65.9847 93.1777 65.2838 93.1777C64.5829 93.1777 64.0146 93.6824 64.0146 94.3049C64.0146 94.9275 64.5829 95.4322 65.2838 95.4322Z" fill="#1C5360"/>
</svg>
