<svg width="117" height="198" viewBox="0 0 117 198" fill="none" xmlns="http://www.w3.org/2000/svg">
<path d="M82.6142 2.19691C81.4786 0.332306 78.3964 0.0441409 76.4211 0.0695673C75.6577 -0.0829909 74.8275 0.0102391 74.0545 0.40011L34.949 20.4276C33.9184 20.9531 33.2791 21.9362 33.2791 22.9872V56.2788C33.2791 56.4822 33.2981 56.6856 33.3458 56.8721L33.1168 56.9229C33.1168 56.9229 35.4262 61.6946 42.1251 60.1775L41.562 57.1687L77.3753 38.9719C78.4155 38.4464 79.0548 37.4633 79.0548 36.4038V2.9597C81.1542 2.45965 82.6237 2.19691 82.6237 2.19691H82.6142Z" fill="#1C5360"/>
<path d="M49.0339 54.4141L46.1997 64.8643L42.9266 63.8981L44.4534 54.7955L49.0339 54.4141Z" fill="#1C5360"/>
<path d="M37.6019 24.2755V57.5671C37.6019 59.8385 40.3692 61.2624 42.5831 60.1351L81.6886 40.2602C82.7287 39.7347 83.3681 38.7516 83.3681 37.6921V4.24801C83.3681 1.96811 80.5912 0.544238 78.3773 1.68842L39.2719 21.7159C38.2413 22.2414 37.6019 23.2245 37.6019 24.2755Z" fill="#34ADC1"/>
<path d="M46.1997 64.8645L56.6584 52.4734L47.5834 54.1261L46.1043 64.534" fill="#34ADC1"/>
<path d="M68.997 18.0205C68.997 18.0205 68.997 18.0459 68.997 18.0544C68.997 18.0714 68.9876 18.0968 68.9685 18.1222C68.1001 19.6732 67.2317 21.2242 66.3633 22.7668C66.3156 22.86 66.287 22.9447 66.2965 23.0465C66.3824 24.394 66.4588 25.7501 66.5446 27.0977C66.5542 27.2333 66.4969 27.2672 66.3728 27.2757C65.1037 27.4283 63.8345 27.5893 62.5749 27.7503C62.4795 27.7588 62.4127 27.7927 62.3459 27.852C61.0481 29.0301 59.7503 30.2082 58.4526 31.3863C58.3953 31.4371 58.3571 31.4541 58.2998 31.4541C58.2712 31.4541 58.2331 31.4372 58.1949 31.4202C57.3933 31.0049 56.5822 30.5811 55.7806 30.1743C55.6661 30.115 55.6183 30.0557 55.6279 29.937C55.6947 28.4962 55.752 27.0638 55.8188 25.6315C55.8188 25.5976 55.8188 25.5721 55.8092 25.5467C55.7997 25.4959 55.7616 25.4535 55.7138 25.4111C54.8646 24.7924 54.0248 24.1567 53.1755 23.538C53.1373 23.5041 53.1087 23.4787 53.0992 23.4618C53.0992 23.4618 53.1087 23.3855 53.1755 23.3346C54.5114 22.2837 55.8474 21.2242 57.1833 20.1733C57.2501 20.1224 57.3074 20.0631 57.336 19.9868C58.0899 18.4019 58.8438 16.817 59.5976 15.2321C59.6453 15.1389 59.6739 15.105 59.798 15.1643C60.4087 15.4863 61.029 15.7999 61.6397 16.122C61.8974 16.2576 62.1646 16.3678 62.3841 16.5373C62.4891 16.6136 62.5844 16.6983 62.6703 16.8C62.7944 16.9611 62.9566 17.0882 63.0807 17.2408C63.157 17.3255 63.2239 17.3509 63.3479 17.317C64.1113 17.1306 64.8651 16.9441 65.638 16.7661C65.8575 16.7153 66.0866 16.656 66.2774 16.6136C66.3729 16.5966 66.4206 16.639 66.4684 16.6644C67.2795 17.0797 68.1001 17.5035 68.9207 17.9188C68.9875 17.9527 69.0161 17.9781 69.0161 18.0205H68.997Z" fill="#FFCCCC"/>
<path d="M62.3649 16.5288L59.9888 20.97L56.0953 23.9957L53.08 23.4618C53.08 23.4618 53.0895 23.3855 53.1563 23.3346C54.4922 22.2837 55.8282 21.2242 57.1642 20.1733C57.231 20.1224 57.2882 20.0631 57.3168 19.9868C58.0707 18.4019 58.8245 16.817 59.5784 15.2321C59.6261 15.1389 59.6548 15.105 59.7789 15.1643C60.3896 15.4863 61.0098 15.7999 61.6205 16.122C61.8782 16.2576 62.1454 16.3678 62.3649 16.5373V16.5288Z" fill="#EA7575"/>
<path d="M58.5287 25.7332L58.2902 31.471C58.2902 31.471 58.2234 31.4541 58.1852 31.4371C57.3836 31.0218 56.5725 30.5981 55.7709 30.1912C55.6564 30.1319 55.6087 30.0726 55.6182 29.9539C55.685 28.5131 55.7423 27.0808 55.8091 25.6484C55.8091 25.6145 55.8091 25.5891 55.7996 25.5637L55.8187 25.5043L53.08 23.4702L56.0953 24.0042L58.5287 25.7332Z" fill="#CC5050"/>
<path d="M68.9969 18.0205L65.1036 19.4613L62.3744 16.5288C62.4794 16.6051 62.5747 16.6898 62.6606 16.7915C62.7847 16.9526 62.947 17.0797 63.071 17.2323C63.1474 17.317 63.2142 17.3425 63.3382 17.3086C64.1016 17.1221 64.8555 16.9356 65.6285 16.7576C65.848 16.7068 66.0769 16.6475 66.2678 16.6051C66.3632 16.5881 66.411 16.6305 66.4587 16.6559C67.2698 17.0712 68.0904 17.495 68.9111 17.9103C68.9779 17.9442 69.0065 17.9696 69.0065 18.012L68.9969 18.0205Z" fill="#CC5050"/>
<path d="M56.0954 36.6157C56.0954 36.6157 56.0954 36.6411 56.0954 36.6496C56.0954 36.6666 56.086 36.692 56.0669 36.7174C55.1985 38.2684 54.3302 39.8194 53.4618 41.362C53.4141 41.4552 53.3854 41.54 53.3949 41.6417C53.4808 42.9893 53.5572 44.3453 53.643 45.6929C53.6526 45.8285 53.5953 45.8624 53.4712 45.8709C52.2021 46.0235 50.9329 46.1845 49.6733 46.3455C49.5779 46.354 49.5111 46.3879 49.4443 46.4472C48.1465 47.6253 46.8487 48.8034 45.5509 49.9815C45.4937 50.0324 45.4555 50.0493 45.3982 50.0493C45.3696 50.0493 45.3314 50.0324 45.2933 50.0154C44.4917 49.6001 43.6806 49.1763 42.879 48.7695C42.7645 48.7102 42.7168 48.6509 42.7264 48.5322C42.7932 47.0914 42.8504 45.659 42.9172 44.2267C42.9172 44.1928 42.9172 44.1674 42.9076 44.1419C42.8981 44.0911 42.8599 44.0487 42.8122 44.0063C41.9629 43.3876 41.1232 42.7519 40.2739 42.1332C40.2357 42.0993 40.2071 42.0739 40.1976 42.057C40.1976 42.057 40.2071 41.9807 40.2739 41.9298C41.6098 40.8789 42.9459 39.8194 44.2818 38.7685C44.3486 38.7176 44.4058 38.6583 44.4344 38.582C45.1883 36.9971 45.9421 35.4122 46.696 33.8273C46.7437 33.7341 46.7724 33.7002 46.8965 33.7595C47.5072 34.0816 48.1274 34.3952 48.7381 34.7172C48.9958 34.8528 49.263 34.963 49.4825 35.1325C49.5875 35.2088 49.6829 35.2936 49.7688 35.3953C49.8929 35.5563 50.055 35.6834 50.1791 35.836C50.2554 35.9207 50.3222 35.9462 50.4463 35.9123C51.2097 35.7258 51.9636 35.5393 52.7365 35.3614C52.956 35.3105 53.185 35.2512 53.3758 35.2088C53.4712 35.1918 53.519 35.2342 53.5667 35.2596C54.3779 35.6749 55.1985 36.0987 56.0191 36.514C56.0859 36.5479 56.1145 36.5733 56.1145 36.6157H56.0954Z" fill="#FFCCCC"/>
<path d="M49.4633 35.124L47.0872 39.5652L43.1938 42.5909L40.1783 42.057C40.1783 42.057 40.1878 41.9807 40.2546 41.9298C41.5906 40.8789 42.9266 39.8194 44.2626 38.7685C44.3294 38.7176 44.3866 38.6583 44.4152 38.582C45.1691 36.9971 45.9229 35.4122 46.6768 33.8273C46.7245 33.7341 46.7532 33.7002 46.8773 33.7595C47.488 34.0816 48.1082 34.3952 48.7189 34.7172C48.9766 34.8528 49.2438 34.963 49.4633 35.1325V35.124Z" fill="#EA7575"/>
<path d="M45.6271 44.3284L45.3886 50.0663C45.3886 50.0663 45.3218 50.0493 45.2836 50.0324C44.482 49.6171 43.6709 49.1933 42.8693 48.7865C42.7548 48.7271 42.7072 48.6678 42.7167 48.5491C42.7835 47.1083 42.8407 45.676 42.9075 44.2436C42.9075 44.2097 42.9075 44.1843 42.898 44.1589L42.9171 44.0995L40.1783 42.0654L43.1938 42.5994L45.6271 44.3284Z" fill="#CC5050"/>
<path d="M56.0953 36.6157L52.202 38.0565L49.4728 35.124C49.5778 35.2003 49.6732 35.2851 49.7591 35.3868C49.8832 35.5478 50.0453 35.6749 50.1694 35.8275C50.2457 35.9122 50.3126 35.9377 50.4366 35.9038C51.2 35.7173 51.9539 35.5308 52.7269 35.3529C52.9463 35.302 53.1753 35.2427 53.3661 35.2003C53.4616 35.1834 53.5093 35.2257 53.5571 35.2512C54.3682 35.6665 55.1888 36.0902 56.0095 36.5055C56.0763 36.5394 56.1049 36.5649 56.1049 36.6072L56.0953 36.6157Z" fill="#CC5050"/>
<path d="M81.6505 28.1826C81.6505 28.1826 81.6505 28.208 81.6505 28.2165C81.6505 28.2335 81.6409 28.2589 81.6219 28.2843C80.7535 29.8353 79.8851 31.3863 79.0168 32.9289C78.969 33.0221 78.9405 33.1069 78.95 33.2086C79.0359 34.5562 79.1122 35.9122 79.1981 37.2598C79.2077 37.3954 79.1504 37.4293 79.0263 37.4378C77.7571 37.5904 76.488 37.7514 75.2284 37.9124C75.1329 37.9209 75.0662 37.9548 74.9994 38.0141C73.7016 39.1922 72.4038 40.3703 71.106 41.5484C71.0488 41.5993 71.0106 41.6162 70.9533 41.6162C70.9247 41.6162 70.8865 41.5993 70.8484 41.5823C70.0468 41.167 69.2356 40.7432 68.4341 40.3364C68.3195 40.2771 68.2718 40.2178 68.2813 40.0991C68.3481 38.6583 68.4055 37.2259 68.4723 35.7936C68.4723 35.7597 68.4723 35.7342 68.4627 35.7088C68.4532 35.658 68.415 35.6156 68.3673 35.5732C67.518 34.9545 66.6782 34.3188 65.829 33.7001C65.7908 33.6662 65.7622 33.6408 65.7527 33.6239C65.7527 33.6239 65.7622 33.5476 65.829 33.4967C67.1649 32.4458 68.5008 31.3863 69.8368 30.3354C69.9036 30.2845 69.9609 30.2252 69.9895 30.1489C70.7434 28.564 71.4972 26.9791 72.2511 25.3942C72.2988 25.301 72.3274 25.2671 72.4515 25.3264C73.0622 25.6485 73.6825 25.9621 74.2932 26.2841C74.5509 26.4197 74.8181 26.5299 75.0376 26.6994C75.1425 26.7757 75.2379 26.8604 75.3238 26.9622C75.4478 27.1232 75.6101 27.2503 75.7342 27.4029C75.8105 27.4876 75.8773 27.5131 76.0014 27.4792C76.7648 27.2927 77.5186 27.1062 78.2915 26.9283C78.511 26.8774 78.7401 26.8181 78.9309 26.7757C79.0263 26.7587 79.074 26.8011 79.1217 26.8265C79.9328 27.2418 80.7536 27.6656 81.5742 28.0809C81.641 28.1148 81.6696 28.1402 81.6696 28.1826H81.6505Z" fill="#FFCCCC"/>
<path d="M75.028 26.6909L72.6519 31.1321L68.7584 34.1578L65.743 33.6239C65.743 33.6239 65.7525 33.5476 65.8193 33.4967C67.1553 32.4458 68.4912 31.3863 69.8272 30.3354C69.894 30.2845 69.9513 30.2252 69.9799 30.1489C70.7338 28.564 71.4876 26.9791 72.2415 25.3942C72.2892 25.301 72.3178 25.2671 72.4418 25.3264C73.0526 25.6485 73.6729 25.9621 74.2836 26.2841C74.5413 26.4197 74.8085 26.5299 75.028 26.6994V26.6909Z" fill="#EA7575"/>
<path d="M71.1822 35.8953L70.9436 41.6332C70.9436 41.6332 70.8769 41.6162 70.8387 41.5993C70.0371 41.184 69.226 40.7602 68.4244 40.3534C68.3099 40.294 68.2621 40.2347 68.2717 40.116C68.3385 38.6752 68.3958 37.2429 68.4626 35.8105C68.4626 35.7766 68.4626 35.7512 68.453 35.7258L68.4721 35.6664L65.7334 33.6323L68.7488 34.1663L71.1822 35.8953Z" fill="#CC5050"/>
<path d="M81.6504 28.1826L77.7571 29.6234L75.0279 26.6909C75.1329 26.7672 75.2282 26.852 75.3141 26.9537C75.4382 27.1147 75.6004 27.2418 75.7245 27.3944C75.8008 27.4791 75.8676 27.5046 75.9917 27.4707C76.7551 27.2842 77.5089 27.0977 78.2818 26.9198C78.5013 26.8689 78.7304 26.8096 78.9212 26.7672C79.0167 26.7502 79.0644 26.7926 79.1121 26.818C79.9233 27.2333 80.7439 27.6571 81.5645 28.0724C81.6313 28.1063 81.6599 28.1317 81.6599 28.1741L81.6504 28.1826Z" fill="#CC5050"/>
<path d="M27.6679 145.288C27.6679 145.288 29.0611 146.525 28.3645 148.382C27.6679 150.238 23.9463 155.815 15.587 150.856C7.21813 145.907 2.57094 147.763 4.66077 141.152C4.66077 141.152 4.88974 139.915 6.28296 139.915C7.67618 139.915 17.9059 144.661 17.9059 144.661L27.6679 145.28V145.288Z" fill="#FC624E"/>
<path d="M27.8683 146.661C27.8683 146.661 29.2615 147.898 28.5649 149.755C27.8683 151.611 24.1466 157.188 15.7873 152.229C7.41848 147.28 2.77129 149.136 4.86112 142.525C4.86112 142.525 5.09009 141.288 6.48331 141.288C7.87653 141.288 18.1062 146.034 18.1062 146.034L27.8683 146.653V146.661Z" fill="#FC624E"/>
<path d="M38.7947 138.203C38.7947 138.203 40.4169 140.059 39.7203 141.915C39.0237 143.771 35.9986 146.458 33.2122 146.246C30.4257 146.034 26.7041 144.178 24.8433 143.771C22.9825 143.364 19.032 140.677 16.7131 139.847C14.3943 139.016 13.6881 135.304 14.6232 134.27C15.5584 133.236 15.5489 129.727 20.6638 130.558C25.7786 131.388 35.7697 135.1 38.7947 138.194V138.203Z" fill="#1C5360"/>
<path d="M17.0947 130.558C17.1615 130.464 17.2188 130.371 17.2952 130.286C18.2208 129.185 17.2952 107.377 17.2952 107.377C17.2952 107.377 16.5985 104.801 19.3849 104.792C19.3849 104.792 29.147 105.174 28.6794 113.98C28.3454 120.328 28.25 126.608 28.2309 129.617C28.6031 129.897 28.9848 130.202 29.3474 130.515C30.8743 131.659 33.3649 133.558 35.4165 135.278C35.6169 135.38 35.8173 135.49 36.0081 135.626C36.9338 136.16 37.8785 136.728 38.5465 137.168C39.5485 137.838 39.2622 138.626 38.6515 139.304C38.2602 140.347 37.7353 141.652 34.9107 141.033C35.426 141.466 35.5787 141.991 35.2924 142.737C35.1589 143.093 34.9012 143.322 34.5959 143.457C34.281 143.601 33.9279 143.661 33.6129 143.678C33.4698 143.703 33.3362 143.728 33.2121 143.762C33.0117 143.822 32.2675 143.618 31.256 143.296C31.256 143.296 31.2559 143.296 31.2464 143.296C30.3876 143.067 29.605 142.788 28.9084 142.474C26.7518 141.686 24.4139 140.779 23.4596 140.465C21.5988 139.847 19.0414 138.194 17.6482 137.779C16.3886 137.406 15.1385 132.193 17.1042 130.549L17.0947 130.558Z" fill="#1C5360"/>
<path d="M35.3116 141.093C35.3116 141.093 27.6393 142.33 24.6238 141.093C24.6238 141.093 21.5989 140.677 21.8375 140.059C22.076 139.44 33.6893 139.855 33.6893 139.855C33.6893 139.855 31.4373 133.219 32.2961 132.838C33.2217 132.422 33.9183 132.838 34.3859 134.075C34.8535 135.312 35.3116 141.093 35.3116 141.093Z" fill="#1C5360"/>
<path d="M6.17808 137.779C6.23533 137.686 6.30209 137.592 6.37843 137.508C7.30406 136.406 6.37843 114.598 6.37843 114.598C6.37843 114.598 5.68188 112.022 8.46832 112.013C8.46832 112.013 18.2304 112.395 17.7628 121.209C17.3906 128.278 17.3143 135.253 17.3048 137.736C17.3716 137.745 17.4002 137.753 17.4002 137.753C17.4002 137.753 21.3794 140.686 23.7078 142.178C24.3281 142.381 24.9865 142.72 25.5209 143.169C26.9046 143.822 28.6604 144.949 27.4008 146.254C26.2175 147.483 25.3682 146.873 25.1296 146.661C25.4159 146.966 26.5324 148.288 25.3015 149.56C23.9082 151.001 23.0016 150.873 22.2764 151.001C19.948 151.416 14.3752 147.492 12.5144 146.873C10.6536 146.254 9.26038 146.67 6.70296 145.017C5.63419 144.322 4.1932 139.432 6.15897 137.787L6.17808 137.779Z" fill="#F4CAAE"/>
<path d="M3.58245 118.395C4.06912 118.768 4.62256 119.082 5.22375 119.336C9.01215 120.93 12.2853 121.947 15.1194 122.515C15.8065 122.65 16.4744 122.76 17.1042 122.845C19.1272 123.116 20.8832 123.133 22.4291 122.964C33.3171 121.743 33.2121 110.954 33.2121 110.954L32.8877 92.9861C32.9831 90.7994 33.0213 88.3924 33.0213 86.0447C33.0213 86.0447 33.0213 86.0447 33.0308 86.0447C33.8038 85.6124 34.2713 84.8666 34.6626 84.1377C36.0844 81.5188 36.9624 78.3913 35.636 75.7385C35.1302 74.7215 34.3287 73.84 33.5462 72.9755C33.1072 72.4924 32.6683 72.0178 32.2293 71.5347C32.2102 71.4669 32.1911 71.3991 32.172 71.3313C32.2006 71.3143 32.2102 71.2974 32.2102 71.2635C32.2102 71.2042 32.1625 71.1533 32.1148 71.1194C31.151 68.0259 29.252 66.1782 26.351 65.034C22.1714 63.3813 17.3715 64.9747 17.0566 65.034C12.2948 65.9494 8.96445 67.8987 6.66469 70.4075C6.30207 70.8058 5.96802 71.2126 5.65312 71.6279C0.185215 79.0016 2.04607 90.1468 2.96216 95.6219L0.967791 112.641C0.710141 114.861 1.72164 116.997 3.5729 118.395H3.58245Z" fill="#FBA7A6"/>
<path d="M26.6373 60.3641C26.6373 60.3641 20.4346 58.1096 20.4346 57.4909C20.4346 56.8722 20.4824 54.8381 22.3146 54.9313C24.1468 55.0246 27.1717 56.8722 27.1717 56.8722L26.6278 60.3641H26.6373Z" fill="#1C5360"/>
<path d="M26.8282 60.3812C27.6609 60.3812 28.3359 59.5957 28.3359 58.6267C28.3359 57.6578 27.6609 56.8723 26.8282 56.8723C25.9955 56.8723 25.3204 57.6578 25.3204 58.6267C25.3204 59.5957 25.9955 60.3812 26.8282 60.3812Z" fill="#FBA7A6"/>
<path d="M26.9427 59.8387C27.4539 59.8387 27.8683 59.3606 27.8683 58.7708C27.8683 58.181 27.4539 57.7029 26.9427 57.7029C26.4315 57.7029 26.0171 58.181 26.0171 58.7708C26.0171 59.3606 26.4315 59.8387 26.9427 59.8387Z" fill="#D87373"/>
<path d="M21.4748 66.2714C21.4748 66.2714 23.097 70.399 21.7038 72.467C20.3106 74.535 14.4992 73.9078 11.7128 70.1956C11.7128 70.1956 11.016 63.7966 11.2451 63.7966C11.4741 63.7966 19.1464 60.0844 21.4748 66.2714Z" fill="#F4CAAE"/>
<g style="mix-blend-mode:multiply" opacity="0.58">
<path d="M22.3337 68.7716C22.3337 68.7716 21.1313 73.8061 16.9517 71.3312C12.772 68.8564 11.1783 64.5 11.1783 64.5C11.1783 64.5 22.3719 63.3304 22.3337 68.7716Z" fill="#F78161"/>
</g>
<path d="M17.5242 49.7527C17.9918 49.7443 26.1221 50.5749 25.6545 57.1857C25.6545 57.1857 25.1869 59.8724 25.4255 62.1354C25.664 64.3983 26.122 72.6619 17.5242 69.3565C17.5242 69.3565 8.69726 66.6698 9.62289 56.3551C9.62289 56.3551 9.3939 49.9562 17.5242 49.7527Z" fill="#F4CAAE"/>
<path d="M25.6736 146.907C25.6736 146.907 15.5489 149.136 13.6976 148.517C11.8464 147.898 11.1402 147.076 12.5335 146.864C13.9267 146.661 23.9177 146.042 24.1563 145.627C24.3948 145.212 22.3528 142.067 22.5627 141.576C22.7727 141.084 23.0016 140.881 23.9272 141.499C24.8529 142.118 26.9713 146.33 25.6831 146.907H25.6736Z" fill="#FC624E"/>
<path d="M15.0907 54.3973C15.0907 54.3973 17.8773 57.9062 20.6637 55.016C20.6637 55.016 22.0569 61.415 27.4007 57.9061C32.7446 54.3973 26.2365 49.8545 23.9176 52.1259C23.9176 52.1259 29.4905 46.3456 22.7535 45.5235C16.0164 44.7014 17.6387 46.5575 17.6387 46.5575C17.6387 46.5575 14.8522 44.0827 12.9914 44.4895C11.1306 44.9048 3.45833 44.6929 6.01574 51.5072C6.01574 51.5072 1.36857 53.3633 3.45839 56.2534C5.54822 59.1436 6.71233 57.6943 6.71233 57.6943C6.71233 57.6943 5.7868 59.9657 7.40904 62.0252C9.03128 64.0932 11.3597 65.1188 11.3597 65.1188C11.3597 65.1188 7.40896 56.0331 15.0812 54.3888L15.0907 54.3973Z" fill="#1C5360"/>
<path d="M11.5982 60.5929C11.5982 60.5929 11.5982 57.2874 9.73737 58.118C7.87657 58.9486 8.11509 64.9323 11.1306 63.483C14.146 62.0337 11.5982 60.5929 11.5982 60.5929Z" fill="#F4CAAE"/>
<path d="M22.6008 59.4401L22.3527 59.5841C22.1618 59.6943 22.0474 59.8977 22.0378 60.1181L21.9805 62.3132C21.971 62.8133 22.4959 63.1354 22.9253 62.8811L23.1733 62.737C23.3642 62.6268 23.4788 62.4234 23.4883 62.2031L23.5455 60.0079C23.555 59.5079 23.0302 59.1858 22.6008 59.4401Z" fill="#1C5360"/>
<path d="M17.9155 60.5675L17.6673 60.7116C17.4765 60.8218 17.3619 61.0252 17.3524 61.2455L17.2952 63.4407C17.2856 63.9407 17.8105 64.2628 18.2399 64.0085L18.488 63.8645C18.6788 63.7543 18.7933 63.5509 18.8029 63.3305L18.8602 61.1354C18.8697 60.6353 18.3449 60.3132 17.9155 60.5675Z" fill="#1C5360"/>
<path d="M18.1063 47.3796C18.1063 47.3796 17.6387 42.8368 22.7535 44.2861C27.8683 45.7269 30.2349 51.236 26.4942 52.5073C22.7535 53.7786 18.1063 53.5752 17.8773 53.1599C17.6482 52.7446 17.1807 51.9225 17.1807 51.5072C17.1807 51.0919 18.1063 47.3796 18.1063 47.3796Z" fill="#1C5360"/>
<path d="M18.1063 47.1933C18.1063 47.1933 12.6765 40.735 6.68381 48.3883C6.68381 48.3883 8.12476 58.9318 12.0754 58.5249C16.026 58.1096 19.051 55.8382 17.6482 53.3634C16.255 50.8886 13.2491 49.6257 13.2491 49.6257L18.1063 47.1848V47.1933Z" fill="#1C5360"/>
<path d="M17.381 56.3466C17.381 56.3466 14.8522 61.6268 10.205 57.9146C5.55772 54.2023 14.5564 47.9729 17.381 56.3466Z" fill="#1C5360"/>
<path d="M18.6312 66.534C21.2554 67.5511 22.1237 66.1611 22.3909 65.4407C22.4481 65.2796 22.2764 65.1186 22.0951 65.1695L18.6502 66.1357C18.4402 66.195 18.4308 66.4577 18.6312 66.534Z" fill="#1C5360"/>
<path d="M18.4593 58.8384C18.4593 58.8384 17.5337 58.2197 17.0662 59.2537" stroke="#1C5360" stroke-miterlimit="10" stroke-linecap="round"/>
<path d="M22.639 58.0078C22.639 58.0078 21.7134 57.3891 21.2458 58.4231" stroke="#1C5360" stroke-miterlimit="10" stroke-linecap="round"/>
<path d="M28.7462 109.318C28.7462 109.318 30.1394 109.937 30.836 109.522C31.5326 109.106 31.5326 108.699 30.607 108.699C29.6814 108.699 28.7462 109.318 28.7462 109.318Z" fill="#FFF6CC"/>
<path d="M27.5248 110.547C28.1045 110.547 28.5744 110.084 28.5744 109.513C28.5744 108.942 28.1045 108.479 27.5248 108.479C26.945 108.479 26.4751 108.942 26.4751 109.513C26.4751 110.084 26.945 110.547 27.5248 110.547Z" fill="#FFF6CC"/>
<path d="M27.4007 107.86C27.4007 107.86 28.0973 106.623 27.6297 106.004C27.1621 105.386 26.7041 105.386 26.7041 106.208C26.7041 107.03 27.4007 107.86 27.4007 107.86Z" fill="#FFF6CC"/>
<path d="M25.9884 109.878C25.9884 109.878 24.5951 109.259 23.8985 109.674C23.2019 110.089 23.2019 110.496 24.1275 110.496C25.0531 110.496 25.9884 109.878 25.9884 109.878Z" fill="#FFF6CC"/>
<path d="M26.58 110.666C26.58 110.666 25.0437 110.903 24.7574 111.598C24.4711 112.293 24.7574 112.632 25.4922 112.14C26.227 111.649 26.5705 110.666 26.5705 110.666H26.58Z" fill="#FFF6CC"/>
<path d="M28.7558 110.361C28.7558 110.361 29.2997 111.657 30.1299 111.776C30.9601 111.895 31.275 111.59 30.5879 111.03C29.9008 110.471 28.7558 110.361 28.7558 110.361Z" fill="#FFF6CC"/>
<path d="M28.5172 108.208C28.5172 108.208 30.0726 108.149 30.4639 107.488C30.8551 106.826 30.6261 106.462 29.815 106.86C29.0039 107.259 28.5268 108.199 28.5268 108.199L28.5172 108.208Z" fill="#FFF6CC"/>
<path d="M26.2746 108.75C26.2746 108.75 25.5971 107.504 24.7574 107.454C23.9176 107.403 23.6408 107.733 24.3756 108.233C25.1104 108.733 26.2746 108.75 26.2746 108.75Z" fill="#FFF6CC"/>
<path d="M27.8016 110.928C27.8016 110.928 27.105 112.166 27.5726 112.785C28.0401 113.403 28.4982 113.403 28.4982 112.581C28.4982 111.759 27.8016 110.928 27.8016 110.928Z" fill="#FFF6CC"/>
<path d="M18.5261 116.548C18.5261 116.548 19.9193 117.167 20.6159 116.751C21.3126 116.336 21.3126 115.929 20.3869 115.929C19.4613 115.929 18.5261 116.548 18.5261 116.548Z" fill="#FFF6CC"/>
<path d="M17.2951 117.768C17.8749 117.768 18.3448 117.306 18.3448 116.734C18.3448 116.163 17.8749 115.7 17.2951 115.7C16.7154 115.7 16.2455 116.163 16.2455 116.734C16.2455 117.306 16.7154 117.768 17.2951 117.768Z" fill="#FFF6CC"/>
<path d="M17.1807 115.082C17.1807 115.082 17.8773 113.844 17.4097 113.225C16.9421 112.607 16.4841 112.607 16.4841 113.429C16.4841 114.251 17.1807 115.082 17.1807 115.082Z" fill="#FFF6CC"/>
<path d="M15.7683 117.099C15.7683 117.099 14.375 116.48 13.6784 116.895C12.9818 117.311 12.9818 117.717 13.9074 117.717C14.8331 117.717 15.7683 117.099 15.7683 117.099Z" fill="#FFF6CC"/>
<path d="M16.3504 117.887C16.3504 117.887 14.814 118.124 14.5278 118.819C14.2415 119.514 14.5278 119.853 15.2626 119.362C15.9973 118.87 16.3409 117.887 16.3409 117.887H16.3504Z" fill="#FFF6CC"/>
<path d="M18.5356 117.582C18.5356 117.582 19.0796 118.879 19.9098 118.997C20.74 119.116 21.0549 118.811 20.3678 118.251C19.6808 117.692 18.5356 117.582 18.5356 117.582Z" fill="#FFF6CC"/>
<path d="M18.2875 115.438C18.2875 115.438 19.843 115.378 20.2342 114.717C20.6255 114.056 20.3965 113.692 19.5854 114.09C18.7743 114.488 18.2971 115.429 18.2971 115.429L18.2875 115.438Z" fill="#FFF6CC"/>
<path d="M16.0545 115.972C16.0545 115.972 15.377 114.726 14.5373 114.675C13.6975 114.624 13.4208 114.955 14.1556 115.455C14.8903 115.955 16.0545 115.972 16.0545 115.972Z" fill="#FFF6CC"/>
<path d="M17.5718 118.15C17.5718 118.15 16.8752 119.387 17.3428 120.006C17.8104 120.624 18.2685 120.625 18.2685 119.802C18.2685 118.98 17.5718 118.15 17.5718 118.15Z" fill="#FFF6CC"/>
<path d="M28.5172 99.4105C28.5172 99.4105 29.9104 100.029 30.607 99.6139C31.3036 99.1986 31.3036 98.7917 30.378 98.7917C29.4524 98.7917 28.5172 99.4105 28.5172 99.4105Z" fill="#FFF6CC"/>
<path d="M27.2862 100.639C27.8659 100.639 28.3359 100.176 28.3359 99.6053C28.3359 99.0342 27.8659 98.5713 27.2862 98.5713C26.7065 98.5713 26.2365 99.0342 26.2365 99.6053C26.2365 100.176 26.7065 100.639 27.2862 100.639Z" fill="#FFF6CC"/>
<path d="M27.1717 97.9527C27.1717 97.9527 27.8683 96.7153 27.4007 96.0966C26.9331 95.4779 26.4751 95.4779 26.4751 96.3C26.4751 97.1221 27.1717 97.9527 27.1717 97.9527Z" fill="#FFF6CC"/>
<path d="M25.7594 99.9699C25.7594 99.9699 24.3661 99.3512 23.6695 99.7665C22.9729 100.182 22.9729 100.589 23.8985 100.589C24.8241 100.589 25.7594 99.9699 25.7594 99.9699Z" fill="#FFF6CC"/>
<path d="M26.3415 100.758C26.3415 100.758 24.8051 100.995 24.5188 101.69C24.2325 102.385 24.5188 102.724 25.2536 102.233C25.9884 101.741 26.3319 100.758 26.3319 100.758H26.3415Z" fill="#FFF6CC"/>
<path d="M28.5268 100.453C28.5268 100.453 29.0707 101.75 29.9009 101.868C30.7311 101.987 31.046 101.682 30.3589 101.122C29.6718 100.563 28.5268 100.453 28.5268 100.453Z" fill="#FFF6CC"/>
<path d="M28.2882 98.3002C28.2882 98.3002 29.8436 98.2409 30.2348 97.5798C30.6261 96.9187 30.3971 96.5543 29.586 96.9526C28.7749 97.351 28.2978 98.2917 28.2978 98.2917L28.2882 98.3002Z" fill="#FFF6CC"/>
<path d="M26.0456 98.8427C26.0456 98.8427 25.3681 97.5968 24.5284 97.5459C23.6886 97.4951 23.4119 97.8256 24.1467 98.3257C24.8814 98.8257 26.0456 98.8427 26.0456 98.8427Z" fill="#FFF6CC"/>
<path d="M27.563 101.021C27.563 101.021 26.8664 102.258 27.334 102.877C27.8016 103.496 28.2596 103.496 28.2596 102.673C28.2596 101.851 27.563 101.021 27.563 101.021Z" fill="#FFF6CC"/>
<path d="M18.5261 104.987C18.5261 104.987 19.9193 105.606 20.6159 105.191C21.3126 104.775 21.3126 104.369 20.3869 104.369C19.4613 104.369 18.5261 104.987 18.5261 104.987Z" fill="#FFF6CC"/>
<path d="M17.2951 106.208C17.8749 106.208 18.3448 105.745 18.3448 105.174C18.3448 104.603 17.8749 104.14 17.2951 104.14C16.7154 104.14 16.2455 104.603 16.2455 105.174C16.2455 105.745 16.7154 106.208 17.2951 106.208Z" fill="#FFF6CC"/>
<path d="M17.1807 103.521C17.1807 103.521 17.8773 102.284 17.4097 101.665C16.9421 101.046 16.4841 101.046 16.4841 101.868C16.4841 102.69 17.1807 103.521 17.1807 103.521Z" fill="#FFF6CC"/>
<path d="M15.7683 105.538C15.7683 105.538 14.375 104.92 13.6784 105.335C12.9818 105.75 12.9818 106.157 13.9074 106.157C14.8331 106.157 15.7683 105.538 15.7683 105.538Z" fill="#FFF6CC"/>
<path d="M16.3504 106.335C16.3504 106.335 14.814 106.572 14.5278 107.267C14.2415 107.971 14.5278 108.301 15.2626 107.81C15.9973 107.318 16.3409 106.335 16.3409 106.335H16.3504Z" fill="#FFF6CC"/>
<path d="M18.5356 106.03C18.5356 106.03 19.0796 107.327 19.9098 107.445C20.74 107.564 21.0549 107.259 20.3678 106.699C19.6808 106.14 18.5356 106.03 18.5356 106.03Z" fill="#FFF6CC"/>
<path d="M18.2875 103.877C18.2875 103.877 19.843 103.818 20.2342 103.157C20.6159 102.496 20.3965 102.131 19.5854 102.53C18.7743 102.928 18.2971 103.869 18.2971 103.869L18.2875 103.877Z" fill="#FFF6CC"/>
<path d="M16.0545 104.411C16.0545 104.411 15.377 103.165 14.5373 103.114C13.6975 103.063 13.4208 103.394 14.1556 103.894C14.8903 104.394 16.0545 104.411 16.0545 104.411Z" fill="#FFF6CC"/>
<path d="M17.5718 106.589C17.5718 106.589 16.8752 107.827 17.3428 108.445C17.8104 109.064 18.2685 109.064 18.2685 108.242C18.2685 107.42 17.5718 106.589 17.5718 106.589Z" fill="#FFF6CC"/>
<path d="M8.52545 111.386C8.52545 111.386 9.91873 112.005 10.6153 111.59C11.3119 111.174 11.312 110.768 10.3863 110.768C9.46069 110.768 8.52545 111.386 8.52545 111.386Z" fill="#FFF6CC"/>
<path d="M7.30411 112.607C7.88384 112.607 8.35377 112.144 8.35377 111.573C8.35377 111.002 7.88384 110.539 7.30411 110.539C6.72439 110.539 6.25433 111.002 6.25433 111.573C6.25433 112.144 6.72439 112.607 7.30411 112.607Z" fill="#FFF6CC"/>
<path d="M7.18948 109.92C7.18948 109.92 7.8862 108.683 7.41861 108.064C6.95102 107.445 6.49289 107.445 6.49289 108.267C6.49289 109.089 7.18948 109.92 7.18948 109.92Z" fill="#FFF6CC"/>
<path d="M5.76758 111.937C5.76758 111.937 4.37442 111.318 3.67781 111.734C2.9812 112.149 2.98119 112.556 3.90683 112.556C4.83246 112.556 5.76758 111.937 5.76758 111.937Z" fill="#FFF6CC"/>
<path d="M6.35926 112.734C6.35926 112.734 4.82299 112.971 4.53671 113.666C4.25043 114.361 4.53673 114.7 5.27151 114.209C6.00629 113.717 6.34982 112.734 6.34982 112.734H6.35926Z" fill="#FFF6CC"/>
<path d="M8.535 112.429C8.535 112.429 9.07899 113.725 9.9092 113.844C10.7394 113.963 11.0543 113.658 10.3672 113.098C9.68016 112.539 8.535 112.429 8.535 112.429Z" fill="#FFF6CC"/>
<path d="M8.29645 110.276C8.29645 110.276 9.85193 110.217 10.2432 109.556C10.6249 108.895 10.4053 108.53 9.59423 108.928C8.78311 109.327 8.306 110.268 8.306 110.268L8.29645 110.276Z" fill="#FFF6CC"/>
<path d="M6.06347 110.81C6.06347 110.81 5.38598 109.564 4.54623 109.513C3.70648 109.462 3.42972 109.793 4.1645 110.293C4.89928 110.793 6.06347 110.81 6.06347 110.81Z" fill="#FFF6CC"/>
<path d="M7.58077 112.988C7.58077 112.988 6.88417 114.225 7.35176 114.844C7.81935 115.463 8.27736 115.463 8.27736 114.641C8.27736 113.819 7.58077 112.988 7.58077 112.988Z" fill="#FFF6CC"/>
<path d="M7.82886 100.038C7.82886 100.038 9.22214 100.656 9.91874 100.241C10.6154 99.8258 10.6154 99.4189 9.68973 99.4189C8.7641 99.4189 7.82886 100.038 7.82886 100.038Z" fill="#FFF6CC"/>
<path d="M6.6074 101.258C7.18712 101.258 7.65718 100.795 7.65718 100.224C7.65718 99.6531 7.18712 99.1902 6.6074 99.1902C6.02768 99.1902 5.55774 99.6531 5.55774 100.224C5.55774 100.795 6.02768 101.258 6.6074 101.258Z" fill="#FFF6CC"/>
<path d="M6.49289 98.5714C6.49289 98.5714 7.18948 97.3339 6.7219 96.7152C6.25431 96.0965 5.7963 96.0965 5.7963 96.9186C5.7963 97.7408 6.49289 98.5714 6.49289 98.5714Z" fill="#FFF6CC"/>
<path d="M5.07099 100.589C5.07099 100.589 3.67783 99.9698 2.98122 100.385C2.28461 100.8 2.2846 101.207 3.21023 101.207C4.13586 101.207 5.07099 100.589 5.07099 100.589Z" fill="#FFF6CC"/>
<path d="M5.66268 101.377C5.66268 101.377 4.12641 101.614 3.84014 102.309C3.55386 103.012 3.84004 103.343 4.57482 102.851C5.3096 102.36 5.65313 101.377 5.65313 101.377H5.66268Z" fill="#FFF6CC"/>
<path d="M7.83841 101.072C7.83841 101.072 8.3824 102.368 9.2126 102.487C10.0428 102.606 10.3577 102.3 9.67063 101.741C8.98356 101.182 7.83841 101.072 7.83841 101.072Z" fill="#FFF6CC"/>
<path d="M7.59985 98.9189C7.59985 98.9189 9.15533 98.8595 9.54658 98.1985C9.93782 97.5374 9.70875 97.1729 8.89763 97.5713C8.08651 97.9696 7.60941 98.9104 7.60941 98.9104L7.59985 98.9189Z" fill="#FFF6CC"/>
<path d="M5.36692 99.4613C5.36692 99.4613 4.68931 98.2154 3.84956 98.1646C3.00981 98.1137 2.73317 98.4443 3.46795 98.9443C4.20273 99.4444 5.36692 99.4613 5.36692 99.4613Z" fill="#FFF6CC"/>
<path d="M6.88418 101.639C6.88418 101.639 6.18758 102.877 6.65517 103.496C7.12275 104.114 7.58077 104.114 7.58077 103.292C7.58077 102.47 6.88418 101.639 6.88418 101.639Z" fill="#FFF6CC"/>
<path d="M13.6403 79.3914C13.6403 79.3914 15.0335 80.0101 15.7301 79.5948C16.4268 79.1795 16.4268 78.7727 15.5011 78.7727C14.5755 78.7727 13.6403 79.3914 13.6403 79.3914Z" fill="#FFF6CC"/>
<path d="M12.4189 80.612C12.9986 80.612 13.4686 80.149 13.4686 79.578C13.4686 79.0069 12.9986 78.5439 12.4189 78.5439C11.8392 78.5439 11.3691 79.0069 11.3691 79.578C11.3691 80.149 11.8392 80.612 12.4189 80.612Z" fill="#FFF6CC"/>
<path d="M12.2949 77.9337C12.2949 77.9337 12.9915 76.6962 12.5239 76.0775C12.0563 75.4588 11.5983 75.4588 11.5983 76.2809C11.5983 77.1031 12.2949 77.9337 12.2949 77.9337Z" fill="#FFF6CC"/>
<path d="M10.8825 79.9508C10.8825 79.9508 9.48923 79.3321 8.79262 79.7474C8.09601 80.1627 8.096 80.5695 9.02163 80.5695C9.94726 80.5695 10.8825 79.9508 10.8825 79.9508Z" fill="#FFF6CC"/>
<path d="M11.4742 80.739C11.4742 80.739 9.93779 80.9763 9.65152 81.6713C9.36524 82.3663 9.65154 82.7053 10.3863 82.2137C11.1211 81.7222 11.4646 80.739 11.4646 80.739H11.4742Z" fill="#FFF6CC"/>
<path d="M13.6498 80.4338C13.6498 80.4338 14.1938 81.7306 15.024 81.8492C15.8542 81.9679 16.1691 81.6628 15.482 81.1034C14.8045 80.544 13.6498 80.4338 13.6498 80.4338Z" fill="#FFF6CC"/>
<path d="M13.4113 78.2812C13.4113 78.2812 14.9667 78.2218 15.358 77.5608C15.7397 76.8997 15.5202 76.5352 14.709 76.9336C13.8979 77.3319 13.4208 78.2727 13.4208 78.2727L13.4113 78.2812Z" fill="#FFF6CC"/>
<path d="M11.1688 78.8236C11.1688 78.8236 10.4913 77.5777 9.65152 77.5269C8.81177 77.476 8.53501 77.8066 9.26979 78.3066C10.0046 78.8067 11.1688 78.8236 11.1688 78.8236Z" fill="#FFF6CC"/>
<path d="M12.6956 80.9934C12.6956 80.9934 11.999 82.2308 12.4666 82.8495C12.9342 83.4682 13.3922 83.4682 13.3922 82.6461C13.3922 81.824 12.6956 80.9934 12.6956 80.9934Z" fill="#FFF6CC"/>
<path d="M22.2382 87.2398C22.2382 87.2398 23.6314 87.8585 24.328 87.4432C25.0247 87.0279 25.0247 86.6211 24.099 86.6211C23.1734 86.6211 22.2382 87.2398 22.2382 87.2398Z" fill="#FFF6CC"/>
<path d="M21.0168 88.4603C21.5965 88.4603 22.0665 87.9974 22.0665 87.4263C22.0665 86.8553 21.5965 86.3923 21.0168 86.3923C20.4371 86.3923 19.967 86.8553 19.967 87.4263C19.967 87.9974 20.4371 88.4603 21.0168 88.4603Z" fill="#FFF6CC"/>
<path d="M20.9023 85.7735C20.9023 85.7735 21.5989 84.5361 21.1313 83.9174C20.6637 83.2987 20.2056 83.2987 20.2056 84.1208C20.2056 84.9429 20.9023 85.7735 20.9023 85.7735Z" fill="#FFF6CC"/>
<path d="M19.4803 87.7907C19.4803 87.7907 18.0871 87.172 17.3905 87.5873C16.6939 88.0026 16.6939 88.4094 17.6195 88.4094C18.5452 88.4094 19.4803 87.7907 19.4803 87.7907Z" fill="#FFF6CC"/>
<path d="M20.072 88.5789C20.072 88.5789 18.5357 88.8162 18.2494 89.5112C17.9631 90.2061 18.2494 90.5452 18.9842 90.0536C19.719 89.562 20.0625 88.5789 20.0625 88.5789H20.072Z" fill="#FFF6CC"/>
<path d="M22.2477 88.2737C22.2477 88.2737 22.7917 89.5704 23.6219 89.6891C24.4521 89.8077 24.767 89.5026 24.0799 88.9432C23.3929 88.3839 22.2477 88.2737 22.2477 88.2737Z" fill="#FFF6CC"/>
<path d="M22.0092 86.121C22.0092 86.121 23.5646 86.0617 23.9559 85.4006C24.3471 84.7395 24.1181 84.3751 23.3069 84.7734C22.4958 85.1718 22.0187 86.1125 22.0187 86.1125L22.0092 86.121Z" fill="#FFF6CC"/>
<path d="M19.7762 86.6635C19.7762 86.6635 19.0987 85.4176 18.259 85.3667C17.4192 85.3159 17.1425 85.6464 17.8772 86.1465C18.612 86.6465 19.7762 86.6635 19.7762 86.6635Z" fill="#FFF6CC"/>
<path d="M21.2935 88.8416C21.2935 88.8416 20.5969 90.079 21.0645 90.6977C21.5321 91.3164 21.9901 91.3164 21.9901 90.4943C21.9901 89.6721 21.2935 88.8416 21.2935 88.8416Z" fill="#FFF6CC"/>
<path d="M27.1239 74.4417C27.1239 74.4417 28.5172 75.0604 29.2138 74.6451C29.9104 74.2298 29.9104 73.823 28.9848 73.823C28.0592 73.823 27.1239 74.4417 27.1239 74.4417Z" fill="#FFF6CC"/>
<path d="M25.893 75.6622C26.4728 75.6622 26.9427 75.1993 26.9427 74.6282C26.9427 74.0572 26.4728 73.5942 25.893 73.5942C25.3133 73.5942 24.8433 74.0572 24.8433 74.6282C24.8433 75.1993 25.3133 75.6622 25.893 75.6622Z" fill="#FFF6CC"/>
<path d="M25.7785 72.9754C25.7785 72.9754 26.4751 71.738 26.0075 71.1193C25.54 70.5006 25.0818 70.5006 25.0818 71.3227C25.0818 72.1448 25.7785 72.9754 25.7785 72.9754Z" fill="#FFF6CC"/>
<path d="M24.3661 74.9926C24.3661 74.9926 22.9729 74.3739 22.2763 74.7892C21.5797 75.2045 21.5797 75.6113 22.5053 75.6113C23.4309 75.6113 24.3661 74.9926 24.3661 74.9926Z" fill="#FFF6CC"/>
<path d="M24.9483 75.7808C24.9483 75.7808 23.4119 76.0181 23.1256 76.7131C22.8394 77.408 23.1257 77.7471 23.8604 77.2555C24.5952 76.7639 24.9388 75.7808 24.9388 75.7808H24.9483Z" fill="#FFF6CC"/>
<path d="M27.1335 75.4756C27.1335 75.4756 27.6775 76.7723 28.5077 76.891C29.3379 77.0096 29.6528 76.7045 28.9657 76.1451C28.2786 75.5858 27.1335 75.4756 27.1335 75.4756Z" fill="#FFF6CC"/>
<path d="M26.8854 73.3229C26.8854 73.3229 28.4409 73.2636 28.8321 72.6025C29.2233 71.9414 28.9943 71.577 28.1832 71.9753C27.372 72.3737 26.8949 73.3144 26.8949 73.3144L26.8854 73.3229Z" fill="#FFF6CC"/>
<path d="M24.6524 73.8654C24.6524 73.8654 23.9749 72.6195 23.1352 72.5686C22.2954 72.5178 22.0187 72.8483 22.7534 73.3484C23.4882 73.8484 24.6524 73.8654 24.6524 73.8654Z" fill="#FFF6CC"/>
<path d="M26.1697 76.0435C26.1697 76.0435 25.4731 77.2809 25.9407 77.8996C26.4083 78.5183 26.8664 78.5183 26.8664 77.6962C26.8664 76.874 26.1697 76.0435 26.1697 76.0435Z" fill="#FFF6CC"/>
<path d="M27.4008 79.9932C27.4008 79.9932 25.7786 79.9932 25.0724 81.0272C24.3758 82.0612 23.5647 83.4003 23.5074 84.4852C23.4502 85.57 25.7022 85.2564 26.0839 84.4852C26.4656 83.7139 27.1622 82.4765 27.3912 82.0612C27.6202 81.6459 28.5554 80.4085 27.3912 79.9932H27.4008Z" fill="#F4CAAE"/>
<path d="M36.4184 71.7466L33.193 83.5783C33.1357 83.7902 32.9831 83.9767 32.7636 84.0868L27.1239 87.0278C26.4369 87.3838 25.5972 86.8498 25.7594 86.1549L28.4599 74.9757C28.584 74.4587 28.9466 74.0095 29.4619 73.7468L35.0634 70.8567C35.76 70.4922 36.6092 71.0516 36.4184 71.7551V71.7466Z" fill="#65CEE0"/>
<path d="M36.0081 70.9074C36.0081 70.9074 37.0101 71.4668 37.2105 71.6024C37.4109 71.738 35.3115 72.7635 35.3115 72.7635L34.615 72.3482L34.844 71.3142L35.5406 70.8989H36.0081V70.9074Z" fill="#65CEE0"/>
<path d="M37.4013 72.3315L34.1759 84.1632C34.1187 84.3751 33.966 84.5616 33.7465 84.6717L28.1068 87.6127C27.4198 87.9687 26.5801 87.4347 26.7423 86.7397L29.4142 75.6708C29.5573 75.086 29.9677 74.5775 30.5593 74.2724L36.0463 71.4331C36.7429 71.0686 37.5922 71.628 37.4013 72.3315Z" fill="#1C5360"/>
<path d="M1.02498 82.3664C1.02498 82.3664 3.58238 94.1303 6.13979 99.7071C8.69721 105.284 19.6235 98.885 21.2458 98.0544C22.868 97.2323 33.5652 92.4776 35.1875 91.4521C36.5139 90.613 36.4471 89.9095 36.2562 89.562C38.4701 88.0534 36.5711 87.1296 36.3516 87.3245C37.5158 85.8837 35.884 85.4684 35.7409 85.4175L35.5023 85.6548C36.1894 84.375 35.4069 82.5952 33.3362 84.4428C31.0078 86.5109 28.2214 85.0616 27.5248 84.6463C27.458 84.6039 27.4102 84.5615 27.372 84.5107C27.0953 84.2988 25.1773 82.9173 23.6791 84.0954C23.6791 84.0954 23.6695 84.1038 23.66 84.1123C23.5168 84.4683 23.3451 84.909 23.1065 85.4684C22.5244 86.816 22.3527 87.7483 22.3241 88.3416C22.305 88.8755 21.9328 89.3417 21.3698 89.5196L16.3218 91.6894C15.8828 91.8758 15.358 91.647 15.2626 91.2232C14.9763 89.918 14.2606 87.0363 12.6479 82.163C10.3195 75.1453 6.36883 74.9419 5.67222 75.1453L4.97563 75.3487C-1.14117 77.7642 1.02498 82.3664 1.02498 82.3664Z" fill="#F4CAAE"/>
<path d="M5.67226 75.1453C5.67226 75.1453 12.2948 73.8061 14.6232 88.4602C14.6232 88.4602 10.5008 92.9522 3.02894 91.2232C3.02894 91.2232 -4.90093 76.281 5.67226 75.1453Z" fill="#FBA7A6"/>
<path d="M11.0638 61.6014C11.0638 61.6014 4.86115 59.3469 4.86115 58.7282C4.86115 58.1095 4.90883 56.0754 6.74101 56.1686C8.57318 56.2534 11.5983 58.1095 11.5983 58.1095L11.0543 61.6014H11.0638Z" fill="#1C5360"/>
<path d="M11.2546 61.6268C12.0873 61.6268 12.7624 60.8413 12.7624 59.8723C12.7624 58.9034 12.0873 58.1179 11.2546 58.1179C10.4219 58.1179 9.74695 58.9034 9.74695 59.8723C9.74695 60.8413 10.4219 61.6268 11.2546 61.6268Z" fill="#FBA7A6"/>
<path d="M11.3787 61.076C11.8899 61.076 12.3044 60.5979 12.3044 60.0081C12.3044 59.4183 11.8899 58.9402 11.3787 58.9402C10.8675 58.9402 10.4531 59.4183 10.4531 60.0081C10.4531 60.5979 10.8675 61.076 11.3787 61.076Z" fill="#D87373"/>
<path d="M19.8907 49.4222C19.8907 49.4222 13.688 47.1677 13.688 46.549C13.688 45.9303 13.7357 43.8962 15.5679 43.9894C17.4001 44.0827 20.4252 45.9303 20.4252 45.9303L19.8812 49.4222H19.8907Z" fill="#1C5360"/>
<path d="M20.0815 49.4476C20.9142 49.4476 21.5893 48.6621 21.5893 47.6931C21.5893 46.7242 20.9142 45.9387 20.0815 45.9387C19.2488 45.9387 18.5739 46.7242 18.5739 47.6931C18.5739 48.6621 19.2488 49.4476 20.0815 49.4476Z" fill="#FBA7A6"/>
<path d="M20.2056 48.9051C20.7168 48.9051 21.1313 48.427 21.1313 47.8372C21.1313 47.2474 20.7168 46.7693 20.2056 46.7693C19.6944 46.7693 19.28 47.2474 19.28 47.8372C19.28 48.427 19.6944 48.9051 20.2056 48.9051Z" fill="#D87373"/>
<path d="M15.5488 60.7962L15.3198 62.449L13.23 61.4149L13.459 59.9741L15.5488 60.7962Z" fill="#FC624E"/>
<path d="M99.4759 93.8505C99.4759 93.8505 95.9737 90.918 93.0918 94.7659C90.9066 97.6729 85.2955 105.309 82.6999 108.844C81.8411 110.022 81.5835 111.462 81.9938 112.819L82.0224 112.895C82.7095 115.132 85.057 116.633 87.6621 116.505C89.5039 116.412 91.1833 115.514 92.1185 114.098L101.279 100.317C102.577 98.3679 102.195 95.8338 100.277 94.3421C100.029 94.1556 99.7717 93.9861 99.4854 93.842L99.4759 93.8505Z" fill="#F23E30"/>
<path d="M85.2574 103.733L71.7355 96.8509C70.495 96.2152 69.0255 96.0372 67.6323 96.3424L67.4795 96.3763C64.6168 97.0119 62.8227 99.5207 63.3857 102.089C63.6625 103.377 64.5118 104.504 65.7333 105.233L82.3468 115.149C85.8776 117.26 90.6871 116.166 92.6529 112.819L95.0003 108.81L85.2669 103.724L85.2574 103.733Z" fill="#F23E30"/>
<path d="M95.8687 177.656C95.8687 177.656 90.9066 177.359 89.647 177.605C88.3873 177.851 83.7592 175.113 82.6523 175.308C81.5453 175.503 78.9116 176.486 78.4631 179.224C78.0146 181.961 79.5605 185.097 82.6523 186.657C85.7345 188.225 91.6795 189.979 93.006 191.547C94.3324 193.115 103.799 193.505 104.906 190.174C106.012 186.843 107.988 177.656 95.8783 177.656H95.8687Z" fill="#1C5360"/>
<path d="M85.5627 182.783C85.5627 182.783 80.6007 182.487 79.341 182.733C78.0814 182.978 73.4532 180.241 72.3463 180.436C71.2393 180.631 68.6055 181.614 68.157 184.351C67.7085 187.089 69.2545 190.225 72.3463 191.784C75.438 193.344 81.3735 195.107 82.6999 196.675C84.0264 198.243 93.4927 198.633 94.5996 195.302C95.697 191.979 97.6818 182.783 85.5723 182.783H85.5627Z" fill="#FC624E"/>
<path d="M88.7023 131.193C88.7023 131.193 86.0591 134.914 86.498 140.779C86.937 146.653 86.937 167.189 86.937 171.104C86.937 173.3 86.7938 177.156 86.6793 180.122C86.5743 182.665 87.9771 185.08 90.3627 186.479L91.6129 187.208C94.3802 188.827 97.9777 188.81 100.736 187.165C102.988 185.809 104.343 183.555 104.352 181.139C104.371 173.961 104.457 158.951 104.782 155.264C105.221 150.373 106.108 147.043 106.327 141.762C106.547 136.482 99.7145 122.396 88.7023 131.193Z" fill="#1C5360"/>
<path d="M79.4556 135.1C79.4556 135.1 76.8122 138.821 77.2512 144.686C77.6901 150.56 77.6901 171.096 77.6901 175.011C77.6901 177.207 77.5471 181.063 77.4326 184.029C77.3276 186.572 78.7303 188.987 81.116 190.386L82.366 191.115C85.1333 192.734 88.731 192.717 91.4888 191.072C93.7408 189.716 95.0958 187.462 95.1053 185.046C95.1244 177.868 95.2104 162.858 95.5348 159.171C95.9738 154.28 96.8612 150.95 97.0807 145.669C97.3002 140.389 90.4677 126.303 79.4556 135.1Z" fill="#53D0E5"/>
<path d="M92.1567 95.7745C91.9468 95.7745 78.3772 99.1647 76.2015 106.259C74.0258 113.353 74.4362 145.746 74.4362 145.746C74.4362 145.746 87.8339 155.815 101.232 150.509C101.232 150.509 108.856 147.212 110.097 143.373C110.097 143.373 110.507 104.572 102.883 99.6224C95.258 94.6812 92.1663 95.7745 92.1663 95.7745H92.1567Z" fill="#FC624E"/>
<path d="M79.36 86.4853L78.4917 90.7569L78.1767 92.3164L78.1482 92.452C78.1482 92.452 78.1482 92.452 78.1291 92.452C78.0146 92.4689 77.1748 92.5876 76.2873 92.2655C75.3903 91.9519 74.4456 91.1976 74.1211 89.4856C73.4531 85.9344 76.211 84.7139 76.211 84.7139C79.4173 82.6967 79.36 86.4853 79.36 86.4853Z" fill="#98EBF4"/>
<path d="M91.4505 75.3316C87.9007 74.2806 83.9501 75.0689 81.4308 77.5183C80.4002 78.5184 79.6082 79.7982 79.4841 81.4C79.0738 86.5277 78.6635 90.7315 78.2436 91.8333C77.8238 92.9351 77.7761 102.792 86.5934 98.6984C95.4012 94.6048 98.3785 93.6301 99.2373 86.3243C99.9339 80.3914 97.0711 76.9843 91.4505 75.3231V75.3316Z" fill="#F4CAAE"/>
<path d="M93.9125 75.3657C93.9125 75.3657 80.5148 71.1534 76.6023 82.6885C76.6023 82.6885 75.5717 87.0787 77.6329 87.4517C79.6941 87.8246 80.7247 88.1806 80.7247 88.1806C80.7247 88.1806 79.3028 100.241 85.5723 99.6987C91.8513 99.1647 100.583 97.4357 101.785 90.2486C102.987 83.0614 100.716 78.2982 93.9125 75.3741V75.3657Z" fill="#1C5360"/>
<path d="M78.6635 102.64C78.6635 102.64 82.9958 100.529 85.267 105.064C87.5286 109.598 87.5286 111.971 87.5286 111.971L91.8609 109.954C91.8609 109.954 91.317 101.021 82.9291 99.5377C82.9291 99.5377 78.8734 98.9698 78.673 102.631L78.6635 102.64Z" fill="#1C5360"/>
<path d="M95.4966 96.249C95.4966 96.249 102.749 92.6893 106.48 103.368L101.947 105.199C101.947 105.199 103.274 100.478 95.4966 96.249Z" fill="#1C5360"/>
<path d="M86.0399 110.759L84.9235 129.812C84.7899 132.024 86.0304 134.126 88.1489 135.304L93.1014 138.05C95.1435 139.177 97.6914 139.279 99.8385 138.321L110.622 133.473C112.816 132.49 114.248 130.532 114.381 128.346L115.526 108.708L105.287 101.826L87.2042 109.25C86.5362 109.522 86.0876 110.106 86.0494 110.759H86.0399Z" fill="#43ABC4"/>
<path d="M82.7859 105.021C82.7859 105.021 79.2837 102.089 76.4019 105.937C74.2166 108.844 68.6055 116.48 66.01 120.014C65.1511 121.192 64.8935 122.633 65.3038 123.989L65.3325 124.066C66.0195 126.303 68.3671 127.803 70.9722 127.676C72.8139 127.583 74.4933 126.684 75.4285 125.269L84.5895 111.488C85.8873 109.539 85.5055 107.004 83.5874 105.513C83.3393 105.326 83.0817 105.157 82.7955 105.013L82.7859 105.021Z" fill="#F23E30"/>
<path d="M103.379 88.9601C102.902 91.6299 101.327 93.5454 99.1896 94.9269C95.573 97.2661 90.3436 98.0713 86.1544 98.4103C79.4841 98.9442 81.0015 86.8921 81.0015 86.8921C81.0015 86.8921 79.9041 86.5277 77.7188 86.1632C75.5335 85.7988 76.6214 81.4 76.6214 81.4C77.7188 78.3658 79.5128 76.4165 81.5549 75.2045C87.29 71.7974 95.01 74.0857 95.01 74.0857C102.234 77.0182 104.648 81.773 103.379 88.9601Z" fill="#43ABC4"/>
<path d="M79.1214 87.0108L78.5012 90.7569L78.3103 91.9096L78.1863 92.3164L78.1482 92.452C78.0337 92.469 77.1939 92.5876 76.3064 92.2656C76.211 91.8927 76.1347 91.4011 76.0965 90.7739C75.8675 86.8328 77.7282 86.6294 77.7282 86.6294L79.131 87.0193L79.1214 87.0108Z" fill="#1C5360"/>
<path d="M85.8682 95.5965C86.7219 95.5965 87.4141 94.8983 87.4141 94.037C87.4141 93.1757 86.7219 92.4775 85.8682 92.4775C85.0144 92.4775 84.3223 93.1757 84.3223 94.037C84.3223 94.8983 85.0144 95.5965 85.8682 95.5965Z" fill="#1C5360"/>
<path d="M103.379 88.9603C102.902 91.6301 101.327 93.5455 99.1895 94.927C100.354 92.164 100.879 88.4772 99.4568 83.7818C96.1455 72.84 83.702 74.7809 81.5549 75.1962C87.29 71.7891 95.0099 74.0774 95.0099 74.0774C102.234 77.0099 104.648 81.7647 103.379 88.9518V88.9603Z" fill="#98EBF4"/>
<path d="M106.022 101.385L114.19 105.954C115.526 106.699 116.328 107.996 116.328 109.395V121.659C116.328 122.192 116.004 122.693 115.469 122.947L101.308 129.786C100.258 130.295 98.9605 129.668 98.8746 128.608L97.9013 117.285C97.7868 115.904 96.8706 114.675 95.487 114.039L86.7269 109.988C86.3834 109.827 86.393 109.386 86.746 109.242L106.022 101.394V101.385Z" fill="#1C5360"/>
<path d="M37.9643 106.776C37.9643 110.903 42.0581 112.115 45.8847 114.056C46.858 114.548 48.2799 114.717 49.9212 114.658C54.7306 114.497 61.4773 112.471 64.7408 111.386C69.1113 109.928 69.6553 106.53 70.2087 102.648C70.7622 98.7662 59.0057 78.6285 59.0057 78.6285C58.3187 76.3486 54.5399 76.069 51.1904 76.5944C49.196 76.908 47.3542 77.5098 46.4381 78.1454C43.9761 79.8405 37.9738 102.656 37.9738 106.776H37.9643ZM51.4862 82.8747C51.7629 81.9001 52.0301 79.4761 52.5836 78.5099C53.1371 77.5437 56.1334 78.993 56.1334 78.993C56.1334 78.993 58.8626 81.9085 58.8626 84.0867C58.8626 86.2734 56.6774 85.5445 56.6774 85.5445C51.4862 87.4854 51.2094 83.8494 51.4862 82.8747Z" fill="#D3BEBE"/>
<path d="M38.0979 75.8318L47.3447 81.6036C50.5987 85.765 53.557 89.5196 53.9196 89.9264C54.683 90.7825 55.5132 92.9098 57.0209 91.3503C57.1927 91.1723 57.3644 90.9605 57.5552 90.6808C57.5552 90.6808 43.2892 68.7887 41.6478 68.3056C40.9035 68.0852 40.1114 68.3649 39.4625 68.7293C38.6705 69.1785 38.0979 69.7633 38.0979 69.7633C38.0979 69.7633 39.7774 71.9246 42.0485 74.8232C41.7146 74.5859 41.4856 74.4333 41.3997 74.3994C40.8749 74.1791 38.0979 75.8318 38.0979 75.8318Z" fill="#43ABC4"/>
<path d="M38.1075 75.8317L44.6156 79.9L47.3543 81.612C50.6083 85.7735 53.5665 89.5281 53.9291 89.9349C54.6925 90.7909 55.5227 92.9183 57.0305 91.3588C55.8472 89.8756 49.7494 82.2222 48.757 80.6882C47.6596 78.9931 44.6632 75.5944 44.6632 75.5944L39.4721 68.7378C38.6801 69.187 38.1075 69.7718 38.1075 69.7718C38.1075 69.7718 39.787 71.933 42.0581 74.8316C41.7241 74.5943 41.4951 74.4418 41.4093 74.4079C40.9035 74.196 38.2697 75.747 38.117 75.8402L38.1075 75.8317Z" fill="#1C5360"/>
<path d="M43.0219 70.2549L46.8485 75.5944C46.8485 75.5944 46.3046 76.0775 46.0278 75.8402C45.7511 75.6029 42.2013 71.4754 42.2013 71.4754L43.0219 71.7212L41.6574 69.7803L43.0219 70.2634V70.2549Z" fill="#9CDBE5"/>
<path d="M38.0979 75.8317L44.606 79.9L44.9304 79.9593L44.6632 79.2304L39.7393 75.1113L38.1075 75.8317H38.0979Z" fill="#43ABC4"/>
<path d="M46.3427 71.4414L52.4691 79.8745C53.7287 84.8157 54.8738 89.2823 55.036 89.7823C55.3795 90.8248 55.2459 93.0793 57.3071 92.1385C57.5362 92.0368 57.7939 91.8927 58.0801 91.6978C58.0801 91.6978 54.1199 66.6528 52.8126 65.6527C52.221 65.2035 51.3621 65.195 50.6082 65.3137C49.6921 65.4662 48.9097 65.8137 48.9097 65.8137C48.9097 65.8137 49.5586 68.3733 50.427 71.8228C50.217 71.4923 50.0739 71.2719 50.0071 71.2126C49.6159 70.8312 46.3427 71.4414 46.3427 71.4414Z" fill="#43ABC4"/>
<path d="M46.3523 71.4415H46.3427L50.656 77.3828L52.4786 79.8831C53.7383 84.8243 54.8833 89.2908 55.0455 89.7909C55.3891 90.8334 55.2555 93.0878 57.3167 92.1471C56.8491 90.3757 54.4349 81.2476 54.1677 79.5017C53.8719 77.5608 52.5263 73.4078 52.5263 73.4078L50.6178 65.3223C49.7017 65.4748 48.9193 65.8223 48.9193 65.8223C48.9193 65.8223 49.5681 68.3819 50.4365 71.8314C50.2266 71.5009 50.0834 71.2805 50.0166 71.2212C49.6349 70.8483 46.5431 71.4161 46.3618 71.45L46.3523 71.4415Z" fill="#1C5360"/>
<path d="M53.2611 67.9157L54.5493 74.1366C54.5493 74.1366 53.8337 74.4079 53.6906 74.0858C53.5474 73.7637 51.992 68.7632 51.992 68.7632L52.6504 69.2633L52.2019 67.0088L53.2611 67.9157Z" fill="#9CDBE5"/>
<path d="M46.3427 71.4413L50.656 77.3826L50.9328 77.5437L50.9804 76.7809L48.1749 71.3142L46.3523 71.4413H46.3427Z" fill="#43ABC4"/>
<path d="M39.3289 107.013C39.3289 111.14 43.4228 112.352 47.2493 114.293C48.2227 114.785 49.6445 114.954 51.2858 114.895C56.0953 114.734 62.8419 112.708 66.1055 111.623C70.476 110.166 71.0199 106.767 71.5734 102.885C72.1268 99.0035 60.3704 78.8659 60.3704 78.8659C59.6833 76.586 55.9044 76.3063 52.555 76.8317C50.5606 77.1453 48.7189 77.7471 47.8028 78.3828C45.3408 80.0778 39.3385 102.894 39.3385 107.013H39.3289ZM52.8508 83.1121C53.1276 82.1374 53.3947 79.7134 53.9481 78.7472C54.5016 77.781 57.4981 79.2303 57.4981 79.2303C57.4981 79.2303 60.2272 82.1459 60.2272 84.324C60.2272 86.5107 58.0419 85.7818 58.0419 85.7818C52.8508 87.7227 52.5741 84.0867 52.8508 83.1121Z" fill="#EDE2E2"/>
<path d="M39.3289 107.013C39.3289 111.14 43.4228 112.352 47.2493 114.293C48.2227 114.785 49.6445 114.954 51.2858 114.895C51.324 114.573 51.2191 114.242 50.9423 113.929C48.7571 111.505 47.9364 99.368 46.8485 92.8165C45.7511 86.265 52.8604 77.2895 52.8604 77.2895C52.765 77.1284 52.6599 76.9759 52.5645 76.8318C50.5701 77.1454 48.7284 77.7471 47.8123 78.3828C45.3503 80.0779 39.3481 102.894 39.3481 107.013H39.3289Z" fill="#D3BEBE"/>
<path d="M54.139 110.784C54.139 110.784 53.1847 105.716 52.8126 104.538C52.4404 103.36 47.2969 100.148 46.9152 100.148C46.5335 100.148 45.398 101.326 46.1519 102.343C46.9057 103.36 48.6233 104.199 48.2416 104.707C47.8599 105.216 46.5335 108.928 47.2874 109.945C48.0508 110.962 50.3315 113.319 51.2762 113.158C52.2209 112.996 53.7477 112.31 54.1294 110.793L54.139 110.784Z" fill="#F4CAAE"/>
<path d="M52.1543 109.089C52.1543 109.089 46.1806 104.996 44.8542 104.682C43.5277 104.369 39.5103 106.462 39.2145 107.267C38.9186 108.072 40.6173 111.479 42.0009 112.488C43.3846 113.497 48.6617 116.811 49.635 116.48C50.6083 116.141 52.6886 110.53 52.1447 109.089H52.1543Z" fill="#F4CAAE"/>
<path d="M44.8637 104.682L37.2296 100.614C36.7334 100.351 36.0653 100.427 35.7123 100.834C35.4737 101.105 35.407 101.487 35.8936 101.995C37.0387 103.173 42.1726 105.877 42.1726 105.877C42.1726 105.877 45.0927 106.852 44.8732 104.674L44.8637 104.682Z" fill="#F4CAAE"/>
<path d="M44.1003 106.538L35.8937 102.165C35.8937 102.165 33.9947 102.673 35.1302 103.851C36.2658 105.029 41.4093 107.733 41.4093 107.733C41.4093 107.733 44.3293 108.708 44.1098 106.53L44.1003 106.538Z" fill="#F4CAAE"/>
<path d="M43.7186 108.394L35.512 104.021C35.512 104.021 33.6129 104.53 34.7485 105.708C35.8936 106.886 41.0276 109.589 41.0276 109.589C41.0276 109.589 43.9476 110.564 43.7281 108.386L43.7186 108.394Z" fill="#F4CAAE"/>
<path d="M45.6174 111.776L37.4108 107.403C37.4108 107.403 35.5119 107.911 36.6475 109.089C37.7831 110.267 42.9265 112.971 42.9265 112.971C42.9265 112.971 45.8465 113.946 45.627 111.767L45.6174 111.776Z" fill="#F4CAAE"/>
<path d="M68.5579 114.903L55.036 108.021C53.7954 107.386 52.3259 107.208 50.9327 107.513L50.78 107.547C47.9172 108.182 46.1232 110.691 46.6862 113.259C46.9629 114.547 47.8123 115.675 49.0338 116.404L65.6473 126.32C69.1781 128.43 73.9876 127.337 75.9534 123.989L78.3008 119.98L68.5674 114.895L68.5579 114.903Z" fill="#F23E30"/>
</svg>
