<svg width="256" height="198" viewBox="0 0 256 198" fill="none" xmlns="http://www.w3.org/2000/svg">
<path d="M200.308 69.5407C188.476 73.7022 83.0204 111.867 7.97757 175.933C3.86472 179.442 5.82096 185.612 11.3938 186.705L66.674 197.512C71.1972 198.393 75.9303 197.512 79.6806 195.105C106.276 177.967 215.615 108.002 253.556 91.4328C255.942 90.3903 255.77 87.3307 253.289 86.5001L202.484 69.5407C201.778 69.3034 201.005 69.3119 200.308 69.5577V69.5407Z" fill="#FBA7A6"/>
<path d="M87.0093 36.5543C86.0837 36.5543 85.1866 36.1305 84.6809 35.3762C83.927 34.2405 84.3564 32.7658 85.6352 32.0962L146.364 0.330232C147.643 -0.339329 149.303 0.0420661 150.057 1.17778C150.811 2.31349 150.382 3.78822 149.103 4.45778L88.3739 36.2153C87.9445 36.4441 87.4769 36.5458 87.0093 36.5458V36.5543Z" fill="#1C5360"/>
<path d="M91.3321 42.5126C90.4065 42.5126 89.5095 42.0888 89.0037 41.3345C88.2498 40.1988 88.6793 38.724 89.958 38.0545L120.571 22.0443C121.849 21.3748 123.51 21.7562 124.264 22.8919C125.017 24.0276 124.588 25.5023 123.309 26.1719L92.6967 42.182C92.2673 42.4109 91.7997 42.5126 91.3321 42.5126Z" fill="#1C5360"/>
<path d="M130.027 23.1462C129.102 23.1462 128.205 22.7225 127.699 21.9681C126.945 20.8324 127.374 19.3577 128.653 18.6881L136.402 14.6369C137.68 13.9673 139.341 14.3487 140.095 15.4844C140.849 16.6201 140.419 18.0949 139.14 18.7644L131.392 22.8157C130.962 23.0445 130.495 23.1462 130.027 23.1462Z" fill="#1C5360"/>
<path d="M124.159 48.9709C123.233 48.9709 122.336 48.5472 121.83 47.7928C121.076 46.6571 121.506 45.1824 122.784 44.5128L130.533 40.4616C131.812 39.792 133.472 40.1734 134.226 41.3091C134.98 42.4448 134.55 43.9196 133.272 44.5891L125.523 48.6404C125.094 48.8692 124.626 48.9709 124.159 48.9709Z" fill="#1C5360"/>
<path d="M95.3209 53.1324C94.3952 53.1324 93.4982 52.7086 92.9925 51.9543C92.2386 50.8186 92.668 49.3438 93.9467 48.6743L136.984 26.1635C138.262 25.4939 139.923 25.8753 140.677 27.011C141.431 28.1467 141.001 29.6215 139.722 30.291L96.6855 52.8018C96.256 53.0307 95.7885 53.1324 95.3209 53.1324Z" fill="#1C5360"/>
<path d="M94.8533 63.5486C93.9276 63.5486 93.0306 63.1248 92.5249 62.3705C91.771 61.2348 92.2004 59.76 93.4791 59.0905L115.179 47.7419C116.458 47.0723 118.118 47.4537 118.872 48.5894C119.626 49.7251 119.196 51.1998 117.918 51.8694L96.2179 63.218C95.7884 63.4469 95.3209 63.5486 94.8533 63.5486Z" fill="#1C5360"/>
<path d="M88.7556 77.9145C87.8299 77.9145 86.9329 77.4908 86.4272 76.7365C85.6733 75.6007 86.1027 74.126 87.3814 73.4565L129.006 51.683C130.285 51.0135 131.945 51.3948 132.699 52.5306C133.453 53.6663 133.024 55.141 131.745 55.8106L90.1201 77.584C89.6907 77.8128 89.2231 77.9145 88.7556 77.9145Z" fill="#1C5360"/>
<path d="M77.5049 93.1195C76.5793 93.1195 75.6823 92.6957 75.1765 91.9414C74.4226 90.8057 74.8521 89.331 76.1308 88.6614L107.774 72.1173C109.053 71.4478 110.713 71.8292 111.467 72.9649C112.221 74.1006 111.791 75.5753 110.513 76.2449L78.8695 92.789C78.4401 93.0178 77.9725 93.1195 77.5049 93.1195Z" fill="#1C5360"/>
<path opacity="0.4" d="M122.727 121.733C123.271 122.021 123.662 122.207 123.777 122.267C123.643 122.207 123.204 122.012 122.727 121.733Z" fill="#65CEE0"/>
<path d="M89.9033 61.6981C90.4725 60.855 90.4906 59.9355 89.9437 59.6442C89.3968 59.353 88.492 59.8002 87.9228 60.6432C87.3536 61.4862 87.3356 62.4058 87.8825 62.6971C88.4294 62.9884 89.3342 62.5411 89.9033 61.6981Z" fill="#1C5360"/>
<path d="M89.5858 37.8002C88.6601 37.8002 87.7631 37.3765 87.2574 36.6221C86.5035 35.4864 86.9329 34.0117 88.2116 33.3421L148.941 1.58463C150.219 0.915065 151.88 1.29646 152.634 2.43217C153.387 3.56788 152.958 5.04261 151.679 5.71217L90.9503 37.4697C90.5209 37.6985 90.0533 37.8002 89.5858 37.8002Z" fill="#FBA7A6"/>
<path d="M93.918 43.767C92.9924 43.767 92.0954 43.3432 91.5896 42.5889C90.8358 41.4532 91.2652 39.9784 92.5439 39.3089L123.157 23.2987C124.435 22.6292 126.096 23.0106 126.85 24.1463C127.603 25.282 127.174 26.7567 125.895 27.4263L95.2827 43.4364C94.8533 43.6652 94.3856 43.767 93.918 43.767Z" fill="#FBA7A6"/>
<path d="M132.604 24.3921C131.678 24.3921 130.781 23.9683 130.275 23.214C129.521 22.0783 129.951 20.6035 131.23 19.934L138.978 15.8827C140.257 15.2132 141.917 15.5946 142.671 16.7303C143.425 17.866 142.996 19.3407 141.717 20.0103L133.968 24.0615C133.539 24.2904 133.071 24.3921 132.604 24.3921Z" fill="#FBA7A6"/>
<path d="M126.745 50.2168C125.819 50.2168 124.922 49.793 124.416 49.0387C123.662 47.903 124.092 46.4283 125.37 45.7587L133.119 41.7074C134.398 41.0379 136.058 41.4193 136.812 42.555C137.566 43.6907 137.136 45.1654 135.858 45.835L128.109 49.8862C127.68 50.1151 127.212 50.2168 126.745 50.2168Z" fill="#FBA7A6"/>
<path d="M97.8973 54.3868C96.9717 54.3868 96.0747 53.963 95.569 53.2087C94.8151 52.073 95.2445 50.5982 96.5232 49.9287L139.56 27.4179C140.839 26.7483 142.499 27.1297 143.253 28.2654C144.007 29.4011 143.578 30.8759 142.299 31.5454L99.2619 54.0562C98.8325 54.2851 98.3649 54.3868 97.8973 54.3868Z" fill="#FBA7A6"/>
<path d="M97.4298 64.7947C96.5041 64.7947 95.6071 64.3709 95.1014 63.6166C94.3475 62.4809 94.7769 61.0061 96.0556 60.3366L117.755 48.9879C119.034 48.3184 120.695 48.6998 121.448 49.8355C122.202 50.9712 121.773 52.4459 120.494 53.1155L98.7943 64.4641C98.3649 64.693 97.8973 64.7947 97.4298 64.7947Z" fill="#FBA7A6"/>
<path d="M91.332 79.1689C90.4064 79.1689 89.5094 78.7452 89.0036 77.9908C88.2498 76.8551 88.6792 75.3804 89.9579 74.7108L131.583 52.9374C132.861 52.2678 134.522 52.6492 135.276 53.785C136.029 54.9207 135.6 56.3954 134.321 57.065L92.6966 78.8384C92.2672 79.0672 91.7996 79.1689 91.332 79.1689Z" fill="#FBA7A6"/>
<path d="M80.0813 94.3654C79.1557 94.3654 78.2587 93.9416 77.7529 93.1873C76.999 92.0516 77.4285 90.5768 78.7072 89.9073L110.35 73.3632C111.629 72.6936 113.29 73.075 114.043 74.2107C114.797 75.3464 114.368 76.8212 113.089 77.4907L81.4459 94.0348C81.0165 94.2637 80.5489 94.3654 80.0813 94.3654Z" fill="#FBA7A6"/>
<path d="M215.147 80.4148C215.147 80.4148 102.373 131.929 45.0219 179.052" stroke="white" stroke-width="16" stroke-linecap="round" stroke-linejoin="round"/>
<path d="M79.3562 142.87C79.3562 142.87 80.0814 144.218 79.0317 146.193C77.9916 148.176 75.8159 147.778 74.2223 150.269C72.6382 152.753 69.5082 158.923 67.9623 160.669C66.426 162.423 59.5458 168.305 54.5836 166.441C49.6215 164.584 44.4303 161.83 48.505 158.118C52.5892 154.414 56.5876 154.473 57.3891 152.049C58.1907 149.625 57.7517 146.727 61.0153 146.116C61.0153 146.116 66.8172 141.836 71.932 139.345C72.8863 138.878 73.8215 138.472 74.6899 138.166C74.7662 138.141 74.8425 138.116 74.9093 138.09C76.3598 137.607 77.6003 137.429 78.4496 137.743C79.4134 138.107 79.9383 138.624 80.1864 139.192C80.8925 140.819 79.3466 142.87 79.3466 142.87H79.3562Z" fill="#1C5360"/>
<path d="M80.2054 139.192C78.9649 141.938 73.7356 145.184 73.7356 145.184L71.9511 139.345C72.9054 138.878 73.8405 138.472 74.7089 138.166H74.8139C74.8139 138.166 74.8616 138.133 74.9379 138.09C76.3884 137.607 77.6289 137.429 78.4782 137.743C79.442 138.107 79.9669 138.624 80.215 139.192H80.2054Z" fill="#2F7C89"/>
<path d="M79.0412 125.343L79.6901 134.048C79.776 135.141 79.2416 136.2 78.2778 136.878L73.1153 140.362L68.6685 125.742L79.0412 125.343Z" fill="#43ABC4"/>
<path d="M80.5776 132.429C80.6062 132.691 80.3677 132.92 80.0719 132.912C79.9478 132.912 79.8333 132.869 79.7474 132.793C79.6615 132.725 79.6043 132.624 79.5852 132.513L79.547 132.183L78.8885 126.275C78.8408 125.852 78.3065 125.623 77.9057 125.86L76.1785 126.877C75.7395 127.132 75.4341 127.53 75.3196 127.988L74.9761 129.378L74.9474 129.488L74.6612 129.318L72.3423 127.988L71.8652 127.708L69.5368 126.369L68.8498 125.979L68.7353 125.911L68.0196 125.496L67.9051 125.428L66.0061 124.335L65.7961 124.216L66.092 123.953L66.1206 123.928L67.8192 122.428L67.9623 122.301L68.3727 121.936L68.4872 121.834L68.5826 121.75L70.6247 119.944C70.6247 119.944 70.7106 119.961 70.8156 120.004C71.0923 120.114 71.6553 120.377 72.371 120.724C72.934 120.995 73.5924 121.326 74.2795 121.665C76.3598 122.699 78.6977 123.902 79.4993 124.318C79.6806 124.411 79.7951 124.572 79.8142 124.758L80.5585 132.429H80.5776Z" fill="#1C5360"/>
<path d="M59.1927 138.751C59.1927 138.751 58.3911 141.184 56.3585 142.701C54.3259 144.218 50.757 147.269 51.654 152.176L51.864 153.956C51.864 153.956 53.0281 158.194 59.8702 153.871C59.8702 153.871 61.7596 147.244 62.7806 146.15C63.8017 145.057 69.8326 143.828 70.1571 140.497C70.4815 137.166 70.0235 134.946 66.779 134.666C63.5345 134.386 59.7175 137.658 59.1927 138.76V138.751Z" fill="#1C5360"/>
<path d="M52.5987 154.634C52.5987 154.634 49.8314 155.473 49.0489 156.795C48.2664 158.118 48.2473 159.228 48.4954 159.228C48.7435 159.228 49.2111 161.016 51.7208 160.389C54.2305 159.762 56.5207 158.245 57.5132 158.262C58.5056 158.279 59.0304 157.618 59.0495 156.507C59.0686 155.397 58.8682 153.397 57.8662 153.38C56.8643 153.363 54.1541 151.761 52.5892 154.626L52.5987 154.634Z" fill="#1C5360"/>
<path d="M58.0858 157.313C58.0858 157.313 55.4615 158.804 54.7458 160.364C54.0206 161.923 54.0111 163.093 54.2497 163.042C54.4882 162.991 54.9463 164.762 57.3224 163.55C59.6985 162.338 61.8551 160.245 62.7998 160.042C63.7445 159.838 64.2312 159.033 64.2407 157.863C64.2503 156.694 64.0308 154.634 63.0766 154.838C62.1223 155.041 59.5267 153.956 58.0762 157.313H58.0858Z" fill="#FC624E"/>
<path d="M63.63 141.497C63.63 141.497 62.8285 143.93 60.7959 145.447C58.7633 146.964 54.6982 150.007 55.5952 154.914L55.8146 156.253C55.8146 156.253 56.7689 160.525 62.1318 157.982C63.1624 157.499 63.9258 156.668 64.2789 155.685C65.0328 153.575 66.4833 149.685 67.2276 148.896C68.2486 147.803 74.2795 146.574 74.604 143.243C74.9284 139.912 74.4704 137.692 71.2259 137.412C67.9815 137.132 64.1644 140.404 63.6396 141.506L63.63 141.497Z" fill="#53D0E5"/>
<path d="M64.8896 123.928C65.2236 124.648 65.1377 125.47 64.6606 126.123L62.4181 129.233C61.3398 130.725 59.8988 132.005 58.2098 132.963L54.8603 134.861C53.6007 135.573 51.9117 135.276 51.0719 134.183C50.2131 133.073 50.5662 131.564 51.8449 130.835L54.0397 129.581C55.6715 128.648 57.0551 127.437 58.1144 126.004L60.0706 123.36C61.3684 121.834 64.088 122.148 64.8896 123.919V123.928Z" fill="#F23E30"/>
<path d="M64.1739 118.936C64.1739 118.936 60.0515 120.682 59.8511 124.869C59.6507 129.055 62.7997 131.496 62.7997 131.496C62.7997 131.496 59.6602 122.606 66.9221 120.334L64.1739 118.936Z" fill="#1C5360"/>
<path d="M61.2634 124.445C61.2634 124.445 60.4809 125.767 60.9199 128.657C61.3589 131.556 61.8264 132.895 61.5592 133.997C61.2825 135.098 59.4599 138.624 60.6813 139.98C61.9028 141.336 70.6056 145.04 74.2604 139.09C75.9685 136.302 76.2548 133.005 74.5181 126.055C74.1459 124.58 72.1515 123.868 70.596 123.267C67.7905 122.182 62.7616 120.843 61.2634 124.445Z" fill="#FC624E"/>
<path d="M65.1568 125.648C65.1568 125.648 63.983 128.267 64.3743 130.183C64.7655 132.098 64.7655 136.632 64.1739 137.683C63.5822 138.726 62.7997 141.175 62.7997 141.175" stroke="#FFD6D6" stroke-width="4" stroke-miterlimit="10" stroke-linecap="round"/>
<path d="M76.6461 156.931C76.6461 156.931 71.9797 157.219 71.0923 155.194L73.7069 149.668L76.6461 156.94V156.931Z" fill="#1C5360"/>
<path d="M83.2209 147.523L83.2686 149.286C83.3163 151.007 82.5911 152.931 81.3124 154.448C78.087 158.296 73.4111 157.626 73.2298 153.287L73.163 151.549C73.0867 149.769 73.8596 147.769 75.2051 146.21L75.2242 146.184C78.4878 142.413 83.0969 143.184 83.2209 147.523Z" fill="#98EBF4"/>
<path d="M81.4269 149.1L81.446 149.888C81.4651 150.651 81.1407 151.507 80.5776 152.185C79.1463 153.897 77.0564 153.6 76.9801 151.668L76.9515 150.897C76.9228 150.1 77.2568 149.21 77.858 148.515H77.8676C79.3181 146.828 81.3697 147.167 81.4269 149.1Z" fill="#1C5360"/>
<path d="M68.8402 113.757L68.6589 114.825L68.1818 117.647L68.1341 117.698L67.6378 118.241L67.5233 118.368H67.5138L67.1798 118.749L66.2924 119.707L66.2828 119.715L66.1015 119.919L65.882 120.156L64.7655 121.368L64.7274 121.411L64.6701 121.478L64.5937 121.563L64.088 122.106L63.9258 122.284C63.9258 122.284 63.8972 122.284 63.8495 122.284H63.7922C63.6109 122.284 63.2769 122.258 62.9142 122.106C62.8379 122.072 62.7616 122.038 62.6852 121.995C62.628 121.961 62.5707 121.928 62.523 121.894C62.5039 121.877 62.4753 121.86 62.4562 121.843C62.1509 121.614 61.8741 121.258 61.7024 120.733C61.4829 120.046 61.4543 119.054 61.8073 117.622C61.96 117.012 62.1699 116.495 62.4371 116.063C64.2311 113.122 68.2677 113.672 68.7925 113.757C68.8211 113.757 68.8402 113.766 68.8402 113.766V113.757Z" fill="#43ABC4"/>
<path d="M64.2026 121.199C64.1835 121.682 64.1739 121.919 64.0689 122.106C64.0308 122.174 63.9735 122.224 63.9067 122.284C63.9067 122.284 63.1051 122.36 62.4371 121.852C62.6184 121.089 62.3608 119.351 62.3608 119.351C62.3608 119.351 62.3608 119.351 62.3703 119.334C62.4085 119.283 62.5421 119.139 62.7616 118.953C62.7616 118.953 62.7616 118.953 62.7712 118.944C62.8761 118.86 63.0383 118.843 63.2005 118.86C63.4868 118.885 63.7731 119.012 63.7731 119.012C63.7731 119.012 63.8876 119.428 64.0021 119.911C64.1071 120.368 64.2025 120.885 64.193 121.199H64.2026Z" fill="#1C5360"/>
<path d="M68.8498 122.47C68.5349 123.767 67.5234 125.487 65.195 125.394C62.8666 125.301 62.857 123.106 62.9143 121.58C62.9143 121.377 62.9143 121.182 62.9143 120.995C62.8952 120.631 62.857 120.3 62.7998 120.021C62.7043 119.512 62.8284 118.995 63.1338 118.571C63.2483 118.41 63.3914 118.258 63.5632 118.131L65.4431 116.673C65.4431 116.673 66.1874 117.571 68.2199 118.741C70.2525 119.91 69.1647 121.173 68.8498 122.47Z" fill="#F4CAAE"/>
<path d="M65.0232 120.563L64.7274 122.275C64.7083 122.402 64.8133 122.521 64.966 122.521L65.4526 122.538" stroke="#2F7C89" stroke-miterlimit="10"/>
<path d="M63.9926 123.258L64.298 123.402C64.7369 123.614 65.2713 123.631 65.7198 123.462L66.0347 123.343" stroke="#2F7C89" stroke-miterlimit="10"/>
<path d="M72.6573 120.444C72.3328 121.3 71.8366 121.979 71.3022 122.479C71.2354 122.538 71.1972 122.572 71.1972 122.572C71.1686 122.597 71.1495 122.614 71.1209 122.64L71.0446 122.699C70.7583 122.928 70.472 123.106 70.1953 123.233C70.1571 123.25 70.1189 123.267 70.0807 123.284C69.9567 123.335 69.8326 123.377 69.7181 123.402C69.6895 123.411 69.6609 123.419 69.6323 123.419C69.4414 123.462 69.2696 123.47 69.1169 123.462C69.0883 123.462 69.0502 123.462 69.0215 123.445H69.012C68.9834 123.445 68.9547 123.436 68.9261 123.428C68.8974 123.419 68.8689 123.411 68.8402 123.402C68.8211 123.394 68.7925 123.385 68.7734 123.368C68.7162 123.343 68.6684 123.301 68.6303 123.258C68.6112 123.241 68.6016 123.216 68.5826 123.199C68.573 123.182 68.5539 123.157 68.5444 123.14C68.5444 123.14 68.5444 123.14 68.5444 123.131C68.5444 123.114 68.5348 123.106 68.5253 123.089C68.5253 123.08 68.5158 123.063 68.5158 123.055C68.5158 123.038 68.5062 123.013 68.4967 122.987C68.4967 122.97 68.4967 122.953 68.4967 122.936C68.4967 122.919 68.4967 122.902 68.4967 122.885C68.4967 122.86 68.4967 122.835 68.4967 122.809C68.4967 122.767 68.4967 122.733 68.4967 122.69C68.4967 122.631 68.5062 122.58 68.5158 122.521C68.5158 122.47 68.5253 122.419 68.5253 122.368C68.5253 122.309 68.5349 122.25 68.5349 122.19C68.5349 122.14 68.5349 122.08 68.5444 122.029C68.5444 121.928 68.554 121.826 68.554 121.724C68.5635 121.267 68.5539 120.86 68.5062 120.504C68.4967 120.411 68.4871 120.317 68.4681 120.233C68.449 120.097 68.4203 119.97 68.3917 119.851C68.3822 119.8 68.3631 119.749 68.3535 119.707C68.344 119.656 68.3249 119.614 68.3058 119.563C68.2963 119.521 68.2772 119.478 68.2581 119.436C68.22 119.351 68.1913 119.266 68.1531 119.182C68.1531 119.173 68.1532 119.165 68.1436 119.156C68.1245 119.114 68.1055 119.08 68.0864 119.038C68.0673 119.004 68.0482 118.978 68.0291 118.944C68.0291 118.936 68.0196 118.927 68.01 118.919C68.0005 118.902 67.9909 118.885 67.9814 118.868C67.9623 118.834 67.9432 118.809 67.9146 118.775C67.8669 118.707 67.8096 118.648 67.7619 118.588C67.7333 118.563 67.7046 118.537 67.676 118.512C67.6474 118.487 67.6188 118.461 67.5901 118.444C67.5711 118.427 67.5424 118.41 67.5233 118.393C67.5233 118.393 67.5138 118.393 67.5042 118.385C67.4947 118.385 67.4852 118.368 67.4661 118.368C67.3134 118.283 67.1702 118.249 67.0271 118.249C66.9699 118.249 66.9222 118.249 66.8745 118.266C66.655 118.317 66.4259 118.283 66.1969 118.207C65.6244 118.012 65.109 117.546 65.109 117.546C65.109 117.546 65.0995 117.453 65.0995 117.292C65.0995 117.215 65.0995 117.131 65.0995 117.037C65.0995 116.995 65.0995 116.961 65.0995 116.919C65.1091 116.783 65.1282 116.631 65.1472 116.461C65.2427 115.876 65.4812 115.164 66.0252 114.613C66.5023 114.13 67.2275 113.774 68.3154 113.757C68.4681 113.757 68.6207 113.757 68.7639 113.766C71.2163 113.944 72.7718 115.986 72.9531 118.207C73.0103 118.961 72.9149 119.733 72.6382 120.453L72.6573 120.444Z" fill="#43ABC4"/>
<path d="M70.8381 121.233C70.8488 120.872 70.6311 120.575 70.3519 120.568C70.0726 120.562 69.8376 120.849 69.8269 121.209C69.8162 121.569 70.0339 121.867 70.3131 121.873C70.5924 121.88 70.8274 121.593 70.8381 121.233Z" fill="#1C5360"/>
<path d="M71.1973 122.572C70.4625 123.216 69.6609 123.512 69.117 123.462C68.6876 123.419 68.4299 123.165 68.4776 122.682C68.783 120.038 68.1341 118.741 67.4661 118.368C67.8574 118.08 68.1627 117.885 68.1627 117.885L69.012 118.58C69.012 118.58 69.241 120.631 69.0788 122.148C69.0216 122.673 69.5464 123.131 70.1571 123.046C70.453 123.004 70.806 122.868 71.1973 122.589V122.572Z" fill="#1C5360"/>
<path d="M63.6968 121.623H63.5059C63.315 121.606 63.1624 121.47 63.1719 121.309L63.2387 119.707C63.2387 119.546 63.4105 119.427 63.6014 119.436H63.7922C63.9831 119.453 64.1357 119.589 64.1262 119.75L64.0594 121.351C64.0594 121.512 63.8876 121.631 63.6968 121.623Z" fill="#2F7C89"/>
<path d="M66.6264 121.894H66.4355C66.2447 121.877 66.092 121.741 66.1016 121.58L66.1684 119.978C66.1684 119.817 66.3401 119.699 66.531 119.707H66.7218C66.9126 119.724 67.0654 119.86 67.0558 120.021L66.989 121.623C66.989 121.784 66.8172 121.902 66.6264 121.894Z" fill="#2F7C89"/>
<g style="mix-blend-mode:multiply" opacity="0.58">
<path d="M68.6112 119.411C68.6112 119.411 67.008 121.309 64.4506 121.428C63.6872 121.462 63.2101 121.275 62.9143 121.004C62.8952 120.639 62.857 120.309 62.7998 120.029C62.7043 119.521 62.8284 119.004 63.1338 118.58C65.0614 117.385 68.6208 119.427 68.6208 119.427L68.6112 119.411Z" fill="#F78161"/>
</g>
<path d="M68.7162 119.724C68.1818 119.936 67.4756 120.097 66.6645 120.148C65.548 120.216 64.2311 120.071 62.857 119.546C62.4849 119.402 62.2081 119.249 62.0173 119.088C60.6908 118.003 63.2673 116.732 63.2673 116.732C63.5822 116.622 63.8972 116.546 64.1835 116.495C65.0041 116.359 65.7389 116.461 66.3878 116.681C67.6379 117.114 68.5349 118.012 69.0311 118.639C69.3269 119.012 69.1838 119.529 68.7066 119.716L68.7162 119.724Z" fill="#98EBF4"/>
<path d="M66.55 119.987C66.6073 120.046 66.6359 120.105 66.6645 120.148C65.548 120.216 64.2312 120.072 62.857 119.546C62.4849 119.402 62.2081 119.249 62.0173 119.088C62.3799 119.021 63.0097 118.902 63.525 118.775C64.298 118.588 63.0384 118.105 63.067 117.453C63.0956 116.8 64.8515 117.52 65.1568 117.241C65.3286 117.08 64.7369 116.758 64.1835 116.503C65.0041 116.368 65.7389 116.469 66.3878 116.69C66.426 116.783 66.5023 116.868 66.6645 116.944C67.1703 117.181 67.428 116.978 67.657 117.639C67.886 118.3 65.8439 118.224 64.8228 118.182C63.8017 118.139 65.5576 118.868 66.5404 119.995L66.55 119.987Z" fill="#C5FCFF"/>
<path d="M53.0854 131.767C53.0854 131.767 54.5454 133.793 53.2763 134.437C52.3602 134.903 51.5109 135.293 51.2723 134.624C51.1101 134.149 52.0357 133.971 52.2934 133.751C52.551 133.53 51.091 131.513 53.0854 131.767Z" fill="#F4CAAE"/>
<path d="M50.3848 131.979C53.0472 133.336 60.9103 137.565 63.649 139.039C64.1643 139.319 64.2979 139.929 63.9448 140.362L63.649 140.718C63.3341 141.099 62.7425 141.209 62.2844 140.972L60.1087 139.828C59.7652 139.65 59.3262 139.658 59.0018 139.862L57.4654 140.811C56.8833 141.167 56.1772 141.362 55.471 141.362H53.8965C52.4555 141.345 51.1769 140.557 50.6616 139.362L50.4612 138.895C50.1844 138.26 50.1653 137.556 50.3848 136.904L50.5375 136.471C50.7952 135.734 50.5947 134.929 50.0222 134.344L49.087 133.395C48.7912 133.098 48.7435 132.657 48.9821 132.318C49.2683 131.895 49.8886 131.751 50.3752 131.996L50.3848 131.979Z" fill="#43ABC4"/>
<path d="M48.3905 132.107C48.3905 132.107 47.1118 133.42 48.0947 134.319C49.0776 135.226 48.8485 134.107 48.8485 134.107L49.3829 132.564L49.6406 132.124C49.6406 132.124 48.9058 131.446 48.3905 132.107Z" fill="#F78161"/>
<path d="M48.6386 132.556C48.6386 132.556 47.3599 133.869 48.3428 134.768C49.3257 135.666 49.0967 134.556 49.0967 134.556L49.631 133.013L49.8887 132.573C49.8887 132.573 49.1539 131.895 48.6386 132.556Z" fill="#F78161"/>
<path d="M49.3734 133.013C49.3734 133.013 48.0947 134.327 49.0776 135.225C50.0604 136.124 49.8315 135.014 49.8315 135.014L50.3658 133.471L50.6234 133.03C50.6234 133.03 49.8887 132.352 49.3734 133.013Z" fill="#F78161"/>
<path d="M48.9058 131.674C48.9058 131.674 51.4537 129.276 52.9232 131.072C54.7554 133.327 51.864 133.717 51.3582 133.937C50.8525 134.158 50.3372 134.81 50.5757 135.259C50.8143 135.709 49.5547 136.132 49.5833 135.022C49.612 133.912 50.1177 133.48 50.1177 133.48C50.1177 133.48 48.3714 133.454 48.381 132.785C48.3905 132.115 48.9058 131.683 48.9058 131.683V131.674Z" fill="#F4CAAE"/>
<path d="M78.5259 147.354C77.3044 148.151 74.9474 149.702 74.2031 150.337C73.1821 151.21 69.5177 158.923 68.4585 161.788C68.4585 161.788 68.4585 161.796 68.4489 161.813C67.3611 164.669 61.8359 167.67 61.8359 167.67L61.0821 168.051L59.622 168.797C58.6869 169.272 57.5895 168.848 57.2364 168.051C57.141 167.839 57.1028 167.602 57.1314 167.348L57.3223 165.763C57.4177 165 58.1621 164.424 59.0209 164.449C59.2976 164.449 59.5648 164.441 59.832 164.407C61.6737 164.161 63.2578 162.915 64.5937 161.245C67.6569 157.431 69.4891 151.371 70.4625 149.592C71.4358 147.803 74.5371 145.973 76.7033 144.862C76.98 144.718 77.2759 144.659 77.5621 144.667C78.2778 144.676 78.9458 145.108 79.1366 145.769C79.1653 145.854 79.1843 145.939 79.1843 146.023C79.232 146.54 78.9744 147.032 78.5164 147.346L78.5259 147.354Z" fill="#328C9B"/>
<path d="M62.6757 166.347V166.373C62.6185 166.915 62.275 167.407 61.7406 167.686C61.5306 167.797 61.3016 167.924 61.063 168.051C58.5915 169.441 54.7554 171.831 52.0167 172.136C51.9213 172.145 51.8163 172.153 51.7209 172.162C51.6827 172.162 51.6254 172.153 51.5395 172.119C51.4727 172.094 51.3868 172.051 51.2819 172C50.8715 171.797 50.194 171.585 49.3638 171.382C46.043 170.56 40.1934 169.695 38.2372 168.466C38.0272 168.331 36.6054 166.39 36.4718 166.195C36.3191 165.974 36.3096 163.152 36.2714 162.881C36.0424 160.754 37.7028 154.346 42.7604 149.354C43.3043 148.82 44.1631 148.642 44.917 148.913L54.0778 152.202C54.2592 152.27 54.4309 152.363 54.5741 152.465C55.0321 152.804 55.3088 153.321 55.2707 153.871C55.1084 156.711 55.2039 163.635 59.8034 164.406C60.0801 164.457 60.3665 164.474 60.6814 164.474C61.4448 164.474 62.1127 164.847 62.4467 165.398C62.6089 165.678 62.6949 166 62.6567 166.339L62.6757 166.347Z" fill="#43ABC4"/>
<path d="M51.5491 172.128C50.0318 171.551 41.4149 165.33 38.8479 163.712C38.638 163.576 39.7449 165.712 39.6113 165.525C40.6324 164.881 40.8137 164.907 41.3767 164.669C42.3882 164.245 45.1079 165.618 45.1079 165.618L47.4553 166.212C48.9058 166.576 50.0318 167.602 50.3944 168.898C50.7761 170.263 51.2724 171.839 51.5396 172.128H51.5491Z" fill="#1C5360"/>
<path d="M43.581 167.365C43.581 167.365 47.6366 164.991 49.3065 168.797C49.3065 168.797 50.3276 166.89 49.3543 165.949C48.381 165.008 44.6211 165.61 43.581 167.365Z" fill="#43ABC4"/>
<path d="M52.446 136.658L52.1216 137.378C52.0166 137.607 52.0166 137.87 52.1216 138.099L52.6083 139.133C52.7896 139.506 53.2094 139.735 53.6675 139.709L55.3756 139.607C55.7096 139.59 56.0245 139.429 56.2058 139.175L56.702 138.497C56.9883 138.107 56.9119 137.59 56.5207 137.277L55.4806 136.438C55.3184 136.302 55.1084 136.217 54.8889 136.2L53.553 136.056C53.0663 136.005 52.6083 136.251 52.4269 136.649L52.446 136.658Z" fill="#98EBF4"/>
<path d="M84.7286 148.719C84.6999 149.159 84.4614 149.617 83.9366 149.981C83.8984 150.007 83.8602 150.032 83.8221 150.049L79.1176 152.592L76.7701 153.863L76.5506 153.973C75.6822 154.414 74.6325 154.558 73.6496 154.363C73.2966 154.295 72.9149 154.177 72.6 154.024C72.3423 153.889 72.1514 153.719 72.0274 153.533C71.3689 152.575 72.4282 151.168 73.8786 151.668C74.2603 151.812 74.6993 151.744 75.0238 151.515C76.4456 150.609 80.2627 148.176 81.7322 147.244C83.259 146.345 84.7954 147.49 84.7191 148.702L84.7286 148.719Z" fill="#5CCEE0"/>
<path d="M72.0274 122.605C72.0274 122.605 67.905 124.351 67.7046 128.538C67.5042 132.725 70.6532 135.166 70.6532 135.166C70.6532 135.166 67.5137 126.275 74.7756 124.004L72.0274 122.605Z" fill="#1C5360"/>
<path d="M68.4585 161.788C68.4585 161.788 68.4585 161.796 68.4489 161.813C67.3611 164.669 61.8359 167.67 61.8359 167.67L61.0821 168.051C58.6106 169.441 54.7745 171.831 52.0358 172.136C51.9403 172.145 51.8354 172.153 51.7399 172.162C51.7018 172.162 51.6445 172.153 51.5586 172.119C51.4918 172.094 51.4059 172.051 51.301 172.001C50.8906 171.797 50.2131 171.585 49.3829 171.382C44.4207 167.771 49.068 156.787 49.068 156.787L54.6027 152.473C55.0608 152.812 55.3375 153.329 55.2993 153.88C55.1371 156.719 55.2325 163.644 59.832 164.415C61.6737 164.169 63.2578 162.923 64.5938 161.254L68.4489 161.788H68.4585Z" fill="#328C9B"/>
<path d="M76.0258 125.674C76.4647 126.352 76.5029 127.174 76.1308 127.877L74.3845 131.225C73.5447 132.835 72.3137 134.268 70.7773 135.429L67.7428 137.717C66.5977 138.582 64.8801 138.48 63.8781 137.497C62.857 136.497 62.9811 134.963 64.1357 134.081L66.1206 132.581C67.5901 131.462 68.783 130.089 69.6132 128.555L71.1591 125.708C72.2183 124.038 74.9475 124.029 76.0258 125.682V125.674Z" fill="#F23E30"/>
<path d="M59.9657 137.658C59.9657 137.658 58.687 138.972 59.6698 139.87C60.6527 140.768 60.4237 139.658 60.4237 139.658L60.9581 138.116L61.2157 137.675C61.2157 137.675 60.481 136.997 59.9657 137.658Z" fill="#F78161"/>
<path d="M60.2042 138.107C60.2042 138.107 58.9255 139.421 59.9084 140.319C60.8913 141.218 60.6623 140.107 60.6623 140.107L61.1966 138.565L61.4543 138.124C61.4543 138.124 60.7195 137.446 60.2042 138.107Z" fill="#F78161"/>
<path d="M60.9485 138.565C60.9485 138.565 59.6698 139.879 60.6527 140.777C61.6356 141.675 61.4066 140.565 61.4066 140.565L61.941 139.023L62.1986 138.582C62.1986 138.582 61.4638 137.904 60.9485 138.565Z" fill="#F78161"/>
<path d="M60.4713 137.217C60.4713 137.217 63.0192 134.819 64.4888 136.615C66.321 138.87 63.4295 139.26 62.9238 139.48C62.418 139.701 61.9027 140.353 62.1413 140.802C62.3799 141.252 61.1203 141.675 61.1489 140.565C61.1775 139.455 61.6833 139.022 61.6833 139.022C61.6833 139.022 59.937 138.997 59.9465 138.328C59.9561 137.658 60.4713 137.226 60.4713 137.226V137.217Z" fill="#F4CAAE"/>
<path d="M32.731 171.848C32.731 171.848 34.0956 179.984 42.2068 179.62C50.3276 179.255 38.447 173.28 38.447 173.28L32.7215 171.848H32.731Z" fill="#1C5360"/>
<path d="M42.8558 179.569C42.8558 179.569 38.1895 179.857 37.302 177.832L39.9167 172.306L42.8558 179.578V179.569Z" fill="#1C5360"/>
<path d="M49.421 170.161L49.4688 171.924C49.5165 173.645 48.7912 175.569 47.5125 177.086C44.2871 180.934 39.6113 180.264 39.4299 175.925L39.3631 174.187C39.2868 172.407 40.0598 170.407 41.4053 168.848L41.4244 168.822C44.6879 165.051 49.297 165.822 49.421 170.161Z" fill="#98EBF4"/>
<path d="M47.6366 171.738L47.6557 172.526C47.6748 173.289 47.3504 174.145 46.7874 174.823C45.356 176.535 43.2661 176.238 43.1898 174.306L43.1611 173.534C43.1325 172.738 43.4665 171.848 44.0677 171.153H44.0772C45.5277 169.466 47.5793 169.805 47.6366 171.738Z" fill="#1C5360"/>
<path d="M49.1825 139.845L57.2174 143.82C58.8301 144.616 59.4217 146.506 58.5152 147.981L54.4882 154.533C53.7057 155.812 52.3984 156.728 50.8716 157.092L47.9324 157.787C45.6231 158.33 43.2184 157.211 42.2832 155.151L41.5866 153.617C40.8519 152.015 40.8423 150.202 41.5484 148.6L44.7452 141.345C45.4609 139.718 47.5125 139.031 49.1825 139.853V139.845Z" fill="#1C5360"/>
<path d="M57.7804 147.083L53.7535 153.634C52.971 154.906 51.6636 155.829 50.1368 156.194L47.1977 156.88C45.1556 157.363 43.0467 156.541 41.9302 154.922C41.7775 154.711 41.6534 154.482 41.5485 154.244L40.8519 152.71C40.1171 151.109 40.1076 149.295 40.8137 147.693L44.0105 140.438C44.7262 138.811 46.7778 138.124 48.4478 138.955L52.0549 140.735L56.4826 142.93C58.0953 143.726 58.6869 145.616 57.7804 147.091V147.083Z" fill="#43ABC4"/>
<path d="M52.3888 141.302C52.3888 141.302 47.1881 138.768 45.6518 140.523C44.1154 142.277 41.2431 147.778 41.1859 150.439C41.1382 152.634 41.7298 154.372 41.9397 154.914C41.787 154.702 41.6629 154.473 41.558 154.236L40.8614 152.702C40.1266 151.1 40.1171 149.286 40.8232 147.684L44.02 140.429C44.7357 138.802 46.7874 138.116 48.4573 138.946L52.0644 140.726C52.2552 141.065 52.3984 141.302 52.3984 141.302H52.3888Z" fill="#98EBF4"/>
<path d="M51.9212 151.507C53.1522 151.168 54.1828 150.396 54.7553 149.371L54.8317 149.227C55.0607 148.837 54.6504 148.388 54.1733 148.506L49.0679 149.786C48.0946 150.032 47.2835 150.642 46.8541 151.456L46.5201 152.092C46.3102 152.49 46.7301 152.914 47.2072 152.787L51.9212 151.507Z" fill="#98EBF4"/>
<path d="M42.2928 147.845C41.8252 146.922 41.7966 145.871 42.2356 144.93L42.2928 144.803C42.455 144.438 43.0276 144.413 43.2184 144.769L45.2415 148.523C45.6327 149.244 45.6423 150.074 45.2892 150.803L45.0124 151.371C44.8407 151.727 44.2681 151.727 44.0964 151.371L42.3024 147.845H42.2928Z" fill="#98EBF4"/>
<path d="M78.5259 147.354C77.3045 148.151 74.9475 149.702 74.2032 150.337C73.1821 151.21 69.5177 158.923 68.4585 161.788C67.3993 164.652 61.8359 167.67 61.8359 167.67L61.0821 168.051C58.6106 169.441 54.7745 171.831 52.0358 172.136C51.7972 172.136 51.6349 172.128 51.5681 172.119C51.4727 172.119 51.3868 172.068 51.3105 172.001C50.862 171.594 50.7761 170.314 50.7761 170.314C50.7761 170.314 54.1923 169.229 57.246 168.06C58.8109 167.458 60.271 166.839 61.1298 166.322C61.5688 166.059 62.0268 165.746 62.4944 165.398C64.7274 163.737 67.0748 161.305 67.5138 160.211C68.0386 158.889 71.9606 150.956 73.2489 149.422C74.5276 147.888 78.8313 145.744 78.8313 145.744L79.1749 145.778C79.2035 145.862 79.2226 145.947 79.2226 146.032C79.2703 146.549 79.0126 147.04 78.545 147.346L78.5259 147.354Z" fill="#5CCEE0"/>
<path d="M49.297 168.797C46.9973 163.364 41.7775 169.17 41.7775 169.17C41.7775 169.153 41.7775 169.127 41.7775 169.11C40.6705 170.407 39.8785 171.992 39.3727 173.619C38.8479 175.297 37.1493 176.323 35.3839 176.323C34.6014 176.323 33.7999 176.12 33.0746 175.679C31.7482 174.865 31.0516 173.433 31.3569 172.026C33.1509 163.729 41.1476 163.101 41.1476 163.101L46.0621 164.686C46.4724 164.737 46.8828 164.839 47.2645 164.966C47.8179 165.144 48.3237 165.364 48.7149 165.551C49.0298 165.695 49.2779 165.813 49.421 165.856C49.526 165.89 49.6119 165.949 49.6692 166.034C50.1558 166.703 49.2779 168.797 49.2779 168.797H49.297Z" fill="#43ABC4"/>
<path d="M49.297 168.797C46.9973 163.364 41.7775 169.17 41.7775 169.17C41.7775 169.153 41.7775 169.127 41.7775 169.11C40.6705 170.407 39.8785 171.992 39.3727 173.619C38.8479 175.298 37.1493 176.323 35.3839 176.323C34.6014 176.323 33.7999 176.12 33.0746 175.679C31.7482 174.865 31.0516 173.433 31.3569 172.026C32.2349 174.331 33.9621 174.264 35.4603 173.628C36.9585 172.992 38.1131 171.797 38.6856 170.399C40.9663 164.83 47.0736 164.974 47.0736 164.974L47.2645 164.958C47.8179 165.136 48.3237 165.356 48.7149 165.542C49.0298 165.686 49.2779 165.805 49.421 165.847C49.526 165.881 49.6119 165.941 49.6692 166.025C50.1558 166.695 49.2779 168.788 49.2779 168.788L49.297 168.797Z" fill="#328C9B"/>
<path d="M72.6573 120.444C72.3328 121.3 71.8366 121.978 71.3022 122.478C71.2354 122.538 71.1972 122.572 71.1972 122.572C71.1972 122.572 72.0943 119.749 71.4167 117.478C71.0637 116.274 70.2621 115.223 68.6494 114.834C68.5349 114.808 68.4108 114.783 68.2867 114.757C68.2867 114.757 67.3134 114.503 66.0252 114.605C64.9182 114.69 63.5823 115.045 62.4181 116.063C64.2121 113.122 68.2486 113.672 68.7734 113.757C71.2259 113.935 72.7813 115.978 72.9626 118.198C73.0199 118.953 72.9244 119.724 72.6477 120.444H72.6573Z" fill="#98EBF4"/>
<path d="M84.7286 148.719C84.7 149.159 84.4614 149.617 83.9366 149.981C83.8984 150.007 83.8603 150.032 83.8221 150.049L79.1176 152.592L76.7701 153.863L76.5506 153.973C75.6823 154.414 74.6325 154.558 73.6497 154.363C73.2966 154.295 72.9149 154.177 72.6 154.024C72.3423 153.889 72.1515 153.719 72.0274 153.533L72.2183 153.109C72.2183 153.109 74.5753 153.804 76.1498 153.109C77.7243 152.414 84.6618 148.363 84.6618 148.363L84.7286 148.702V148.719Z" fill="#328C9B"/>
<path d="M220.472 91.8397C220.481 88.3902 217.666 86.9917 214.212 88.7461C210.758 90.5005 207.933 94.7806 207.923 98.2641C207.923 100.146 208.62 101.51 210.023 102.341L213.783 104.01L214.26 101.934L213.926 101.485C214.012 101.442 214.088 101.408 214.174 101.366C217.628 99.5862 220.453 95.2976 220.462 91.8481L220.472 91.8397Z" fill="#1C5360"/>
<path d="M205.166 100.527C205.175 97.0777 202.36 95.6792 198.906 97.4336C195.451 99.188 192.627 103.468 192.617 106.952C192.617 108.833 193.314 110.198 194.716 111.028L198.476 112.698L198.953 110.621L198.619 110.172C198.705 110.13 198.782 110.096 198.868 110.054C202.322 108.274 205.146 103.985 205.156 100.536L205.166 100.527Z" fill="#1C5360"/>
<path d="M225.883 48.9034V89.4245C225.883 90.6958 225.3 91.8908 224.289 92.7469C224.003 92.9927 223.678 93.213 223.325 93.3995L220.949 94.6454L219.651 95.3234L216.703 96.8659L212.017 99.3238L208.82 101.002L208.658 101.087L204.669 103.18L202.341 104.409L196.883 107.274L193.075 109.274L170.068 121.335C169.41 121.682 168.694 121.885 167.969 121.953C166.919 122.055 165.841 121.86 164.896 121.394L138.74 108.393C137.098 107.579 136.077 106.036 136.077 104.367V64.5321C136.077 63.5828 136.402 62.676 136.993 61.9132C137.413 61.3623 137.976 60.8876 138.654 60.5401L193.266 32.1982C194.879 31.3592 196.873 31.3592 198.486 32.1898L223.287 44.9284C223.869 45.225 224.365 45.6149 224.766 46.0641C224.986 46.3099 225.176 46.5726 225.339 46.8608C225.692 47.488 225.883 48.1999 225.883 48.9203V48.9034Z" fill="#43ABC4"/>
<path d="M202.904 99.7305C199.45 101.485 196.625 105.765 196.615 109.248C196.606 112.732 199.421 114.13 202.875 112.342C206.33 110.562 209.154 106.274 209.164 102.824C209.174 99.3745 206.358 97.9761 202.904 99.7305Z" fill="#65CEE0"/>
<path d="M203.562 103.511C201.94 104.333 200.614 106.341 200.604 107.977C200.595 109.613 201.921 110.265 203.543 109.435C205.166 108.604 206.492 106.587 206.502 104.968C206.502 103.35 205.185 102.697 203.562 103.511Z" fill="#1C5360"/>
<path d="M218.21 91.0347C214.756 92.7891 211.931 97.0692 211.922 100.553C211.912 104.036 214.727 105.434 218.182 103.646C221.636 101.866 224.461 97.5777 224.47 94.1282C224.48 90.6787 221.665 89.2803 218.21 91.0347Z" fill="#65CEE0"/>
<path d="M218.869 94.8233C217.246 95.6454 215.92 97.6541 215.911 99.2899C215.901 100.926 217.227 101.578 218.85 100.748C220.472 99.9086 221.798 97.8999 221.808 96.2811C221.817 94.6623 220.491 94.0096 218.869 94.8233Z" fill="#1C5360"/>
<path d="M225.883 52.6494V55.5395L164.218 87.3055L162.806 85.1443L225.883 52.6494Z" fill="#7BDEEF"/>
<path d="M225.883 57.7432V60.4723L164.753 91.9586L163.417 89.9245L225.883 57.7432Z" fill="#7BDEEF"/>
<path d="M225.883 62.8284V65.4049L165.278 96.62L164.028 94.6961L225.883 62.8284Z" fill="#7BDEEF"/>
<path d="M225.883 67.9221V70.3292L165.812 101.273L164.629 99.4762L225.883 67.9221Z" fill="#7BDEEF"/>
<path d="M225.883 73.0159V75.2619L166.337 105.935L165.239 104.256L225.883 73.0159Z" fill="#7BDEEF"/>
<path d="M225.883 78.1013V80.1948L166.871 110.596L165.85 109.028L225.883 78.1013Z" fill="#7BDEEF"/>
<path d="M225.883 83.1948V85.1187L167.396 115.249L166.461 113.808L225.883 83.1948Z" fill="#7BDEEF"/>
<path d="M224.499 47.2759L160.936 80.5674C160.65 80.72 160.296 80.72 160.001 80.5759L136.574 69.0408C136.278 68.8967 136.087 68.6086 136.087 68.3119V64.5065C136.087 63.5572 136.411 62.6503 137.003 61.8875C137.423 61.3366 137.986 60.862 138.663 60.5145L193.276 32.1726C194.888 31.3335 196.883 31.3335 198.495 32.1641L223.297 44.9027C223.879 45.1994 224.375 45.5892 224.776 46.0384C225.119 46.4283 224.986 47.0131 224.499 47.2674V47.2759Z" fill="#7BDEEF"/>
<path d="M167.969 77.3213V121.936C166.919 122.038 165.841 121.843 164.896 121.377L138.74 108.375C137.098 107.562 136.077 106.019 136.077 104.35V64.5149C136.077 63.5657 136.402 62.6588 136.993 61.896L164.476 72.5835C166.594 73.4057 167.959 75.2618 167.959 77.3213H167.969Z" fill="#2E7C89"/>
<path d="M157.863 121.402C157.873 117.953 155.057 116.554 151.603 118.309C148.149 120.063 145.324 124.343 145.315 127.827C145.315 129.708 146.011 131.073 147.414 131.903L151.174 133.573L151.651 131.496L151.317 131.047C151.403 131.005 151.479 130.971 151.565 130.929C155.019 129.149 157.844 124.86 157.853 121.411L157.863 121.402Z" fill="#1C5360"/>
<path d="M164.648 100.281V117.936C164.648 118.893 164.066 119.766 163.131 120.241L138.625 132.53C138.119 132.785 137.547 132.895 136.984 132.869C136.526 132.844 136.077 132.734 135.667 132.522L118.347 123.614C117.431 123.14 116.859 122.267 116.859 121.326V110.867C116.859 109.943 117.402 109.087 118.28 108.613L122.87 106.112C123.271 105.892 123.605 105.604 123.844 105.248L130.352 95.8994C130.447 95.7723 130.543 95.6452 130.657 95.535C130.857 95.34 131.087 95.1705 131.344 95.0265L142.662 88.958C143.597 88.458 144.761 88.4495 145.706 88.9411L162.758 97.7895L163.169 98.0013C163.169 98.0013 163.197 98.0183 163.216 98.0268C164.104 98.5099 164.648 99.3659 164.648 100.29V100.281Z" fill="#8BE9F2"/>
<path d="M155.592 120.605C152.137 122.36 149.313 126.64 149.303 130.123C149.294 133.607 152.109 135.005 155.563 133.217C159.018 131.437 161.842 127.149 161.852 123.699C161.861 120.25 159.046 118.851 155.592 120.605Z" fill="#65CEE0"/>
<path d="M156.26 124.386C154.638 125.208 153.311 127.216 153.302 128.852C153.302 130.488 154.618 131.14 156.241 130.31C157.863 129.479 159.189 127.462 159.199 125.843C159.208 124.225 157.882 123.572 156.26 124.386Z" fill="#1C5360"/>
<path d="M164.648 100.281L164.686 107.257L139.016 119.783C137.499 120.529 136.583 121.97 136.64 123.513L136.984 132.87C136.526 132.844 136.077 132.734 135.667 132.522L118.347 123.614C117.431 123.14 116.859 122.267 116.859 121.326V110.867C116.859 109.943 117.402 109.087 118.28 108.613L122.87 106.113C123.271 105.892 123.605 105.604 123.844 105.248L130.686 95.3911L148.74 103.926L162.758 97.7812L163.169 97.9931C163.169 97.9931 163.197 98.01 163.216 98.0185C164.104 98.5016 164.648 99.3576 164.648 100.281Z" fill="#43ABC4"/>
<path d="M145.2 107.206L140.133 114.571C139.598 115.351 138.463 115.605 137.566 115.147L133.844 113.223L127.871 110.138L126.506 109.435C125.599 108.969 125.294 107.926 125.828 107.13L130.743 99.7728C131.268 98.9846 132.413 98.7134 133.31 99.1711L134.379 99.7135L140.209 102.68L144.522 104.875C145.448 105.35 145.753 106.401 145.2 107.206Z" fill="#1C5360"/>
<path opacity="0.4" d="M134.913 112.884C134.445 112.986 134.092 113.096 133.844 113.232L127.871 110.147C127.365 108.392 133.081 108.918 136.783 108.723C140.772 108.511 134.904 104.138 134.207 100.807C134.092 100.256 134.169 99.9083 134.379 99.7134L140.209 102.68C139.818 102.731 139.36 102.849 138.892 103.095C137.719 103.722 140.295 105.383 141.24 108.299C142.185 111.215 138.892 112.045 134.913 112.884Z" fill="#65CEE0"/>
<path d="M158.035 103.002L157.434 108.765C157.414 108.909 157.319 109.045 157.176 109.121L153.884 110.723L149.122 113.037L144.465 115.308C144.017 115.529 143.52 115.071 143.797 114.681L144.694 113.376L145.897 111.638L146.545 110.706L148.874 107.333L149.198 106.867C149.322 106.689 149.456 106.528 149.609 106.375C149.8 106.172 150.009 105.994 150.238 105.833C150.467 105.672 150.716 105.528 150.983 105.409L152.319 104.807L154.828 103.68L157.319 102.561C157.672 102.4 158.082 102.654 158.044 103.002H158.035Z" fill="#1C5360"/>
<path opacity="0.4" d="M153.874 110.723L149.112 113.037C149.112 113.037 149.065 113.02 149.046 113.011C146.068 111.901 153.903 108.714 154.838 107.045C155.773 105.375 153.273 105.782 152.3 104.799L154.809 103.671C154.552 103.96 154.37 104.214 154.37 104.332C154.37 104.748 156.718 104.96 157.415 106.002C158.073 106.968 155.067 108.841 153.865 110.723H153.874Z" fill="#65CEE0"/>
<path opacity="0.4" d="M152.49 107.257C152.071 108.197 147.881 109.57 146.526 110.706L148.855 107.333C150.086 107.248 150.219 107.087 149.58 106.375C149.771 106.172 149.981 105.994 150.21 105.833C150.21 105.833 150.219 105.841 150.229 105.85C151.078 106.426 152.949 106.223 152.481 107.265L152.49 107.257Z" fill="#65CEE0"/>
<path d="M162.701 98.2472L150.42 103.697C149.227 104.231 147.815 104.197 146.65 103.604L130.667 95.5181C130.867 95.3232 131.096 95.1537 131.354 95.0096L142.671 88.9412C143.606 88.4411 144.771 88.4327 145.715 88.9242L162.72 97.7472L162.701 98.2388V98.2472Z" fill="#B4F6F9"/>
<path d="M31.0898 33.2753L31.2722 33.1812C31.1666 33.2496 31.109 33.301 31.109 33.301L31.0898 33.2753Z" fill="#1C5360"/>
<path d="M39.2201 35.5372L38.6284 36.2491C38.5139 36.3847 38.4566 36.5458 38.4566 36.7153V58.4294C38.4566 59.7939 37.6455 61.0653 36.3191 61.7603L6.44124 77.4568C6.16451 77.6009 6.00226 77.8636 6.00226 78.1348C6.00226 78.2281 6.02141 78.3298 6.05958 78.423C6.33631 79.0417 5.6683 79.6689 4.9526 79.4655C3.65481 79.0841 2.70058 78.6518 1.99443 78.2196C1.12605 77.8551 0.42944 77.1856 0.143162 76.3126C0.00956588 76.0075 0.0095519 75.8125 0.0095519 75.8125C0.0095519 75.8125 0.0191131 75.7956 0.0286557 75.7871C0.00957054 75.6685 0 75.5498 0 75.4227V51.7931C0 50.4286 0.81111 49.1573 2.13753 48.4623L31.0898 33.2573L31.2711 33.1641C31.2711 33.1641 31.2806 33.1556 31.2901 33.1556L31.8818 32.8505C32.4162 32.6216 33.2464 32.4098 34.382 32.4776C34.6396 32.4521 34.8877 32.4521 35.1262 32.4776C35.3934 32.5454 35.6702 32.6301 35.966 32.7234C35.966 32.7234 35.9756 32.7234 35.9851 32.7234C36.6531 32.9268 37.3688 33.1895 38.0558 33.5031C38.1799 33.5624 38.2944 33.6218 38.4185 33.6811C38.5234 33.7319 38.6284 33.7828 38.7238 33.8421C38.9147 34.0964 39.1055 34.3761 39.2964 34.6812C39.4681 34.9524 39.4395 35.2829 39.2295 35.5372H39.2201Z" fill="#1C5360"/>
<path d="M38.4471 37.1901C33.8857 38.2664 24.5245 38.4868 24.5245 38.4868L32.0726 33.0117C32.8456 32.7489 33.6376 32.5455 34.3629 32.4947C34.6205 32.4692 34.8686 32.4692 35.1072 32.4947C35.3744 32.5625 35.6511 32.6472 35.9469 32.7404C35.9469 32.7404 35.9565 32.7404 35.966 32.7404C36.634 32.9439 37.3497 33.2066 38.0367 33.5202C38.1608 33.5795 38.2753 33.6388 38.3994 33.6982C38.5043 33.749 38.6093 33.7999 38.7047 33.8592C39.5445 34.3169 40.2793 34.8678 40.7564 35.5373C41.2526 36.2408 40.2125 36.7832 38.4471 37.1985V37.1901Z" fill="#1C5360"/>
<path d="M58.5151 32.5285C39.6208 42.2753 24.1618 66.2778 24.1618 85.8476C24.1618 105.417 39.6208 113.342 58.5151 103.434C77.4094 93.5348 92.8684 69.5408 92.8684 50.1151C92.8684 30.6893 77.4094 22.7733 58.5151 32.5285Z" fill="#1C5360"/>
<path d="M62.2654 34.8168C43.371 44.5636 27.912 68.5661 27.912 88.1359C27.912 107.706 43.371 115.63 62.2654 105.722C81.1597 95.8231 96.6187 71.8291 96.6187 52.4034C96.6187 32.9777 81.1597 25.0616 62.2654 34.8168Z" fill="#FFDCDC"/>
<path d="M65.319 35.2407C46.4247 44.9874 30.9657 68.9899 30.9657 88.5597C30.9657 108.13 46.4247 116.054 65.319 106.146C84.2133 96.247 99.6723 72.253 99.6723 52.8272C99.6723 33.4015 84.2133 25.4854 65.319 35.2407Z" fill="#FBA7A6"/>
<path d="M65.8725 40.9955C50.1558 49.1065 37.2924 69.0662 37.2924 85.356C37.2924 101.646 50.1558 108.231 65.8725 99.9931C81.5891 91.755 94.4525 71.7953 94.4525 55.6326C94.4525 39.4699 81.5891 32.8845 65.8725 40.9955Z" fill="#FFCCCC"/>
<path d="M67.8764 74.6346C66.7122 75.2364 65.7579 76.7196 65.7579 77.9231C65.7579 79.1266 66.7122 79.6182 67.8764 79.008C69.0406 78.3977 69.9948 76.9145 69.9948 75.7195C69.9948 74.5244 69.0406 74.0329 67.8764 74.6346Z" fill="#1C5360"/>
<path d="M67.3707 77.2281L68.9833 55.1665" stroke="#1C5360" stroke-width="10" stroke-miterlimit="10" stroke-linecap="round"/>
<path d="M67.8096 77.3552L77.8961 62.04" stroke="#1C5360" stroke-width="10" stroke-miterlimit="10" stroke-linecap="round"/>
<path d="M69.3753 46.0628C69.9445 45.2198 69.9626 44.3003 69.4157 44.009C68.8688 43.7177 67.964 44.165 67.3948 45.008C66.8256 45.851 66.8075 46.7706 67.3544 47.0618C67.9013 47.3531 68.8061 46.9058 69.3753 46.0628Z" fill="#1C5360"/>
<path d="M42.7737 83.2305C43.3429 82.3875 43.3609 81.468 42.814 81.1767C42.2671 80.8854 41.3624 81.3327 40.7932 82.1757C40.224 83.0187 40.2059 83.9383 40.7528 84.2296C41.2997 84.5209 42.2045 84.0736 42.7737 83.2305Z" fill="#1C5360"/>
<path d="M69.3205 93.9967C69.8896 93.1536 69.9077 92.2341 69.3608 91.9428C68.8139 91.6515 67.9091 92.0988 67.34 92.9418C66.7708 93.7848 66.7527 94.7044 67.2996 94.9957C67.8465 95.287 68.7513 94.8397 69.3205 93.9967Z" fill="#1C5360"/>
<path d="M3.26355 53.3442V75.1515C3.26355 78.2959 7.10924 80.2453 10.1533 78.6434L39.4681 63.2435C40.8613 62.5146 41.7107 61.184 41.7107 59.7516V37.9443C41.7107 34.7999 37.865 32.8506 34.8209 34.4524L5.50609 49.8523C4.11287 50.5812 3.26355 51.9118 3.26355 53.3442Z" fill="#FFDCDC"/>
<path d="M4.23694 54.2087V76.016C4.23694 79.1604 8.08263 81.1098 11.1267 79.5079L40.4415 64.108C41.8347 63.3791 42.684 62.0485 42.684 60.6161V38.8088C42.684 35.6644 38.8384 33.7151 35.7943 35.3169L6.47942 50.7168C5.08621 51.4457 4.23694 52.7764 4.23694 54.2087Z" fill="#FBA7A6"/>
<path d="M15.8598 75.0583C15.7071 75.143 15.6403 75.0583 15.6308 74.804L15.564 68.1847C15.564 67.9304 15.6307 67.7779 15.7834 67.7016L16.7377 67.2015C16.8904 67.1168 16.9572 67.2015 16.9668 67.4558L16.9858 69.6764L18.0164 69.1339L17.9973 66.9134C17.9973 66.6591 18.0641 66.5065 18.2168 66.4303L19.1711 65.9302C19.3238 65.8455 19.3906 65.9302 19.4001 66.1845L19.4669 72.8038C19.4669 73.0581 19.4001 73.2106 19.2474 73.2869L18.2931 73.787C18.1404 73.8717 18.0737 73.787 18.0641 73.5327L18.0451 71.2613L17.0145 71.8037L17.0336 74.0751C17.0336 74.3294 16.9667 74.482 16.814 74.5582L15.8598 75.0583Z" fill="#1C5360"/>
<path d="M22.1674 71.8969C20.6215 72.7106 20.2398 72.0664 20.2303 70.8206L20.1921 67.3371C20.1826 66.0913 20.5452 65.0488 22.0911 64.2351C23.637 63.4215 24.0091 64.0826 24.0282 65.3285L24.0664 68.8119C24.076 70.0578 23.7133 71.0918 22.177 71.8969H22.1674ZM22.1484 69.9222C22.5969 69.6848 22.6636 69.4475 22.6636 69.1678L22.635 66.4218C22.635 66.1591 22.5586 65.9895 22.1101 66.2269C21.6616 66.4642 21.5949 66.7015 21.5949 66.9727L21.6235 69.7188C21.6235 69.9984 21.6999 70.1595 22.1484 69.9306V69.9222Z" fill="#1C5360"/>
<path d="M26.7383 69.4984C25.2115 70.3036 24.8202 69.6594 24.8107 68.4136L24.763 63.3537C24.763 63.0994 24.8298 62.9469 24.9825 62.8706L25.9463 62.3621C26.099 62.2773 26.1657 62.3621 26.1753 62.6163L26.223 67.2778C26.223 67.5575 26.2994 67.7186 26.7383 67.4897C27.1773 67.2609 27.244 67.0151 27.244 66.7439L27.1963 62.0824C27.1963 61.8281 27.2536 61.684 27.4158 61.5993L28.351 61.1077C28.5037 61.023 28.5705 61.1077 28.58 61.362L28.6277 66.4218C28.6373 67.6677 28.2747 68.7017 26.7383 69.5069V69.4984Z" fill="#1C5360"/>
<path d="M29.687 67.8033C29.5343 67.888 29.4675 67.8033 29.458 67.549L29.3912 60.9297C29.3912 60.6754 29.458 60.5229 29.6107 60.4466L31.6623 59.3702C32.5879 58.8871 32.8838 59.4295 32.8933 60.4381V60.9043C32.9029 61.4721 32.817 61.9298 32.5593 62.2519C33.0078 62.0993 33.3132 62.4807 33.3227 63.3452L33.3418 65.5149C33.3418 65.7692 33.275 65.9217 33.1224 65.998L32.1681 66.4981C32.0154 66.5828 31.9486 66.4981 31.9391 66.2438L31.92 64.6843C31.92 64.3792 31.8532 64.2775 31.6814 64.3707L30.8226 64.8199L30.8417 66.8201C30.8417 67.0744 30.7749 67.227 30.6222 67.3032L29.6679 67.8033H29.687ZM30.813 62.9807L31.2711 62.735C31.4906 62.6248 31.5383 62.3875 31.5383 62.1163V61.7688C31.5383 61.4891 31.4715 61.3196 31.2615 61.4297L30.8035 61.6755V62.9807H30.813Z" fill="#1C5360"/>
<path d="M34.1529 65.4556C34.0002 65.5403 33.9334 65.4556 33.9239 65.2013V64.0063C33.9048 63.752 33.9716 63.5994 34.1338 63.5232L35.7942 62.6502C35.8992 62.5993 35.9564 62.4298 35.9564 62.2688C35.9564 62.0315 35.8992 61.9722 35.7942 62.0061L34.8686 62.2773C34.2865 62.4383 33.9048 62.2264 33.8953 61.0822V60.0058C33.8762 58.8447 34.3438 57.9548 35.1454 57.5395L36.8726 56.6326C37.0252 56.5479 37.092 56.6326 37.1016 56.8869V58.0989C37.1207 58.3531 37.0443 58.5057 36.8917 58.582L35.4507 59.3363C35.3458 59.3956 35.2885 59.5482 35.2885 59.7262C35.2885 59.9126 35.3553 59.9974 35.4603 59.9635L36.3763 59.6838C36.9584 59.5227 37.3402 59.7346 37.3592 60.8703V61.9467C37.3783 63.1163 36.9107 63.9978 36.1092 64.4131L34.1624 65.4386L34.1529 65.4556Z" fill="#1C5360"/>
<path d="M15.7739 66.4304C15.3922 66.6339 15.2204 66.4389 15.2109 65.8033L15.1632 61.4215C15.125 57.4719 16.1174 56.0311 17.5202 54.5733L19.5718 52.4205C19.8963 52.0985 19.9822 51.8442 19.9822 51.2848C19.9822 50.7763 19.8677 50.6831 19.5623 50.8441L16.2224 52.5985C15.8407 52.8019 15.6689 52.607 15.6594 51.9713L15.6308 48.988C15.6308 48.3523 15.793 47.9794 16.1747 47.776L20.7074 45.3944C22.4632 44.4705 23.4271 45.4537 23.4557 48.1997L23.4843 50.5983C23.5129 53.1748 22.6159 54.8191 21.1273 56.3701L19.047 58.5652C18.7416 58.8788 18.6462 58.9805 18.6557 59.5399V60.0739L23.0454 57.7685C23.4271 57.5651 23.5988 57.7601 23.6083 58.3957L23.637 61.3791C23.637 62.0147 23.4748 62.3877 23.0931 62.5911L15.7739 66.4389V66.4304Z" fill="#1C5360"/>
<path d="M28.0742 55.692C26.0798 56.743 25.2592 55.8361 25.2306 52.929L25.1447 43.9874C25.1447 43.3517 25.3069 42.9788 25.6886 42.7754L28.0742 41.521C28.4559 41.3176 28.6277 41.5126 28.6373 42.1482L28.7041 49.132C28.7041 49.666 28.8949 49.9033 29.1908 49.7507L30.6221 48.9964L30.5458 41.1481C30.5458 40.5125 30.708 40.1395 31.0897 39.9361L33.4563 38.6902C33.838 38.4868 34.0098 38.6818 34.0193 39.3174L34.1815 55.8276C34.1815 56.4633 34.0193 56.8362 33.6376 57.0311L31.271 58.277C30.8893 58.4804 30.7175 58.2855 30.708 57.6498L30.6698 54.3105L28.0742 55.6751V55.692Z" fill="#1C5360"/>
<path d="M35.9565 32.732C35.3744 32.5879 34.84 32.5116 34.3724 32.4947C34.6301 32.4692 34.8782 32.4692 35.1167 32.4947C35.3839 32.5625 35.6607 32.6472 35.9565 32.7404V32.732Z" fill="#1C5360"/>
</svg>
